<svg width="80" height="51" viewBox="0 0 80 51" fill="none" xmlns="http://www.w3.org/2000/svg">
<path d="M38.5031 12.0955C38.5031 11.9094 38.6095 11.4442 38.7158 11.072C38.7158 11.072 38.2903 11.072 38.2903 10.979C38.2903 10.6068 37.1203 9.86243 36.8012 9.95548C36.5884 9.95548 36.4821 9.7694 36.3757 9.67635C35.7375 9.02504 34.7801 8.55981 34.5674 7.81545C34.3546 7.35023 33.8228 6.51282 34.3547 5.8615C34.6738 5.39628 34.6738 4.74497 34.6738 4.1867C34.7802 3.44234 35.312 2.79103 35.7375 2.3258C36.2693 1.76753 36.8012 1.3023 37.5458 0.930125C38.0776 0.65099 38.8222 0.650973 39.5668 0.650973C40.205 0.650973 40.9496 0.557927 41.5879 0.650973C42.1197 0.744018 42.5452 1.11621 42.9707 1.39535C43.8216 1.86058 44.8853 2.3258 45.3108 3.1632C45.5236 3.81452 45.7363 4.55886 45.949 5.21017C46.0554 5.58236 46.2681 6.0476 46.1618 6.41978C46.1618 6.885 45.6299 7.35022 45.4172 7.7224C44.7789 8.55981 44.3534 9.7694 43.077 10.1416C42.5452 10.3277 41.9069 10.4207 41.4814 10.7929C41.1623 11.072 40.9496 11.6303 40.6305 12.0955C41.3751 12.3747 42.2261 12.7468 42.9707 12.9329C43.7153 13.2121 44.1407 13.5842 44.3535 14.2356C44.4598 14.5147 44.4598 14.8869 44.5662 15.166C44.6726 15.3521 45.0981 15.6312 44.9917 15.8173C44.6726 16.4687 44.1407 17.0269 43.7153 17.5852C43.2898 18.1434 43.1834 18.9809 42.4388 19.353C42.2261 19.5391 41.6942 19.353 41.3751 19.4461C41.1624 19.5391 40.8433 19.6322 40.8433 19.7252C40.8433 20.2835 41.056 20.9348 41.1624 21.4931C41.1624 21.6792 41.3751 21.9583 41.6942 22.0514C42.6515 22.3305 43.2898 22.8887 43.8216 23.5401C44.0344 23.7262 43.928 24.3775 43.8216 24.7496C43.6089 25.587 42.6516 26.2384 41.8006 26.7036C40.9496 27.1688 39.8859 27.3549 38.9286 27.0758C38.2904 26.8897 37.5458 26.5175 37.1203 25.8662C36.6948 25.2149 36.482 24.4705 36.6948 23.9123C36.8012 23.7262 36.9075 23.354 37.1203 23.2609C37.5458 22.8888 38.2904 22.7957 38.6095 22.3305C38.8222 21.9583 38.8222 21.4 38.9286 20.9348C38.9286 20.8418 38.6095 20.6557 38.7158 20.5626C39.1413 19.8183 38.5031 19.6322 38.0776 19.1669C37.3331 18.5156 36.6948 17.7713 36.2693 16.8408C35.9502 16.1895 36.163 15.4451 36.0566 14.7938C35.9502 13.9564 36.2693 13.5842 37.1203 13.3051C37.2267 13.2121 37.3331 13.026 37.5458 12.9329C37.5458 12.6538 38.0776 12.4677 38.5031 12.0955Z" fill="white"/>
<path d="M11.3787 11.9094C11.2723 11.3512 11.5914 10.6999 11.8042 10.1416C12.0169 9.58331 12.0169 8.932 12.336 8.37373C12.9743 7.35023 14.2507 6.79195 15.4207 6.32673C16.4844 5.8615 17.6545 5.67542 18.8246 6.0476C18.931 6.0476 19.1437 6.41976 19.1437 6.60585C19.1437 7.07108 19.3565 7.25719 19.782 7.44328C20.7393 8.00155 21.5903 8.65286 21.3775 9.76941C21.2711 10.4207 21.4838 11.072 21.2711 11.6303C21.0584 12.1886 20.5265 12.6538 20.2074 13.2121C19.8883 13.7703 20.7393 14.8869 21.4839 14.8869C21.9093 14.8869 22.4412 14.9799 22.8667 14.7938C23.6112 14.4217 24.7813 14.2356 25.4196 14.7008C25.6323 14.8869 25.9514 15.166 26.2705 15.166C26.3769 15.166 26.696 14.8869 26.696 14.9799C27.2279 15.4451 27.6534 15.9104 27.9725 16.3756C28.2916 16.8408 28.3979 17.4921 28.6107 18.0504C28.8234 18.8878 28.3979 19.6322 27.8661 20.2835C27.547 20.5626 27.3343 20.9348 27.7597 21.307C28.6107 21.9583 29.4617 22.6096 30.419 23.2609C30.6317 23.447 31.1636 23.1679 31.4827 23.1679C32.3337 23.2609 33.5037 24.4705 33.3973 25.1218C33.291 25.6801 33.5037 26.4245 33.291 26.9827C33.0783 27.541 32.5464 27.8201 31.9081 28.2853C31.589 28.4714 31.4827 28.8437 31.1636 29.0297C30.419 29.4019 29.6744 29.1228 28.9298 28.9367C28.8234 28.9367 28.8234 28.9367 28.8234 28.9367C28.398 28.1923 27.4406 27.7271 27.4406 26.7966C27.4406 26.2384 27.7597 25.6801 27.9725 25.2149C28.398 24.3775 27.9724 23.8192 27.1215 23.447C26.8024 23.261 26.5896 22.9818 26.2705 22.7957C25.9514 22.6096 25.6323 22.5166 25.3132 22.5166C24.1432 22.7957 22.8667 22.5166 21.9094 21.9583C21.2711 21.5861 20.6329 21.214 20.2074 20.6557C19.8883 20.0974 19.9947 19.4461 19.9947 18.7948C19.9947 18.3296 19.9947 17.8643 19.9947 17.306C19.9947 17.1199 19.8883 16.9339 19.782 16.7478C19.3565 16.1895 18.8246 15.7243 18.2927 15.259C18.08 15.0729 17.4418 15.0729 17.0163 15.259C16.2717 15.6312 14.7825 15.5382 13.9316 15.6312C13.0806 15.6312 12.6552 15.166 12.0169 14.8869C11.6978 14.7008 11.1659 14.2356 11.0596 13.8634C11.1659 13.2121 11.3787 12.6538 11.3787 11.9094Z" fill="white"/>
<path d="M68.7124 12.1884C68.606 12.9328 68.2868 13.7702 68.0741 14.5145C68.0741 14.7006 67.9677 14.7937 67.755 14.8867C67.5423 15.0728 67.3296 15.1659 67.1168 15.352C67.0104 15.445 66.904 15.445 66.6913 15.445C65.8403 15.538 65.0958 15.538 64.2448 15.445C63.5002 15.3519 62.7556 15.2589 62.011 14.7937C61.4792 14.4215 61.0537 14.7937 60.6282 15.1659C60.3091 15.445 59.5645 15.445 59.139 15.7241C58.3944 16.1893 58.2881 17.2128 58.9263 17.7711C59.139 17.9572 59.6709 17.9572 59.7772 18.1433C59.8836 18.7016 59.7773 19.3529 59.8836 19.9111C60.0964 20.5625 59.6709 20.9346 59.2454 21.3068C59.139 21.3999 56.267 21.8651 56.0543 21.8651C55.7352 21.8651 55.416 21.772 54.9906 21.772C54.4587 21.679 54.3524 21.7721 54.0333 22.3303C53.8205 22.7025 52.9695 22.7956 52.6504 23.0747C51.9058 23.726 52.225 24.2843 52.7568 25.1217C53.2887 25.8661 52.8631 26.7035 52.1185 27.2617C51.374 27.82 50.7358 28.3783 49.8848 28.6574C49.3529 28.8435 48.6083 28.5644 48.0765 28.1922C47.2255 27.5409 46.1618 26.8895 46.2682 25.6799C46.2682 25.2147 45.9491 24.6565 46.3746 24.1913C47.0128 23.5399 47.8637 22.8886 48.9274 23.0747C50.3102 23.2608 51.2676 23.0747 51.5867 21.8651C51.6931 21.4929 51.7995 21.1208 52.0122 20.7486C52.1186 20.5625 52.2249 20.5625 52.0122 20.4694C51.374 20.0042 51.374 19.1668 51.2676 18.4224C51.1612 17.6781 50.9485 16.9337 51.2676 16.2824C51.6931 15.5381 52.8632 15.538 53.8205 15.2589C54.0333 15.1658 54.3523 15.0728 54.4587 14.9798C54.9906 14.6076 55.5224 14.6076 56.0543 14.7937C56.3734 14.9798 56.6925 15.0728 56.9052 14.7937C57.5434 14.1424 57.969 13.398 58.6072 12.7467C58.7135 12.6536 58.9263 12.5606 58.9263 12.4676C58.7135 11.7232 58.6072 10.9789 58.3944 10.2345C58.2881 9.67622 57.969 8.93186 58.2881 8.37359C58.6072 7.81532 59.3518 7.44312 59.8836 7.16398C60.0964 7.07094 60.3091 6.7918 60.3091 6.60571C60.2027 5.58221 61.3728 5.7683 61.9046 5.67526C62.7556 5.58221 63.6065 5.39612 64.3511 5.67526C65.0957 5.95439 65.5213 6.69876 66.0531 7.16398C66.9041 8.00139 67.6487 8.46663 67.9678 9.21099C68.606 10.2345 68.7124 11.0719 68.7124 12.1884Z" fill="white"/>
<path d="M25.4195 36.8456C24.4622 36.5665 23.0794 36.4735 22.7603 35.0778C22.6539 34.7987 21.4838 34.2404 21.1647 34.3334C20.952 34.3334 20.6328 34.3334 20.4201 34.3334C20.101 34.3334 19.5692 34.3334 19.4628 34.5195C18.8246 35.2639 17.8672 35.2639 17.0162 35.6361C16.9099 35.7291 16.5907 35.8222 16.4844 35.9152C15.527 36.9387 14.5698 36.3804 13.3997 36.2874C12.7615 36.2874 11.485 35.3569 11.5914 34.7056C11.5914 34.1474 11.6977 33.6821 11.0595 33.5891C10.3149 33.496 9.57033 33.7752 8.93211 33.6822C8.29389 33.5891 8.08117 33.8682 7.76206 34.3334C7.33658 34.8917 6.8047 35.45 6.27285 36.0083C5.95374 36.3805 5.10279 36.7526 4.35819 36.9387C3.6136 37.1248 2.86898 36.8456 2.33713 36.6595C1.69891 36.4735 0.3161 34.9848 0.3161 34.4265C0.3161 34.3335 0.316094 34.3334 0.209723 34.3334C-0.215758 33.6821 0.103359 32.9378 0.3161 32.2865C0.528841 31.6352 0.847965 30.9838 1.06071 30.4256C1.37982 29.5882 1.80529 28.8438 2.54988 28.1925C3.29448 27.5412 4.14543 27.7272 5.10277 27.7272C6.0601 27.7272 6.91104 27.9133 7.4429 28.4716C7.97475 28.9368 8.18753 29.8673 8.61301 30.4256C8.71938 30.5186 8.82576 30.6116 8.82576 30.7977C8.71939 31.356 9.25123 31.5421 9.67671 31.6351C10.4213 31.7282 11.1659 32.0073 11.8041 31.9143C12.0169 31.9143 12.0168 31.2629 12.2296 31.0768C12.655 30.6116 13.1869 30.2394 13.7188 29.8673C14.4634 29.402 15.2079 29.216 15.9525 29.309C16.6971 29.4021 17.4417 29.6812 18.1863 29.9603C19.3564 30.3325 19.6755 31.0769 20.101 31.8212C20.2074 31.9143 20.101 32.0073 20.2073 32.1004C21.0583 32.7517 22.6539 32.5656 23.2921 31.8212C23.6112 31.5421 23.9303 31.0769 24.4622 30.9838C25.5259 30.6116 27.015 31.263 27.6533 32.1004C27.866 32.3795 27.9724 32.5656 28.0788 32.8447C28.2915 33.6821 28.6106 34.5195 27.7597 35.2639C27.6533 35.3569 27.6533 35.45 27.5469 35.5431C27.4406 36.1944 26.696 36.8456 25.4195 36.8456Z" fill="white"/>
<path d="M79.5621 32.6584C79.5621 33.4028 79.7748 34.0542 79.4557 34.6124C79.243 35.2637 78.7111 35.6359 78.0729 36.1011C77.5411 36.5663 76.0519 36.4733 75.3073 36.1941C74.35 35.822 73.8181 35.1707 73.0735 34.5193C72.7544 34.2402 72.1162 34.5194 71.6907 34.4263C71.1589 34.3333 70.5207 34.3332 69.9888 34.3332C69.6697 34.3332 69.4569 33.9611 69.1378 33.868C68.6059 33.868 68.0741 34.2402 67.9677 34.7054C67.8614 35.822 66.6913 36.3803 65.5212 36.2872C64.9894 36.2872 64.0321 36.7524 63.6066 36.1941C63.1811 35.7289 62.862 34.9846 62.4365 34.5193C62.1174 34.2402 61.7982 33.8681 61.3728 33.9611C60.4154 34.0541 59.4581 34.4263 58.5008 34.4263C58.0753 34.4263 57.7562 34.5193 57.5435 34.7985C56.7989 35.6359 55.7352 36.2872 54.5651 36.2872C54.3524 36.2872 54.1396 36.1011 53.9268 36.1011C53.7141 36.1011 53.395 36.4733 53.1822 36.4733C52.0122 36.1011 51.3739 34.7054 51.5867 33.5889C51.693 33.1237 51.4803 32.5654 51.7994 32.1932C52.2249 31.4489 52.9695 30.9836 53.7141 30.7975C54.4587 30.6115 55.5224 30.5184 56.267 30.7975C57.0116 31.0767 57.5434 31.4489 57.8626 32.1002C57.8626 32.1932 57.9689 32.2863 58.0753 32.2863C58.9263 32.1933 59.8836 32.3793 60.8409 32.1932C60.9473 32.1932 60.9473 31.635 61.0537 31.4489C61.0537 30.5184 61.7983 30.0532 62.5429 29.7741C63.3938 29.4949 64.4575 28.9367 65.4148 29.0297C66.7976 29.1228 67.3295 30.4254 67.9677 31.4489C68.1805 31.728 68.9251 31.8211 69.457 31.8211C70.0952 31.9141 70.7334 31.8211 71.3716 31.8211C72.0098 31.8211 71.7971 31.4488 71.6907 31.0767C71.6907 30.7975 71.9035 30.5184 71.9035 30.2393C71.7971 29.4019 72.2225 28.4714 73.0735 27.8201C73.9245 27.2618 75.0945 26.9827 76.0519 27.0757C77.541 27.1688 78.1793 27.9131 78.7111 28.9366C79.0302 29.4949 79.3494 30.0532 79.5621 30.7045C79.4558 31.4489 79.4558 32.0071 79.5621 32.6584Z" fill="white"/>
</svg>
