<svg width="57" height="75" viewBox="0 0 57 75" fill="none" xmlns="http://www.w3.org/2000/svg">
<path d="M56.9633 5.19427C56.6694 5.19427 56.2286 5.33096 55.9347 5.33096C55.2 5.46765 54.6122 5.46765 54.1714 4.92089C53.8775 4.64751 53.5836 4.64751 53.2897 4.92089C53.1428 5.05758 53.1428 5.05758 52.9958 5.19427C52.2611 5.74104 51.6733 6.2878 50.7917 6.56118C49.91 6.97126 49.1753 7.51802 48.2937 8.06479C47.412 8.61155 46.6773 9.4317 45.7956 9.97847C45.6487 10.1152 45.3548 10.2518 45.2079 10.5252C45.0609 10.6619 44.767 10.6619 44.6201 10.3885C44.4732 10.1152 44.4732 9.84178 44.4732 9.56839C44.4732 9.02163 44.4732 8.47486 44.4732 7.9281C44.3262 6.56118 44.1793 5.05758 44.1793 3.69067C44.1793 3.00721 44.1793 2.32375 44.0323 1.77699C44.0323 1.36691 43.8854 0.956839 43.7384 0.546765C43.5915 0.136691 43.2976 0.136692 43.0037 0.273383C42.5629 0.410074 42.1221 0.410074 41.8282 0H41.6813C41.6813 0 41.5343 5.19399e-07 41.5343 0.136692C41.3874 0.273383 41.3874 0.410074 41.3874 0.546765C41.3874 0.683457 41.2404 0.683457 41.0935 0.820148C40.7996 0.683457 40.6526 0.546766 40.3588 0.410074C40.2118 0.546766 40.0649 0.546765 40.0649 0.683457C39.771 0.956839 39.771 1.36691 39.771 1.6403C39.771 1.91368 39.771 2.18706 39.624 2.32375C39.624 2.59714 39.3302 2.73383 39.0363 2.73383C38.8893 2.59714 38.8893 2.32375 38.7424 2.05037C38.5955 1.77699 38.4485 1.6403 38.3016 1.6403C38.0077 1.77699 38.0077 1.91368 38.0077 2.18706C38.0077 2.46044 38.0077 2.59714 38.0077 2.87052C38.0077 3.1439 38.0077 3.55397 38.0077 3.82736C38.0077 4.10074 38.0077 4.37412 37.8607 4.51081C37.5669 4.51081 37.273 4.23743 37.273 3.96405C37.273 3.82736 37.273 3.55397 37.126 3.41728C36.9791 2.87052 36.8322 2.46044 36.5383 2.18706C36.2444 1.91368 35.9505 1.91368 35.6566 2.32375C35.6566 2.46044 35.5097 2.46044 35.5097 2.59714C35.3627 2.59714 35.0688 2.73383 34.9219 2.73383C34.628 2.87052 34.4811 3.00721 34.4811 3.28059C34.4811 3.55397 34.4811 3.69067 34.628 3.96405C35.0688 6.01442 35.3627 7.9281 35.9505 9.97847C35.9505 10.2518 35.9505 10.3885 36.0974 10.6619C36.0974 10.7986 35.9505 10.9353 35.8036 10.7986C35.6566 10.7986 35.5097 10.7986 35.3627 10.6619C34.9219 10.3885 34.3341 10.1152 33.8933 9.84177C33.1586 9.4317 32.5708 9.02163 31.6892 9.29501C31.3953 9.4317 31.1014 9.29501 30.8075 9.29501C30.3667 9.29501 29.7789 9.15832 29.3381 9.02163C28.8972 8.88494 28.3095 8.88494 27.8686 9.02163C27.5748 9.02163 27.4278 9.15832 27.1339 9.29501C26.5462 9.56839 26.5462 9.97847 26.8401 10.3885C26.8401 10.5252 26.987 10.6619 27.1339 10.7986C27.2809 11.072 27.2809 11.3454 26.8401 11.3454C26.6931 11.3454 26.5462 11.3454 26.3992 11.4821C26.1053 11.4821 25.9584 11.4821 25.6645 11.6188C25.3706 11.6188 25.2237 11.8921 25.3706 12.1655C25.3706 12.3022 25.5176 12.4389 25.5176 12.4389C25.9584 12.849 26.1053 13.3957 26.3992 13.8058C26.1053 13.8058 25.9584 13.6691 25.8115 13.6691C25.5176 13.6691 25.3706 13.6691 25.2237 13.9425C25.0767 14.0792 25.2237 14.2159 25.3706 14.4893C25.5176 14.626 25.8115 14.7627 25.8115 15.036C25.6645 15.1727 25.3706 15.1727 25.2237 15.3094C25.0767 15.4461 25.0767 15.5828 24.9298 15.7195C24.9298 15.8562 25.0767 15.9929 25.2237 15.9929C25.6645 16.1296 25.9584 16.2663 26.3992 16.403C26.5462 16.403 26.6931 16.5396 26.8401 16.5396C28.3095 16.813 29.7789 16.9497 31.2483 17.0864C32.2769 17.0864 33.1586 17.3598 33.8933 18.0433C34.0402 18.1799 34.3341 18.4533 34.628 18.59C35.3627 19.0001 35.6566 19.6836 35.6566 20.5037C35.5097 20.5037 35.5097 20.6404 35.3627 20.6404C35.2158 20.6404 35.0688 20.6404 34.9219 20.6404V20.7771C34.9219 22.0073 34.9219 23.921 34.4811 25.5613C34.4811 25.698 34.4811 25.8347 34.3341 25.9714C34.1872 26.6548 34.0402 27.475 33.8933 28.1584C33.8933 28.4318 33.8933 28.8419 33.8933 29.1153C33.8933 29.9354 33.8933 30.8922 33.5994 31.7124C33.3055 32.5325 32.8647 33.216 32.13 33.6261L32.2769 33.7628C32.4239 33.8994 32.7178 34.1728 32.8647 34.3095C33.0116 34.4462 33.1586 34.5829 33.3055 34.7196C33.5994 34.993 34.0402 35.2664 34.3341 35.5397C34.775 35.8131 35.2158 36.2232 35.6566 36.6333C36.6852 37.5901 37.5669 38.4103 38.8893 38.957C39.1832 39.0937 39.6241 39.0937 40.0649 39.0937C40.5057 39.0937 41.0935 39.0937 41.5343 38.957C41.9751 38.957 42.269 38.8203 42.7098 38.8203C44.0323 38.6836 44.914 38.0002 45.9426 36.9067C46.6773 36.2232 46.9712 34.5829 46.9712 34.0361C47.1181 33.0793 46.9712 31.9858 46.5303 31.0289C45.7956 29.7987 45.2079 28.7052 44.0323 28.5685C43.7384 28.5685 43.2976 28.5685 43.0037 28.5685C41.9751 28.5685 41.0935 28.8419 40.5057 29.3886C39.3302 30.4822 38.8893 31.439 39.1832 32.5325C39.3302 33.0793 40.2118 34.0361 40.6526 34.1728C40.7996 34.1728 40.9465 34.1728 41.0935 34.1728C41.3874 34.1728 41.6813 34.0361 41.6813 34.0361C41.8282 33.7628 41.9751 33.6261 42.1221 33.6261H42.269L42.8568 33.7628C43.0037 33.7628 43.1507 33.8994 43.1507 34.0361C43.1507 34.1728 43.2976 34.3095 43.1507 34.4462C42.8568 35.1297 42.1221 35.6764 41.0935 35.6764C40.7996 35.6764 40.5057 35.6764 40.3588 35.5397C39.624 35.4031 39.0363 34.8563 38.5955 34.4462C38.1546 33.8994 37.7138 33.3527 37.5669 32.8059C37.273 31.9858 37.273 31.1656 37.5669 30.3455C37.8607 29.5253 38.4485 28.8419 39.1832 28.0217C40.0649 27.2016 41.2404 26.7915 42.7098 26.7915C43.0037 26.7915 43.4446 26.7915 43.8854 26.9282C44.914 27.0649 45.6487 27.475 46.3834 28.2951C46.9712 28.9786 47.412 29.662 47.7059 30.2088C48.2937 31.3023 48.5876 32.8059 48.2937 34.0361C48.1467 35.2664 47.7059 36.77 46.8242 37.7268C45.6487 38.957 44.4732 40.0506 42.416 40.1872C42.1221 40.1872 41.6812 40.3239 41.3874 40.3239C40.7996 40.4606 40.2118 40.4606 39.624 40.4606C38.8893 40.4606 38.3016 40.3239 37.8607 40.1872C36.2444 39.5038 35.0688 38.547 34.0402 37.5901C33.7463 37.3167 33.3055 36.9067 32.8647 36.6333C32.4239 36.3599 32.13 36.0865 31.6892 35.6764C31.5422 35.6764 31.5422 35.5397 31.3953 35.4031C31.1014 35.1297 30.6606 34.8563 30.3667 34.4462L30.2197 34.3095C29.3381 34.7196 28.3095 34.993 27.2809 35.2664C26.5462 35.4031 25.8115 35.6764 25.0767 35.9498C23.1665 36.6333 21.2562 37.5901 19.0521 38.8203C18.4643 39.2304 17.5827 39.6405 16.701 40.0506C14.35 41.2808 11.4111 42.7844 10.0886 44.0146C9.94168 44.1513 9.79473 44.1513 9.64779 44.1513H9.50084C9.06001 44.5614 8.61919 44.8348 8.17836 45.2448C7.59059 45.7916 7.00283 46.2017 6.41506 46.7484C5.68034 47.2952 5.09257 47.9787 4.5048 48.5254C4.06397 49.0722 3.47619 49.6189 2.88842 50.029C2.4476 50.3024 2.15372 50.7125 1.85983 51.1226C1.71289 51.2592 1.56594 51.5326 1.419 51.6693C1.12511 52.0794 0.68429 52.4895 0.390405 52.8995C0.243463 53.0362 0.0965248 53.1729 0.0965248 53.4463C-0.0504177 53.8564 -0.0504311 54.4031 0.243454 54.6765C0.537339 54.9499 1.12512 54.9499 1.56595 54.8132C1.71289 54.8132 1.85984 54.6765 2.00678 54.6765C3.03538 54.4031 4.2109 54.1298 5.38644 54.1298C6.41504 54.1298 7.29669 53.9931 8.32529 53.9931C9.06 53.9931 9.79473 53.8564 10.3825 53.7197C10.9703 53.583 11.558 53.583 12.2928 53.583C13.6152 53.583 14.9377 53.4463 16.2602 53.4463C16.5541 53.4463 16.701 53.4463 16.9949 53.4463C18.1705 53.4463 19.1991 53.4463 20.3746 53.4463C20.5215 53.4463 20.6685 53.4463 20.8154 53.4463C21.2562 53.3096 21.6971 53.3096 22.1379 53.4463C22.2848 53.4463 22.4318 53.4463 22.5787 53.4463C23.3134 53.1729 23.9012 53.1729 24.6359 53.0362C25.2237 53.0362 25.6645 52.8995 26.2523 52.8995C26.2523 52.7629 26.3992 52.6262 26.5462 52.6262C29.3381 50.9859 30.0728 50.029 30.2197 49.4823C30.3667 49.0722 30.3667 48.3887 30.2197 47.9787C30.2197 47.5686 30.0728 47.1585 29.9259 46.7484C29.7789 46.475 29.7789 46.2017 29.632 45.7916C29.485 45.2448 29.485 44.9714 29.0442 44.6981C28.6034 44.1513 27.8686 43.7412 27.1339 43.3311C26.987 43.3311 26.987 43.1945 26.8401 43.1945C26.6931 43.1945 26.6931 43.0578 26.5462 43.0578C26.3992 42.9211 26.1053 42.7844 26.1053 42.7844C25.9584 42.7844 25.8115 42.7844 25.6645 42.7844C25.5176 42.7844 25.3706 42.7844 25.0767 42.7844C24.9298 42.7844 24.6359 42.7844 24.489 42.7844C24.1951 42.7844 23.9012 42.7844 23.7543 42.7844C23.4604 42.7844 23.1665 42.7844 23.0195 42.7844C22.7257 42.7844 22.4318 42.7844 22.2848 42.7844C21.6971 42.9211 21.1093 43.1945 20.5215 43.4678H20.3746C19.346 44.0146 19.0521 44.5614 18.6113 45.6549C18.4643 46.065 18.3174 46.3384 18.3174 46.6117C18.3174 46.7484 18.4643 46.8851 18.9052 47.1585C19.9338 47.7053 21.1093 48.1153 22.2848 48.1153C22.4318 48.1153 22.5787 48.1153 22.7257 48.1153C22.8726 48.1153 23.0195 48.1153 23.0195 48.1153C23.3134 48.1153 23.4604 48.1153 23.6073 47.9787C23.9012 47.7053 24.1951 47.4319 24.1951 47.0218C24.342 46.2017 23.1665 45.6549 22.8726 45.6549C22.5787 45.5182 22.4318 45.2448 22.5787 44.9714L22.7257 44.5614C22.7257 44.4247 22.8726 44.288 23.0195 44.288C23.1665 44.288 23.1665 44.288 23.3134 44.288H23.4604C24.1951 44.5614 24.7829 44.8348 25.2237 45.2448C25.8114 45.7916 25.9584 46.475 25.9584 47.2952C25.8114 48.1153 25.3706 48.7988 24.7829 49.2089C24.1951 49.6189 23.6073 49.6189 23.1665 49.6189C23.0196 49.6189 22.8726 49.6189 22.7257 49.6189C22.5787 49.6189 22.4318 49.6189 22.4318 49.6189C20.9624 49.6189 19.4929 49.2089 18.1705 48.3887C17.4357 47.9787 16.9949 47.4319 16.848 46.8851C16.701 46.3384 16.9949 45.7916 17.1418 45.2448C17.7296 43.8779 18.3174 42.9211 19.7868 42.2376H19.9338C20.5215 41.9642 21.4032 41.5542 22.1379 41.4175C22.4318 41.4175 22.8726 41.2808 23.1665 41.2808C23.4604 41.2808 23.7543 41.2808 24.0482 41.2808C24.342 41.2808 24.489 41.2808 24.7829 41.2808C24.9298 41.2808 25.0767 41.2808 25.2237 41.2808C25.3706 41.2808 25.6645 41.2808 25.8115 41.2808C26.2523 41.2808 26.5462 41.2808 26.6931 41.4175C27.1339 41.5542 27.4278 41.8275 27.7217 41.9642C27.8687 41.9642 27.8686 42.1009 27.8686 42.1009C28.0156 42.1009 28.0156 42.2376 28.1625 42.2376C28.8972 42.6477 29.632 43.1945 30.2197 43.7412C30.8075 44.4247 30.9544 44.9714 31.1014 45.5182C31.1014 45.7916 31.2483 46.065 31.3953 46.3384C31.5422 46.7484 31.6891 47.2952 31.8361 47.9787C31.8361 48.6621 31.8361 49.4823 31.6892 50.029C31.3953 50.9859 30.2197 52.0794 28.3095 53.3096C28.6034 53.583 28.7503 53.7197 28.8972 54.1298C29.1911 54.8132 29.3381 55.4967 29.3381 56.3168C29.3381 57.137 29.3381 57.8204 29.3381 58.6406C29.3381 59.7341 29.485 60.6909 29.485 61.7845C29.485 61.9212 29.485 61.9212 29.485 62.0579C29.3381 63.2881 29.485 64.3816 29.632 65.6118C29.7789 66.1586 29.7789 66.5687 29.7789 67.1154C29.9258 68.209 29.9258 69.4392 30.0728 70.5327C30.0728 71.2162 30.2197 71.7629 30.0728 72.4464C30.0728 72.7198 30.0728 72.8565 30.2197 72.9932C30.3667 73.1299 30.5136 73.4032 30.5136 73.6766C30.5136 73.8133 30.5136 73.95 30.5136 74.0867C30.6606 74.6335 31.1014 75.0435 31.983 74.9068C32.7178 74.7702 33.3055 74.7702 34.0402 74.7702C34.3341 74.7702 34.628 74.7702 34.9219 74.7702C35.3627 74.7702 35.9505 74.6335 36.3913 74.4968C37.4199 74.3601 38.5955 74.2234 39.624 74.0867C40.7996 73.95 41.8282 73.95 43.0037 73.95C43.5915 73.95 44.1793 73.95 44.767 73.8133C45.7956 73.5399 46.6773 73.5399 47.7059 73.6766C48.8814 73.8133 50.057 73.95 51.2325 73.6766C51.6733 73.5399 52.2611 73.6766 52.555 73.95C52.8489 74.0867 53.1428 74.2234 53.4367 74.2234C53.8775 74.0867 54.1714 73.8133 53.8775 73.4032C53.8775 73.2665 53.7305 73.2665 53.5836 73.1299C53.2897 72.7198 53.2897 72.4464 53.8775 72.173C54.4652 71.7629 54.6122 71.6263 54.4652 71.0795C54.3183 70.6694 54.3183 70.2593 54.3183 69.8493C54.3183 69.5759 54.3183 69.3025 54.1714 69.0291C54.0244 68.7557 53.8775 68.4824 54.0244 68.0723C54.0244 67.7989 54.1714 67.5255 54.0244 67.2521C53.8775 66.1586 54.0244 65.0651 53.8775 63.9715C53.8775 63.8348 53.8775 63.5615 54.0244 63.4248C54.3183 63.1514 54.3183 62.878 54.3183 62.6046C54.3183 62.3312 54.3183 61.9212 54.0244 61.6478C53.8775 61.5111 53.8775 61.3744 54.0244 61.2377C54.3183 60.9643 54.3183 60.5543 54.6122 60.2809C54.9061 59.7341 54.9061 59.324 54.6122 58.914C54.4652 58.6406 54.3183 58.5039 54.1714 58.2305C53.8775 57.9571 53.8775 57.8204 54.0244 57.547C54.0244 57.4104 54.1714 57.4104 54.1714 57.2737C54.3183 57.0003 54.3183 56.8636 54.0244 56.5902C53.7305 56.1801 53.7305 56.1801 54.0244 55.9067L54.1714 55.7701C54.3183 55.6334 54.3183 55.36 54.1714 55.2233C54.0244 55.0866 54.0244 55.0866 53.8775 54.9499C53.7305 54.6765 53.7305 54.4031 54.0244 54.2665C54.1714 54.2665 54.1714 54.2665 54.3183 54.1298C54.4652 54.1298 54.4652 53.8564 54.4652 53.8564C54.3183 53.7197 54.3183 53.7197 54.1714 53.583C53.7305 53.1729 53.7305 53.0362 54.0244 52.6262C54.1714 52.3528 54.3183 52.0794 54.1714 51.806C54.0244 51.806 53.8775 51.806 53.7305 51.806C53.7305 51.6693 53.7305 51.6693 53.7305 51.5326C53.8775 50.8492 53.7305 50.3024 53.7305 49.6189C53.7305 49.3456 53.7305 49.2089 53.7305 48.9355C53.7305 48.5254 53.8775 48.1153 53.7305 47.7053C53.5836 47.4319 53.7305 47.1585 54.0244 47.0218C54.3183 46.7484 54.4652 46.475 54.6122 46.2017C54.6122 45.9283 54.1714 46.065 54.3183 45.9283C54.6122 45.2448 54.7591 45.3815 54.0244 44.8348C53.7305 44.5614 53.7305 44.288 53.7305 43.8779C53.7305 43.4678 53.7305 43.0578 53.7305 42.7844C53.7305 41.8275 53.8775 40.8707 54.0244 39.9139C54.0244 39.6405 54.0244 39.3671 54.0244 39.0937C54.0244 37.7268 54.0244 36.3599 54.0244 34.993C54.0244 34.5829 54.0244 34.1728 54.0244 33.7628C54.1714 33.216 54.0244 32.6692 54.0244 32.1225C54.0244 31.0289 53.7305 30.0721 54.0244 28.9786C54.0244 28.8419 54.0244 28.7052 54.0244 28.5685C53.8775 27.3383 54.1714 26.108 54.1714 25.0145C54.1714 24.8778 54.1714 24.8778 54.1714 24.7411C54.3183 24.1944 54.3183 23.6476 54.9061 23.2375C55.053 23.1008 55.053 22.9641 55.053 22.8275C55.053 22.5541 55.053 22.144 55.053 21.8706C55.053 21.5972 54.7591 21.4605 54.6122 21.4605C54.4652 21.4605 54.1714 21.4605 54.0244 21.4605C53.1428 21.4605 52.4081 21.4605 51.5264 21.4605C51.0856 21.4605 50.4978 21.4605 50.057 21.3238C49.6161 21.3238 49.0284 21.3238 48.5875 21.1872C47.9998 21.1872 47.5589 21.0505 46.9712 21.1872C46.6773 21.3238 46.3834 21.1872 46.0895 21.1872C45.7956 21.1872 45.5018 21.1872 45.3548 20.9138C45.2079 20.6404 45.5018 20.5037 45.6487 20.2303C46.2365 19.6836 46.8242 19.1368 47.2651 18.4533C47.8528 17.7699 48.5875 17.2231 49.6161 17.2231C50.2039 17.2231 50.6447 17.2231 51.2325 17.3598C51.6733 17.4965 52.1142 17.4965 52.7019 17.6332C52.8489 17.6332 53.1428 17.6332 53.2897 17.6332C53.7305 17.6332 54.0244 17.2231 53.7305 16.813C53.5836 16.6763 53.4367 16.5396 53.4367 16.5396C53.2897 16.403 53.2897 16.403 53.1428 16.2663C53.2897 15.9929 53.5836 15.8562 53.8775 15.7195C54.0244 15.5828 54.3183 15.4461 54.4652 15.3094C54.6122 15.1727 54.6122 15.036 54.6122 14.8994C54.6122 14.7627 54.4652 14.626 54.3183 14.626V14.4893C54.4652 14.2159 54.6122 14.0792 54.6122 13.8058C54.7591 13.5324 54.4652 13.3957 54.3183 13.3957C54.1714 13.3957 53.8775 13.5324 53.7305 13.5324C53.4367 13.5324 53.2897 13.6691 52.9958 13.6691C52.7019 13.6691 52.4081 13.5324 52.2611 13.3957C52.1142 13.2591 52.2611 12.9857 52.408 12.849C52.9958 12.4389 53.4366 12.0288 54.0244 11.7555C54.4652 11.6188 54.7591 11.3454 54.9061 10.9353C55.2 10.3885 55.4938 9.70508 55.9347 9.29501C56.0816 9.15832 55.9347 9.02163 55.7877 8.88494C55.4938 8.88494 55.2 8.88494 55.053 8.88494C54.7591 8.88494 54.6122 9.02163 54.3183 9.02163C54.1714 9.02163 54.0244 9.02163 53.8775 9.02163C54.0244 8.61155 54.1714 8.33817 54.4652 8.06479C54.7591 7.79141 54.9061 7.65471 55.053 7.24464C55.2 6.83457 55.4938 6.56118 55.9347 6.42449C56.2286 6.2878 56.5224 6.15111 56.6694 6.01442L56.8163 5.87773C57.1102 5.33096 56.9633 5.33096 56.9633 5.19427ZM32.8647 20.5037C32.5708 20.367 32.2769 20.2303 31.983 20.367C31.1014 20.6404 30.2197 20.7771 29.485 21.0505C28.8973 21.3238 28.1625 21.4605 27.4278 21.5972C27.1339 21.5972 26.84 21.7339 26.6931 21.8706C25.9584 22.144 25.3706 22.5541 24.6359 22.8275C24.489 22.9641 24.1951 22.9641 24.0482 23.1008C23.6073 23.3742 23.0196 23.5109 22.5787 23.921C22.2848 24.1944 21.9909 24.4677 21.5501 24.6044C21.4032 24.6044 21.2562 24.7411 21.1093 24.8778C20.6685 25.2879 20.3746 25.698 19.9338 25.9714C19.346 26.3814 18.9052 26.9282 18.3174 27.3383C17.7296 27.7483 17.2888 28.2951 16.848 28.7052C16.701 28.8419 16.701 28.8419 16.701 28.9786C16.4071 29.9354 15.8194 30.7555 15.3785 31.7124C15.0847 32.2592 14.7908 32.8059 14.4969 33.3527C14.0561 34.1728 13.7622 35.1297 13.4683 35.9498C13.3213 36.3599 13.1744 36.77 13.0275 37.0433C12.8805 37.3167 12.7336 37.7268 12.7336 38.1369C12.7336 38.5469 12.5866 38.957 12.5866 39.3671C12.4397 39.7772 12.4397 40.0506 12.5866 40.4606C12.7336 40.734 12.5866 41.0074 12.4397 41.1441C13.9091 40.3239 15.5255 39.5038 16.848 38.6836C17.7296 38.2736 18.4643 37.8635 19.0521 37.4534C21.2562 36.2232 23.3134 35.2664 25.3706 34.4462C26.1053 34.1728 26.8401 33.8994 27.5748 33.7628C28.7503 33.4894 29.9258 33.0793 31.1014 32.5325C32.4239 31.8491 32.4239 30.7555 32.4239 28.9786C32.4239 28.7052 32.4239 28.2951 32.4239 28.0217C32.4239 27.2016 32.7178 26.3814 32.8647 25.5613C32.8647 25.4246 32.8647 25.2879 33.0116 25.1512C33.3055 23.7843 33.4525 22.0073 33.4525 20.7771C33.4525 20.6404 33.4525 20.6404 33.4525 20.5037C33.0116 20.5037 33.0116 20.5037 32.8647 20.5037Z" fill="white"/>
</svg>
