<svg width="42" height="41" viewBox="0 0 42 41" fill="none" xmlns="http://www.w3.org/2000/svg">
<path d="M5.94829 38.8244C5.94829 38.8244 5.87938 38.6033 5.8777 38.6764C5.64741 39.037 5.86759 39.1152 5.50287 38.8873C5.50287 38.8873 5.50624 38.7411 5.43229 38.7394C4.91629 38.6543 4.99699 38.3635 4.8575 37.9944C4.71802 37.6253 4.57852 37.2562 4.58862 36.8174C4.59031 36.7443 4.36845 36.7392 4.29618 36.6643C4.00879 36.2918 4.09454 35.7816 4.10465 35.3428C4.11308 34.9771 4.35009 34.324 4.36525 33.6658C4.38042 33.0076 4.32162 32.3477 4.33004 31.982C4.34184 31.4701 4.20405 31.0279 4.21416 30.5891C4.22595 30.0771 3.94025 29.6315 3.95036 29.1927C3.96046 28.7539 4.11846 28.3185 4.05462 27.878C4.06136 27.5855 4.14373 27.2215 4.07652 26.9272C4.01604 26.3405 3.65808 25.82 3.59592 25.3064C3.60265 25.0138 3.61108 24.6482 3.61782 24.3556C3.63298 23.6974 3.72042 23.114 3.73558 22.4558C3.75074 21.7976 4.06003 21.2194 4.07519 20.5612C4.09036 19.9029 3.88196 19.3128 3.97108 18.6562C3.98624 17.998 4.22158 17.4181 4.31069 16.7616C4.31743 16.469 4.18301 15.8806 4.04857 15.2921C3.91414 14.7036 3.85368 14.1168 3.85873 13.8974C3.93774 13.6797 3.72092 13.4552 3.65202 13.2341C3.58649 12.8667 3.66381 12.7222 4.03863 12.5113C4.48742 12.3021 4.56474 12.1575 4.5009 11.717C4.50427 11.5707 4.65555 11.4279 4.65892 11.2816C4.66061 11.2085 4.51437 11.1319 4.51437 11.1319C4.96147 10.9959 4.89595 10.6285 5.12287 10.4142C5.27415 10.2714 5.28257 9.90568 5.43047 9.90909C5.79856 9.99074 6.091 10.1438 6.31792 9.92953C6.69611 9.57238 6.9953 9.43293 7.43397 9.66255C7.58019 9.7391 7.7987 9.89048 7.9466 9.89389C8.09451 9.89729 8.32144 9.683 8.46935 9.6864C8.98703 9.69833 9.57359 9.93136 10.0913 9.94329C10.609 9.95521 11.204 9.82257 11.7216 9.83449C12.2393 9.84642 12.8276 10.0063 13.3453 10.0182C13.8629 10.0302 14.4529 10.1169 14.9706 10.1289C15.858 10.1493 16.8194 10.1715 17.7086 10.1188C18.3742 10.1341 19.0414 10.0763 19.7087 10.0185C20.302 9.95897 20.8954 9.89947 21.413 9.9114C22.0047 9.92503 22.6703 9.94036 23.2619 9.95399C23.8535 9.96762 24.5191 9.98295 25.1108 9.99658C25.7024 10.0102 26.3764 9.65987 26.968 9.67349C27.5597 9.68712 28.2168 10.0681 28.8085 10.0818C29.4741 10.0971 30.2153 10.041 30.7228 10.4917C30.8674 10.6414 31.1666 10.5019 31.3868 10.5802C31.6069 10.6584 31.8994 10.8115 32.0456 10.8881C32.1179 10.9629 32.333 11.2605 32.3296 11.4068C32.3212 11.7725 32.3834 12.2861 32.7498 12.4409C32.896 12.5175 33.1952 12.378 33.3414 12.4545C33.6322 12.6808 33.4674 13.4087 33.0943 13.5465C32.5732 13.6808 32.2774 13.674 32.2639 14.2591C32.2572 14.5516 32.3967 14.9207 32.4639 15.2149C32.5328 15.436 33.237 16.9889 33.2319 17.2083C33.2218 17.6471 33.2117 18.0859 33.3495 18.5281C33.4907 18.8241 33.5579 19.1183 33.6251 19.4125C33.6839 20.0724 33.4468 20.7255 33.5056 21.3855C33.4938 21.8974 33.556 22.411 33.5442 22.923C33.5324 23.4349 33.6685 23.9503 33.5811 24.5336C33.5693 25.0456 33.3357 25.5524 33.3222 26.1375C33.3104 26.6494 33.5944 27.1682 33.5809 27.7532C33.5759 27.9727 33.4969 28.1904 33.5658 28.4115C33.7019 28.9268 33.7624 29.5136 33.6766 30.0238C33.6732 30.1701 33.3757 30.2364 33.3001 30.3078C33.1505 30.3776 33.0715 30.5953 32.9219 30.665C32.6967 30.8062 32.4731 30.8742 32.3219 31.017C32.2462 31.0885 32.0966 31.1582 32.0193 31.3028C31.863 31.665 31.4881 31.8759 31.1957 31.7228C31.0495 31.6463 31.0528 31.5 30.9738 31.7177C30.9721 31.7908 30.7486 31.8589 30.7469 31.932C30.6679 32.1497 30.7402 32.2245 30.52 32.1463C30.2998 32.0681 30.1502 32.1378 30.157 31.8452C30.1587 31.7721 30.2343 31.7007 30.236 31.6276C30.2376 31.5544 30.0192 31.403 30.0208 31.3299C29.9452 31.4013 29.7939 31.5442 29.7923 31.6173C29.7889 31.7636 30.0796 31.9898 30.0023 32.1344C30.0006 32.2075 29.6325 32.1259 29.5586 32.1242C29.4846 32.1225 29.5586 32.1242 29.5603 32.051C29.4914 31.8299 29.1922 31.9694 28.9703 31.9643C28.8964 31.9626 28.6813 31.6649 28.6829 31.5918C28.614 31.3707 28.5401 31.369 28.3165 31.437C27.7232 31.4965 27.1316 31.4829 26.5382 31.5424C25.9449 31.6019 25.3533 31.5882 24.7583 31.7209C24.0893 31.8518 23.491 32.1307 22.8993 32.1171C22.2321 32.1749 21.6472 31.8687 20.9816 31.8534C20.316 31.8381 19.7176 32.117 19.052 32.1017C18.3864 32.0863 17.8015 31.7801 17.136 31.7648C16.6183 31.7529 16.0972 31.8872 15.5795 31.8753C15.0619 31.8634 14.5442 31.8515 14.0282 31.7664C13.5105 31.7545 12.9155 31.8871 12.3995 31.802C12.3256 31.8003 12.1037 31.7952 12.0297 31.7935C11.8112 31.6422 11.6667 31.4925 11.4482 31.3411C11.2297 31.1897 11.3087 30.972 11.3138 30.7526C11.3239 30.3138 11.1138 29.7968 11.1239 29.358C11.134 28.9192 11.2198 28.4089 11.2299 27.9701C11.2434 27.385 11.5526 26.8068 11.5661 26.2217C11.5796 25.6366 11.3712 25.0464 11.3847 24.4614C11.3864 24.3882 11.6839 24.3219 11.6856 24.2488C12.0016 23.378 11.8016 22.4221 11.6 21.5394C11.4656 20.9509 11.4689 20.8046 11.9194 20.5223C11.9951 20.4509 12.1446 20.3812 12.148 20.2349C12.1531 20.0155 12.0085 19.8658 11.9379 19.7178C11.8707 19.4236 11.9514 19.1328 11.9565 18.9134C11.9582 18.8402 12.0338 18.7688 12.1077 18.7705C12.1817 18.7722 12.3347 18.5562 12.4069 18.6311C12.77 18.9321 12.9901 19.0104 13.1481 18.575C13.3062 18.1396 13.76 17.711 14.2693 18.0886C14.4155 18.1651 14.5583 18.3879 14.7096 18.2451C14.9365 18.0308 15.1635 17.8165 15.461 17.7502C16.1265 17.7655 16.7871 18.0002 17.3804 17.9407C18.046 17.9561 18.6444 17.6771 19.31 17.6925C19.9755 17.7078 20.6428 17.65 21.2345 17.6636C21.6782 17.6739 22.1975 17.6127 22.643 17.5497C22.8648 17.5549 23.1606 17.5617 23.3825 17.5668C23.6783 17.5736 23.9002 17.5787 24.196 17.5855C24.4918 17.5923 24.633 17.8883 24.7742 18.1842C24.9153 18.4802 25.2061 18.7064 25.3472 19.0023C25.4195 19.0772 25.4145 19.2966 25.4884 19.2983C25.8565 19.3799 26.2935 19.6827 26.2851 20.0483C26.2767 20.414 26.0447 20.8477 26.4094 21.0756C26.4817 21.1505 26.7019 21.2287 26.7002 21.3019C26.68 22.1795 26.4395 22.9788 26.4193 23.8565C26.4126 24.149 26.4042 24.5147 26.3974 24.8072C26.3856 25.3191 26.0814 25.678 25.6309 25.9603C25.2561 26.1712 24.5905 26.1559 24.4308 26.6644C24.3535 26.809 24.4275 26.8107 24.2829 26.661C24.1401 26.4382 24.0627 26.5827 23.9837 26.8004C23.8325 26.9433 23.7619 26.7953 23.6173 26.6457C23.5451 26.5708 23.3954 26.6405 23.3215 26.6388C22.9551 26.4841 22.8156 26.115 22.8257 25.6762C22.8274 25.603 22.535 25.4499 22.3871 25.4465C22.1669 25.3683 22.2425 25.2969 22.2492 25.0043C22.2627 24.4193 22.2779 23.761 22.2914 23.176C22.2947 23.0297 22.1502 22.88 22.1536 22.7338C22.1603 22.4412 22.0175 22.2184 21.7216 22.2116C20.8325 22.2643 19.9383 22.5364 19.0492 22.5891C18.3819 22.6469 17.7163 22.6315 17.1247 22.6179C16.7549 22.6094 16.7532 22.6825 16.7448 23.0482C16.738 23.3407 16.7313 23.6333 16.7985 23.9275C16.7968 24.0007 16.9448 24.0041 16.9448 24.0041C17.0069 24.5177 16.8472 25.0262 16.9111 25.4667C16.9732 25.9804 17.0388 26.3478 16.8791 26.8563C16.8 27.074 16.795 27.2934 16.716 27.5111C16.6353 27.8019 16.7815 27.8785 17.0773 27.8853C17.8169 27.9023 18.4791 28.0639 19.2186 28.081C19.9582 28.098 20.6238 28.1133 21.365 28.0572C22.1062 28.0011 22.7718 28.0165 23.513 27.9604C24.1064 27.9009 24.6325 27.5471 25.2258 27.4876C25.8191 27.4281 26.4091 27.5149 26.9301 27.3805C27.2276 27.3142 27.5184 27.5404 27.7402 27.5455C28.11 27.5541 28.189 27.3364 28.1974 26.9707C28.2075 26.5319 28.0698 26.0897 28.0815 25.5777C28.0917 25.1389 28.0278 24.6984 27.9656 24.1848C27.9035 23.6711 28.0615 23.2357 28.0733 22.7238C28.0851 22.2118 28.0952 21.773 28.107 21.2611C28.1205 20.676 28.1339 20.0909 28.1474 19.5059C28.1609 18.9208 28.1744 18.3357 28.1878 17.7506C28.1946 17.4581 28.277 17.0941 28.2837 16.8016C28.2871 16.6553 27.2837 15.2419 27.2131 15.094C27.2216 14.7283 27.2199 14.8014 26.9257 14.7215C26.7778 14.7181 26.7039 14.7164 26.556 14.713C25.9643 14.6993 25.3072 14.3183 24.7138 14.3778C24.1222 14.3642 23.5221 14.7162 22.8566 14.7009C22.2649 14.6873 21.6027 14.5257 21.0094 14.5852C20.4177 14.5716 19.7555 14.4099 19.1639 14.3963C18.5723 14.3827 17.9067 14.3674 17.315 14.3537C16.7234 14.3401 16.0544 14.471 15.4611 14.5305C14.8678 14.59 14.2039 14.5016 13.6106 14.5611C12.7214 14.6138 11.9029 14.8144 11.0154 14.794C10.2019 14.7753 9.39351 14.5371 8.58001 14.5184C8.28419 14.5116 8.9144 16.0627 8.90766 16.3553C8.89587 16.8672 8.66223 17.374 8.65043 17.886C8.63864 18.3979 8.55289 18.9081 8.54109 19.4201C8.53436 19.7126 8.82512 19.9388 8.89233 20.2331C8.95955 20.5273 8.87886 20.8182 8.8738 21.0376C8.86201 21.5495 9.07207 22.0665 9.05859 22.6516C9.12075 23.1653 9.10728 23.7503 9.09549 24.2623C9.15765 24.7759 8.92232 25.3559 8.83657 25.8661C8.83152 26.0855 8.89872 26.3798 8.96762 26.6009C9.17095 27.4105 9.15073 28.2881 9.20446 29.1674C9.19267 29.6793 9.25316 30.2661 9.31532 30.7798C9.37411 31.4397 9.50853 32.0281 9.49337 32.6864C9.47989 33.2714 9.3773 34.513 9.8933 34.5981C10.6312 34.6882 11.3656 34.9247 12.1018 35.088C12.8397 35.1782 13.5792 35.1952 14.3171 35.2854C14.981 35.3738 15.6466 35.3892 16.3122 35.4045C16.9761 35.493 17.64 35.5814 18.3056 35.5968C18.9711 35.6121 19.6317 35.8468 20.2973 35.8622C20.9629 35.8775 21.6285 35.8928 22.2941 35.9082C22.9596 35.9235 23.553 35.864 24.1463 35.8045C24.8119 35.8198 25.4052 35.7603 26.0708 35.7756C26.7364 35.791 27.3314 35.6583 27.923 35.672C28.5886 35.6873 29.1785 35.7741 29.8441 35.7894C30.3618 35.8013 30.8106 35.5921 31.3299 35.5309C31.6275 35.4646 31.8544 35.2503 32.1519 35.184C32.5973 35.1211 33.1116 35.2793 33.557 35.2164C34.0024 35.1534 34.5184 35.2385 34.9638 35.1756C35.1117 35.179 35.189 35.0344 35.3353 35.111C35.705 35.1195 35.8093 33.8048 35.8917 33.4408C35.9018 33.002 35.9842 32.638 35.9943 32.1992C36.0078 31.6142 36.1708 30.9594 36.1843 30.3743C36.1978 29.7892 35.9155 29.1973 35.9306 28.5391C35.9441 27.954 36.0299 27.4438 36.0433 26.8587C36.0568 26.2736 36.0686 25.7617 36.0821 25.1766C36.0989 24.4453 36.262 23.7905 36.2789 23.0591C36.2957 22.3278 36.3109 21.6696 36.1798 20.9348C36.1176 20.4212 36.2034 19.911 36.2152 19.399C36.2337 18.5945 36.1026 17.8598 35.9733 17.0519C35.9061 16.7577 35.9128 16.4651 35.9178 16.2457C35.933 15.5875 35.9482 14.9293 35.965 14.198C35.9802 13.5398 36.0693 12.8833 36.0122 12.1502C36.0206 11.7845 36.0375 11.0532 36.0594 10.1024C36.0745 9.44423 36.0914 8.71289 36.1805 8.05638C36.2007 7.17877 36.1453 6.37259 36.1537 6.00692C36.1638 5.56811 36.3084 5.71779 35.8629 5.78071C35.4175 5.84362 34.8982 5.90482 34.4528 5.96773C34.1553 6.03405 33.7888 5.87927 33.4191 5.87075C32.7535 5.85542 32.0879 5.84009 31.4223 5.82476C30.7567 5.80943 30.0894 5.86722 29.4239 5.85189C28.7583 5.83656 28.0927 5.82122 27.4271 5.80589C26.8355 5.79226 26.1716 5.7038 25.5799 5.69017C24.9883 5.67654 24.321 5.73434 23.7277 5.79385C23.1344 5.85336 22.5394 5.98599 21.8721 6.04379C21.3527 6.105 20.8334 6.16622 20.3157 6.15429C19.798 6.14237 19.2854 5.91103 18.766 5.97224C18.0987 6.03004 17.4298 6.16098 16.6902 6.14395C16.0247 6.12861 15.2868 6.03844 14.6195 6.09624C13.9539 6.08091 13.2127 6.13702 12.5471 6.12168C11.8815 6.10635 11.1369 6.30872 10.4713 6.29339C9.95364 6.28146 9.36876 5.97529 8.85108 5.96336C8.3334 5.95144 7.80898 6.23206 7.2913 6.22013C6.77193 6.28134 6.25424 6.26941 5.73656 6.25748C4.92138 6.31188 4.1768 6.51425 3.36161 6.56864C3.13975 6.56353 2.13453 8.44288 1.98325 8.58574C1.83366 8.65547 1.68911 8.50579 1.54289 8.42925C1.46894 8.42755 1.32104 8.42414 1.32104 8.42414C0.796619 8.70475 1.52286 6.08725 1.07914 6.07703C1.00518 6.07533 0.783321 6.07021 0.785006 5.99708C0.791745 5.70454 1.02034 5.41712 1.02708 5.12458C1.02876 5.05144 1.02877 5.05145 1.10441 4.98002C1.40359 4.84056 1.33805 4.47319 1.26915 4.25208C1.20025 4.03097 1.27759 3.8864 1.20869 3.6653C1.13979 3.44419 1.14314 3.29792 1.36669 3.22989C1.81379 3.09385 2.11468 2.88126 2.34833 2.37443C2.42565 2.22987 2.57525 2.16014 2.72484 2.09042C3.02234 2.0241 3.02233 2.02409 2.87947 1.80128C2.73494 1.6516 2.73999 1.43221 2.88958 1.36248C3.34005 1.08017 3.86278 0.872683 4.37878 0.957743C4.67459 0.964557 4.96705 1.11764 5.26287 1.12445C6.07637 1.14319 6.96213 1.23677 7.77563 1.25551C8.36726 1.26914 8.96563 0.990231 9.48162 1.07529C9.99762 1.16035 10.6615 1.24882 11.1792 1.26074C11.475 1.26755 11.6918 1.49207 11.9877 1.49889C12.2818 1.57883 12.6482 1.73362 12.944 1.74044C13.6096 1.75577 14.2046 1.62313 14.8702 1.63846C15.5358 1.6538 16.1308 1.52115 16.7964 1.53648C17.462 1.55181 18.0502 1.71171 18.7175 1.65391C19.3848 1.59611 20.0537 1.46518 20.721 1.40738C21.3866 1.42271 22.0539 1.3649 22.7212 1.3071C23.3884 1.2493 24.0506 1.4109 24.7196 1.27997C25.3129 1.22046 25.8306 1.23238 26.4222 1.24601C27.0139 1.25964 27.6089 1.127 28.2005 1.14063C28.7921 1.15426 29.3838 1.16789 29.9754 1.18152C30.567 1.19515 31.1604 1.13564 31.752 1.14926C32.3436 1.16289 32.9353 1.17652 33.5269 1.19015C34.1185 1.20378 34.7017 1.58308 35.3673 1.59841C35.5892 1.60352 35.8212 1.16984 36.043 1.17495C36.2649 1.18006 36.4061 1.476 36.5523 1.55254C36.9943 1.6359 36.9237 1.48792 37.0801 1.12566C37.1574 0.981092 37.3036 1.05764 37.3776 1.05934C37.5255 1.06275 37.6768 0.91989 37.8213 1.06957C37.8953 1.07127 37.8936 1.1444 37.9658 1.21924C38.0381 1.29408 38.0314 1.58661 38.1036 1.66145C38.1793 1.59002 38.3289 1.5203 38.4045 1.44887C38.4818 1.3043 38.5659 0.867197 38.6399 0.8689C38.7861 0.945442 39.2248 1.17506 39.2214 1.32133C39.3575 1.83668 39.4953 2.2789 39.8583 2.57995C40.0751 2.80447 40.5172 2.88782 40.5827 3.25519C40.6466 3.6957 40.781 4.28419 41.297 4.36924C41.3709 4.37095 41.4449 4.37265 41.5155 4.52062C41.5878 4.59546 41.734 4.672 41.7323 4.74514C41.7239 5.11081 41.6331 5.84045 41.6112 6.7912C41.596 7.44941 41.3573 8.17564 41.3438 8.76071C41.3236 9.63832 41.3051 10.4428 41.2966 10.8085C41.2832 11.3936 41.3436 11.9803 41.3319 12.4923C41.3184 13.0773 41.3032 13.7356 41.2897 14.3206C41.2763 14.9057 41.1888 15.4891 41.1014 16.0724C41.0879 16.6575 41.2223 17.246 41.2089 17.8311C41.1954 18.4161 41.034 18.9978 41.0205 19.5829C41.007 20.168 41.2154 20.7581 41.2019 21.3432C41.1901 21.8552 41.1044 22.3654 41.0926 22.8773C41.0808 23.3893 41.069 23.9012 41.0572 24.4132C41.0455 24.9251 40.8857 25.4336 40.874 25.9456C40.8588 26.6038 40.8436 27.262 40.9024 27.9219C40.8957 28.2144 40.8889 28.507 40.8805 28.8727C40.862 29.6771 40.9914 30.485 40.9728 31.2895C40.9644 31.6552 40.8837 31.946 40.9492 32.3134C40.9459 32.4596 41.1644 32.611 41.161 32.7573C41.2265 33.1247 41.1895 34.7336 41.255 35.101C41.2516 35.2473 41.0987 35.4633 40.8751 35.5313C40.6516 35.5993 40.6465 35.8187 40.6415 36.0381C40.6347 36.3307 40.5507 36.7678 40.3237 36.982C40.2481 37.0535 39.8766 37.1181 39.8733 37.2644C39.7943 37.4821 39.7926 37.5552 39.569 37.6232C39.4194 37.6929 39.2698 37.7627 39.1203 37.8324C38.7454 38.0433 38.3672 38.4004 38.1353 38.8341C38.0596 38.9056 38.0579 38.9787 37.9823 39.0501C37.5369 39.113 37.0175 39.1743 36.5738 39.164C36.0544 39.2252 35.4611 39.2847 34.9417 39.346C34.7938 39.3425 34.5686 39.4837 34.5652 39.63C34.4089 39.9922 34.1114 40.0586 33.7399 40.1232C33.1466 40.1827 32.5533 40.2422 31.9617 40.2286C31.37 40.2149 30.7717 40.4938 30.18 40.4802C29.5884 40.4666 28.9968 40.453 28.4034 40.5125C27.8118 40.4988 27.2252 40.2658 26.6336 40.2522C25.968 40.2368 25.3007 40.2946 24.6351 40.2793C23.9696 40.264 23.3006 40.3949 22.635 40.3796C21.9694 40.3642 21.2988 40.5683 20.6332 40.553C19.9676 40.5377 19.3054 40.376 18.6398 40.3607C17.9742 40.3454 17.3103 40.2569 16.643 40.3147C15.9758 40.3725 15.3118 40.284 14.6463 40.2687C13.9807 40.2534 13.3151 40.2381 12.6495 40.2227C11.9839 40.2074 11.3166 40.2652 10.651 40.2499C9.76359 40.2294 8.87781 40.1358 7.99373 39.9691C7.62565 39.8875 7.26092 39.6596 6.89621 39.4316C6.53654 38.9843 6.16678 38.9758 5.94829 38.8244Z" fill="white"/>
</svg>
