<svg width="77" height="50" viewBox="0 0 77 50" fill="none" xmlns="http://www.w3.org/2000/svg">
<path d="M65.6146 16.6048C65.7308 16.303 65.5204 15.8627 65.2826 15.7399C65.0449 15.6171 64.9252 15.4346 64.6874 15.3118C64.4787 15.1136 64.388 14.8557 64.1793 14.6575C63.762 14.261 63.3446 13.8645 63.0162 13.4838C62.8075 13.2856 62.6279 13.0119 62.686 12.8611C62.6843 12.6189 62.6244 12.5277 62.3867 12.4049C62.0001 12.1751 61.6426 11.8699 61.3741 11.5804C61.1055 11.291 60.748 10.9857 60.4213 10.8471C59.886 10.5103 59.2925 10.3244 58.6682 9.97183C58.0439 9.61924 57.4794 9.35787 56.7098 9.3825C56.0291 9.42291 55.4954 9.32822 54.931 9.06686C53.951 8.65114 52.9436 8.55297 51.9123 9.2566C51.7943 9.31626 51.7054 9.30049 51.5874 9.36015C51.1735 9.44791 50.6707 9.51988 50.2568 9.60764C50.0499 9.65152 49.754 9.67962 49.547 9.7235C49.2221 9.82704 48.9262 9.85514 48.5705 9.79201C48.4524 9.85167 48.4524 9.85167 48.3344 9.91133C48.2164 9.97099 48.2164 9.97099 48.0984 10.0307C48.0403 10.1815 47.9822 10.3324 47.8642 10.3921C47.806 10.543 47.659 10.6781 47.423 10.7974C47.3939 10.8729 47.3358 11.0237 47.3067 11.0992C46.8963 11.6712 46.4859 12.2432 46.1644 12.8309C45.9592 13.1169 45.872 13.3433 45.5471 13.4468C45.4889 13.5977 45.5197 13.7644 45.4616 13.9152C45.4035 14.0661 45.3453 14.217 45.2872 14.3679C45.3488 14.7012 45.3215 15.0188 45.354 15.4276C45.3883 16.0785 45.4226 16.7294 45.4278 17.4557C45.4894 17.7891 45.433 18.1821 45.4946 18.5154C45.5545 18.6066 45.5255 18.6821 45.4074 18.7417C45.3784 18.8172 45.4383 18.9084 45.4092 18.9839C45.3801 19.0593 45.44 19.1505 45.4109 19.226C45.4708 19.3172 45.4418 19.3926 45.5016 19.4839C45.5615 19.5751 45.5324 19.6505 45.5033 19.726C45.5632 19.8172 45.5342 19.8926 45.5342 19.8926C45.6591 20.8014 46.227 21.547 46.942 22.1575C47.2396 22.3715 47.6553 22.5259 48.0418 22.7557C48.4883 23.0767 49.1108 23.1872 49.6735 23.2064C50.1473 23.2099 50.503 23.273 50.8896 23.5028C50.9495 23.5941 51.1273 23.6256 51.3343 23.5817C51.926 23.5256 52.5178 23.4694 53.1096 23.4132C53.4054 23.3851 53.7612 23.4482 54.1751 23.3604C54.6779 23.2885 55.2423 23.5498 55.7417 22.9936L55.8597 22.934C56.7456 22.6075 57.6024 22.3566 58.4883 22.0302C58.8133 21.9266 59.2272 21.8389 59.5521 21.7353C60.084 21.5879 60.4979 21.5002 60.8502 21.0791C61.1734 20.7334 61.5855 20.4035 61.9686 20.1491C62.6167 19.6999 63.3248 19.3419 63.9729 18.8927C63.9729 18.8927 64.002 18.8173 64.0909 18.8331C64.7083 18.2172 65.3838 17.4505 65.6146 16.6048ZM53.8625 12.8267C53.7445 12.8864 53.5085 13.0057 53.4196 12.9899C53.2708 12.8829 53.1219 12.7759 53.0022 12.5935C53.0022 12.5935 53.1783 12.3829 53.2074 12.3075C53.5324 12.2039 54.3345 12.5881 54.3671 12.9969C54.2781 12.9811 54.0404 12.8583 53.8625 12.8267ZM54.7117 19.748C54.2961 19.5936 54.739 19.4304 54.7082 19.2637L54.8262 19.2041C54.975 19.3111 55.0948 19.4935 55.1546 19.5848C55.0657 19.569 54.8006 19.7638 54.7117 19.748ZM58.8878 15.8141C58.532 15.751 58.4396 15.251 58.6739 14.8895C58.8535 15.1632 59.0331 15.4369 59.1238 15.6948C59.2726 15.8018 59.0657 15.8457 58.8878 15.8141Z" fill="white"/>
<path d="M73.4172 24.0095C73.0237 23.7735 72.9906 23.3536 72.8077 23.0725C72.6249 22.7914 72.442 22.5104 72.59 22.1229C72.677 21.6418 72.193 21.3896 71.9196 21.0923C71.9196 21.0923 71.8291 21.0761 71.7385 21.0599C71.5575 21.0274 71.4373 21.0887 71.2563 21.0563C71.0456 21.1014 70.9255 21.1627 70.7148 21.2077C70.5651 21.3465 70.3858 21.5627 70.1752 21.6078C69.9645 21.6529 69.8426 21.4655 69.6912 21.3556C69.6006 21.3394 69.5397 21.2457 69.5397 21.2457C68.9669 21.2259 68.3923 20.9575 67.9083 20.7052L67.7882 20.7665C67.7586 20.844 67.7586 20.844 67.6681 20.8278C67.2746 20.5918 67.2746 20.5918 67.0065 21.0405C66.8882 21.3504 66.6184 21.5504 66.2266 21.5631C65.8053 21.6532 65.5651 21.7758 65.5982 22.1956C65.5686 22.2731 65.5391 22.3506 65.4799 22.5056C65.116 22.1921 64.7556 22.3759 64.3657 22.6372C63.9757 22.8985 63.6763 23.1761 63.2864 23.4374C63.1367 23.5761 62.8964 23.6987 62.6858 23.7437C62.0242 23.9564 61.3017 24.0754 60.581 24.4431C60.4609 24.5043 60.4609 24.5044 60.3703 24.4881C59.949 24.5783 59.4076 24.7297 58.9863 24.8198C58.8958 24.8036 58.7757 24.8649 58.7461 24.9424C58.3265 25.2812 57.907 25.62 57.2141 25.6615C57.1235 25.6453 56.9738 25.784 56.7928 25.7516C56.462 25.858 56.2514 25.903 55.9206 26.0094C55.7099 26.0544 55.4087 26.0833 55.1685 26.2058C54.1466 26.6024 53.1525 26.6727 52.0975 26.6494C51.8259 26.6008 51.6448 26.5683 51.3436 26.5972C50.7708 26.5774 50.1389 26.7126 49.5957 26.6154C48.9619 26.5019 48.3578 26.311 47.8128 25.965C47.3288 25.7128 47.0241 25.2443 46.6898 24.8534C45.9602 23.9777 45.1401 23.0858 44.3809 22.2876C44.2295 22.1777 44.078 22.0678 44.017 21.9741C43.5922 21.5669 43.0472 21.221 42.6519 20.7363C42.1661 20.2354 41.8005 19.6733 41.3443 19.0949C41.2537 19.0787 41.2833 19.0012 41.1928 18.985C41.0117 18.9526 40.7993 18.749 40.7679 18.5778C40.7052 18.2354 40.552 17.8768 40.3987 17.5183C40.3674 17.3471 40.2159 17.2372 40.1845 17.066C40.094 17.0498 40.0035 17.0336 39.8224 17.0012C39.6413 16.9688 39.4585 16.6877 39.4271 16.5165L39.4567 16.439C39.3958 16.3453 39.2443 16.2354 39.1834 16.1417C39.0319 16.0318 38.7899 15.9057 38.7585 15.7345C38.7585 15.7345 38.7585 15.7345 38.6976 15.6408C38.607 15.6246 38.5461 15.5309 38.4556 15.5147C38.3041 15.4048 38.2118 15.1399 38.0899 14.9525C38.1195 14.8751 38.029 14.8588 38.029 14.8588C37.968 14.7652 37.8165 14.6552 37.7556 14.5615C37.5118 14.1868 37.3881 13.7507 37.1444 13.376L37.0225 13.1885L36.9319 13.1723L36.8414 13.1561L36.7509 13.1399C36.6603 13.1237 36.5698 13.1075 36.3887 13.0751C36.0893 13.3526 35.6384 13.5202 35.1858 13.4392C34.552 13.3257 33.9792 13.306 33.3177 13.5186C32.3254 13.8377 31.2721 14.063 30.1892 14.3658C29.8585 14.4722 29.5573 14.501 29.2265 14.6074C29.0159 14.6524 28.7147 14.6813 28.504 14.7264C28.2028 14.7552 27.9922 14.8003 27.6614 14.9066C27.3602 14.9355 26.9685 14.9481 26.6377 15.0545C26.3366 15.0833 26.0963 15.2059 25.8561 15.3284C25.7359 15.3897 25.5253 15.4348 25.4348 15.4186C25.0135 15.5087 24.6845 15.8637 24.2004 15.6115L24.1099 15.5953C23.7495 15.7791 23.5371 15.5755 23.2359 15.6044C22.9643 15.5557 22.6631 15.5846 22.4525 15.6297C21.9111 15.7811 21.3105 16.0875 20.769 16.2389C20.1371 16.3741 19.5051 16.5093 18.8732 16.6445C18.2412 16.7797 17.5797 16.9924 16.9146 16.7077C16.824 16.6915 16.7039 16.7528 16.5838 16.814C16.3435 16.9366 16.1033 17.0592 15.8631 17.1817C15.5323 17.2881 15.2311 17.3169 14.9317 17.5944C14.7524 17.8107 14.5122 17.9332 14.2423 18.1333C13.9429 18.4108 13.4607 18.4072 13.0098 18.5749C12.7695 18.6974 12.4684 18.7263 12.2263 18.6001C12.1358 18.5839 11.9252 18.629 11.805 18.6903C11.6849 18.7516 11.5648 18.8128 11.4447 18.8741C11.0843 19.0579 10.9346 19.1967 10.8772 19.6003C10.9103 20.0202 10.4908 20.359 9.88841 20.4167C9.67776 20.4618 9.55765 20.523 9.43753 20.5843C9.19729 20.7069 8.92745 20.9069 8.77598 20.797C8.41384 20.7322 8.17361 20.8547 7.90201 20.8061C7.60083 20.8349 7.35882 20.7088 7.08722 20.6602C6.90616 20.6278 6.84521 20.5341 6.66414 20.5017C6.30201 20.4368 6.1819 20.4981 6.15408 20.8243C6.15585 21.0729 6.06707 21.3054 6.06884 21.554C6.03926 21.6315 6.16116 21.8189 6.2517 21.8351C6.5233 21.8838 6.64519 22.0712 6.64696 22.3198C6.67832 22.491 6.52861 22.6298 6.46944 22.7847C6.43985 22.8622 6.07772 22.7974 6.01677 22.7037C5.7434 22.4064 5.49961 22.0316 5.22624 21.7343C5.10435 21.5469 4.83275 21.4983 4.74399 21.7308C4.59606 22.1182 4.35757 22.4894 4.60135 22.8642C4.72325 23.0516 4.75463 23.2228 4.78599 23.3939C4.81734 23.5651 4.93923 23.7525 5.1203 23.7849C5.30136 23.8173 5.3623 23.911 5.33271 23.9885C5.66526 24.1308 5.87768 24.3344 6.06052 24.6155C6.15105 24.6317 6.12147 24.7092 6.18242 24.8029C6.24336 24.8966 6.3043 24.9903 6.36525 25.084C6.42619 25.1777 6.45754 25.3489 6.51848 25.4426C6.79008 25.4912 7.00252 25.6948 7.00429 25.9435C7.12618 26.1308 7.18712 26.2245 7.24807 26.3182C7.36996 26.5056 7.49185 26.693 7.64333 26.8029C8.31019 27.3362 8.94747 27.947 9.52379 28.4641C10.0392 28.8875 10.525 29.3884 11.0108 29.8893C11.3137 30.1091 11.5871 30.4064 11.5297 30.8101C11.5001 30.8875 11.5314 31.0587 11.622 31.0749C11.9859 31.3884 12.3794 31.6245 12.6528 31.9217C13.109 32.5001 13.6853 33.0172 13.8107 33.7019C13.8421 33.8731 13.9935 33.983 14.145 34.0929C14.5699 34.5001 14.9338 34.8136 15.3586 35.2208C15.571 35.4244 15.7539 35.7055 15.9367 35.9866C16.1196 36.2677 16.3024 36.5488 16.3651 36.8911C16.4574 37.156 16.6681 37.1109 16.9693 37.0821C17.7823 36.9793 18.4107 36.3467 19.2847 36.3377L19.4048 36.2764C19.8853 36.0313 20.2456 35.8475 20.7261 35.6024C21.3267 35.296 21.9587 35.1608 22.5593 34.8544C22.9196 34.6706 23.3096 34.4093 23.6995 34.1479C23.8196 34.0867 23.8197 34.0867 23.9398 34.0254C24.3611 33.9352 24.812 33.7676 25.2333 33.6775C25.5344 33.6486 25.8356 33.6198 25.7729 33.2774C25.8025 33.1999 25.9226 33.1387 25.9522 33.0612C26.4623 32.7386 27.0019 32.3385 27.512 32.0159C28.1126 31.7095 28.6836 31.4806 29.2842 31.1743C29.615 31.0679 29.7665 31.1778 29.8588 31.4427C29.9197 31.5364 29.8901 31.6139 29.9511 31.7076C30.0138 32.0499 30.1061 32.3148 30.5588 32.3958C30.8304 32.4445 31.102 32.4931 31.2534 32.603C31.6469 32.839 31.9203 33.1363 32.2233 33.3561C32.4357 33.5597 32.6481 33.7633 32.9806 33.9056C33.4037 34.0642 33.5866 34.3453 33.6493 34.6876C33.6197 34.7651 33.6806 34.8588 33.7416 34.9525C34.0446 35.1723 34.438 35.4083 34.741 35.6281C35.3765 35.9903 35.9824 36.4299 36.228 37.0533C36.4422 37.5056 36.6859 37.8804 37.1404 38.2101C37.6557 38.6335 38.1415 39.1344 38.1764 39.8029C38.2078 39.9741 38.3297 40.1615 38.5717 40.2876C38.7232 40.3975 38.9652 40.5236 39.1463 40.556C39.5989 40.637 40.0516 40.7181 40.4137 40.7829C40.9865 40.8027 41.3155 40.4477 41.7054 40.1864C41.8552 40.0476 42.0658 40.0026 42.3374 40.0512C42.5185 40.0836 42.7901 40.1322 42.9102 40.071C44.2629 39.5681 45.4954 39.1265 46.7872 38.53C47.3878 38.2236 47.9901 38.1659 48.6221 38.0307C48.9233 38.0018 49.2541 37.8955 49.5848 37.7891C50.0357 37.6215 50.4257 37.3602 50.786 37.1764C51.3866 36.87 51.9281 36.7186 52.5026 36.987C52.8352 37.1293 53.3488 37.3041 53.7387 37.0428C54.1287 36.7814 54.6405 36.7075 54.9086 36.2588C54.9382 36.1813 55.0287 36.1975 55.0583 36.12C55.4186 35.9362 55.8713 36.0173 56.2003 35.6623L56.2908 35.6785C56.5015 35.6334 56.7417 35.5108 56.982 35.3883C57.2222 35.2657 57.3719 35.127 57.1891 34.8459L57.2187 34.7684C57.3979 34.5522 57.5773 34.3359 57.7566 34.1197C57.7861 34.0422 57.8767 34.0584 57.9968 33.9971C58.4477 33.8295 58.9595 33.7556 59.44 33.5105C59.8004 33.3266 60.1903 33.0653 60.4288 32.6941C60.4879 32.5391 60.7578 32.3391 60.9388 32.3715C61.301 32.4363 61.4803 32.2201 61.6596 32.0039C61.6891 31.9264 61.8093 31.8651 61.9294 31.8038C62.5909 31.5911 63.1619 31.3622 63.8531 31.0721C64.0933 30.9495 64.304 30.9044 64.5442 30.7819C64.7845 30.6593 64.9342 30.5206 65.2354 30.4917C65.7768 30.3403 66.1371 30.1565 66.4052 29.7078C66.5845 29.4915 66.8543 29.2915 67.2147 29.1077C67.3348 29.0464 67.6064 29.095 67.6969 29.1112C67.7875 29.1274 67.9076 29.0662 68.0277 29.0049C68.4176 28.7436 68.6857 28.2949 69.2271 28.1435C69.3473 28.0822 69.4064 27.9272 69.5265 27.8659C69.5561 27.7885 69.6153 27.6335 69.7354 27.5722C70.0053 27.3722 70.3656 27.1883 70.6355 26.9883C71.055 26.6495 71.5651 26.3269 71.8941 25.9719C72.3118 25.3844 72.6391 24.7808 72.9959 24.0996C73.5095 24.2743 73.5077 24.0257 73.4172 24.0095ZM11.6629 24.1285L11.7535 24.1447L11.6369 24.7033L11.4262 24.7484C11.3043 24.561 11.4836 24.3448 11.6629 24.1285ZM10.2422 23.543C10.3937 23.6529 10.5452 23.7628 10.5765 23.934C10.6375 24.0277 10.5487 24.2601 10.6097 24.3538C10.6097 24.3538 10.4895 24.4151 10.399 24.3989C10.0665 24.2566 9.97239 23.743 10.2422 23.543ZM10.6345 27.8352C10.2706 27.5217 9.99719 27.2244 9.63329 26.9109C9.57234 26.8172 9.39128 26.7847 9.33034 26.691C9.26939 26.5974 9.17884 26.5811 9.1179 26.4874C8.90547 26.2839 8.72264 26.0028 8.51022 25.7992C8.44927 25.7055 8.38834 25.6118 8.32739 25.5181L8.44749 25.4568C9.74631 25.8549 10.2356 26.8531 10.9948 27.6513C11.0853 27.6675 10.9356 27.8063 10.9966 27.9C10.7859 27.9451 10.6954 27.9289 10.6345 27.8352ZM12.0357 25.6853C12.0061 25.7628 11.825 25.7304 11.825 25.7304C11.7031 25.543 11.6718 25.3718 11.912 25.2493C12.0931 25.2817 12.215 25.4691 12.0357 25.6853ZM12.7772 23.9969L12.6866 23.9807C12.7458 23.8257 12.7144 23.6545 12.7736 23.4995C12.9547 23.532 13.0452 23.5482 13.1061 23.6419C12.9564 23.7806 12.8067 23.9194 12.7772 23.9969ZM12.8788 29.8099C12.8179 29.7162 12.7569 29.6225 12.7865 29.545C12.7865 29.545 12.9066 29.4837 13.0268 29.4224C13.0877 29.5161 13.1486 29.6098 13.0895 29.7648C13.0895 29.7648 12.9694 29.8261 12.8788 29.8099ZM14.6594 25.9067C14.4487 25.9518 14.2641 25.422 14.4138 25.2833C14.473 25.1283 14.7742 25.0995 14.8943 25.0382C15.0162 25.2256 15.0771 25.3193 15.199 25.5067C14.9588 25.6292 14.87 25.8617 14.6594 25.9067ZM14.1865 31.4513C13.9149 31.4027 13.7303 30.8729 13.9392 30.5792C14.1516 30.7828 14.2735 30.9702 14.4563 31.2513C14.4267 31.3288 14.277 31.4675 14.1865 31.4513ZM15.0971 32.3594C15.0675 32.4369 14.7959 32.3883 14.8255 32.3108C14.6741 32.2009 14.5522 32.0135 14.3693 31.7324C14.8812 31.6585 15.0326 31.7684 15.2155 32.0494C15.1859 32.1269 15.1267 32.2819 15.0971 32.3594ZM17.3101 34.1629C17.2805 34.2404 17.2805 34.2404 17.1604 34.3017C17.1308 34.3792 16.9811 34.5179 16.9811 34.5179C16.8001 34.4855 16.6486 34.3756 16.4971 34.2657C16.4971 34.2657 16.6468 34.1269 16.6764 34.0495C16.7356 33.8945 16.7652 33.817 16.8243 33.662C16.8226 33.4134 16.9723 33.2746 17.3344 33.3394C17.3954 33.4331 17.5468 33.543 17.5782 33.7142C17.4285 33.853 17.3693 34.0079 17.3101 34.1629ZM17.4113 35.6711C17.3208 35.6549 17.1693 35.545 17.0788 35.5288C17.0474 35.3576 17.1066 35.2026 17.1048 34.954C17.1048 34.954 17.1953 34.9702 17.3155 34.9089C17.4373 35.0963 17.4391 35.345 17.561 35.5324L17.4113 35.6711ZM18.8527 34.9358C18.7326 34.9971 18.4906 34.871 18.5202 34.7935C18.4279 34.5286 18.6681 34.4061 18.9084 34.2835C19.0912 34.5646 19.0634 34.8907 18.8527 34.9358ZM24.95 23.5273C24.9796 23.4498 24.9796 23.4498 25.0092 23.3723C25.1903 23.4047 25.3104 23.3434 25.4914 23.3759C25.4619 23.4533 25.4619 23.4533 25.4323 23.5308L24.95 23.5273ZM35.0348 17.6341C35.1253 17.6503 35.1253 17.6503 35.2159 17.6665C35.1567 17.8215 35.1271 17.899 35.1585 18.0701C35.0679 18.0539 34.9774 18.0377 34.9774 18.0377C34.946 17.8665 34.9756 17.7891 35.0348 17.6341ZM34.0969 21.3569C33.8253 21.3083 33.6442 21.2759 33.282 21.2111C33.5519 21.011 33.8217 20.811 34.304 20.8145C34.485 20.847 34.6661 20.8794 34.5773 21.1118C34.5182 21.2668 34.3685 21.4056 34.0969 21.3569ZM35.7697 19.2557C35.7087 19.1621 35.6478 19.0684 35.6774 18.9909C35.7975 18.9296 35.9176 18.8683 35.9176 18.8683C36.0082 18.8845 35.9785 18.962 36.0395 19.0557C36.0099 19.1332 35.8898 19.1945 35.7697 19.2557ZM37.1744 17.6033C37.0247 17.742 36.6922 17.5997 36.4798 17.3961C36.8105 17.2898 37.0194 16.996 37.3224 17.2158C37.3224 17.2158 37.2336 17.4483 37.1744 17.6033ZM37.2809 19.8575C37.401 19.7962 37.5212 19.7349 37.6413 19.6736C37.7022 19.7673 37.7632 19.861 37.7632 19.861C37.643 19.9223 37.5229 19.9836 37.2827 20.1061C37.2217 20.0124 37.1904 19.8412 37.2809 19.8575ZM33.4973 30.2729C33.4068 30.2567 33.3754 30.0855 33.3754 30.0855C33.405 30.008 33.6156 29.963 33.6452 29.8855C33.7062 29.9792 33.6766 30.0567 33.828 30.1666C33.7079 30.2279 33.5878 30.2891 33.4973 30.2729ZM35.3292 33.5811C35.2387 33.5649 35.2683 33.4874 35.1777 33.4712C35.0262 33.3613 34.9043 33.1739 34.7529 33.064C34.873 33.0027 35.0836 32.9577 35.2038 32.8964C35.5049 32.8675 35.5067 33.1162 35.5381 33.2874C35.5694 33.4585 35.4493 33.5198 35.3292 33.5811ZM42.9099 23.1004C43.3034 23.3364 43.8466 23.4337 43.8205 24.0085C43.8223 24.2572 44.0051 24.5383 44.127 24.7256C44.3395 24.9292 44.2803 25.0842 44.282 25.3329C44.2246 25.7365 44.3465 25.9239 44.6791 26.0662C44.7678 25.8338 44.7661 25.5851 44.8548 25.3526C45.6087 25.4048 46.2755 25.9381 46.2495 26.513C46.2808 26.6841 46.1312 26.8229 45.8891 26.6968C45.6175 26.6482 45.3755 26.5221 45.1945 26.4896C44.9229 26.441 44.6513 26.3924 44.5329 26.7023C44.4442 26.9348 44.0228 27.0249 43.6607 26.9601C43.2986 26.8952 42.9365 26.8304 42.6039 26.6881C42.4229 26.6557 42.1808 26.5296 42.2104 26.4521C42.1791 26.2809 42.2678 26.0484 42.4175 25.9097C42.9572 25.5096 43.0738 24.951 43.4324 24.5185C43.462 24.441 43.401 24.3473 43.3401 24.2536C43.1276 24.05 42.9152 23.8464 42.943 23.5203C43.0022 23.3653 42.9413 23.2716 42.9099 23.1004ZM43.2837 33.2668C43.073 33.3119 42.7423 33.4183 42.5908 33.3084C42.2582 33.166 41.9257 33.0237 41.4748 33.1913C41.3547 33.2526 41.1127 33.1265 41.0517 33.0328C41.1718 32.9715 41.231 32.8166 41.3511 32.7553C41.5914 32.6327 41.7724 32.6651 42.0127 32.5426C42.3452 32.6849 42.7665 32.5948 42.9754 32.301C43.0346 32.1461 43.1843 32.0073 43.1234 31.9136C43.153 31.8361 42.8518 31.865 42.7003 31.7551C42.4287 31.7065 42.2476 31.674 42.0352 31.4704C41.9742 31.3767 42.0334 31.2218 42.0021 31.0506C42.0021 31.0506 42.2127 31.0055 42.3032 31.0217C42.6654 31.0866 43.0275 31.1514 43.1808 31.51C43.2417 31.6037 43.4228 31.6361 43.6038 31.6685C44.1174 31.8433 44.0583 31.9982 43.7293 32.3532C43.6423 32.8344 43.221 32.9245 43.2837 33.2668ZM44.1329 29.7764C44.253 29.7152 44.4027 29.5764 44.6133 29.5313C44.6743 29.625 44.7352 29.7187 44.7352 29.7187C44.5855 29.8575 44.4654 29.9188 44.3157 30.0575C44.2548 29.9638 44.1642 29.9476 44.1329 29.7764ZM40.7738 23.6286C40.8643 23.6448 40.9253 23.7385 41.0767 23.8484C40.8661 23.8934 40.6554 23.9385 40.5353 23.9998C40.5353 23.9998 40.4744 23.9061 40.4134 23.8124C40.5335 23.7511 40.6537 23.6898 40.7738 23.6286ZM40.001 25.1459C40.2394 24.7746 40.4483 24.4809 40.6276 24.2647C40.6572 24.1872 40.7477 24.2034 40.7477 24.2034C41.0803 24.3457 41.5034 24.5042 41.8063 24.7241C41.9578 24.834 41.5992 25.2665 41.298 25.2953C40.9968 25.3242 40.5755 25.4143 40.3039 25.3657C40.1229 25.3332 40.0915 25.1621 40.001 25.1459ZM39.0393 33.997C38.8286 34.0421 38.557 33.9934 38.1653 34.0061C38.0138 33.8962 37.8623 33.7863 37.7109 33.6764C37.6499 33.5827 37.5594 33.5665 37.4984 33.4728C37.4375 33.3791 37.3156 33.1917 37.3156 33.1917C37.4653 33.0529 37.7351 32.8529 37.8257 32.8691C38.4298 33.0601 39.034 33.251 39.6085 33.5194C39.6991 33.5357 39.7304 33.7068 39.6103 33.7681C39.3996 33.8132 39.2499 33.9519 39.0393 33.997ZM38.9073 36.6224C38.7558 36.5125 38.6949 36.4188 38.5434 36.3089C38.6635 36.2476 38.7836 36.1864 38.9943 36.1413C39.0256 36.3125 39.0866 36.4062 39.1475 36.4999C39.0274 36.5611 38.9073 36.6224 38.9073 36.6224ZM39.9239 35.4799C39.9534 35.4024 40.044 35.4186 40.1641 35.3574C40.225 35.4511 40.2251 35.4511 40.286 35.5447C40.2564 35.6222 40.2878 35.7934 40.2582 35.8709C39.957 35.8998 39.7741 35.6187 39.9239 35.4799ZM43.0227 34.7102C42.9931 34.7877 42.7825 34.8328 42.6919 34.8166C42.1487 34.7193 42.0286 34.7806 41.6996 35.1356C41.67 35.2131 41.5499 35.2743 41.4594 35.2581C41.2487 35.3032 40.5836 35.0186 40.4618 34.8312C40.9736 34.7572 41.3949 34.6671 41.9363 34.5157C42.0564 34.4544 42.1156 34.2995 42.2357 34.2382C42.3855 34.0994 42.6257 33.9769 42.7458 33.9156C43.0766 33.8092 43.0783 34.0579 43.1097 34.2291C43.1411 34.4003 43.0523 34.6327 43.0227 34.7102ZM41.8149 38.6331C41.754 38.5394 41.6931 38.4457 41.6617 38.2745C41.8114 38.1358 41.9315 38.0745 42.0516 38.0132C42.1126 38.1069 42.2641 38.2168 42.2049 38.3718C42.1457 38.5268 41.9351 38.5718 41.8149 38.6331ZM44.6505 34.7533C44.7115 34.847 44.7724 34.9407 44.8334 35.0344C44.7133 35.0957 44.5931 35.1569 44.5322 35.0633C44.4712 34.9696 44.4103 34.8759 44.3198 34.8597C44.4399 34.7984 44.56 34.7371 44.6505 34.7533ZM44.0398 37.8725C43.9197 37.9338 43.709 37.9788 43.4984 38.0239C43.4079 38.0077 43.1972 38.0528 43.1363 37.9591C43.0753 37.8654 43.044 37.6942 43.0735 37.6167C43.1031 37.5392 43.2842 37.5716 43.4948 37.5266C43.6759 37.559 43.8866 37.5139 44.0676 37.5463C44.1582 37.5626 44.2191 37.6563 44.1895 37.7337C44.2801 37.7499 44.1599 37.8112 44.0398 37.8725ZM46.3494 32.0773C46.4695 32.016 46.5287 31.8611 46.6488 31.7998C46.7689 31.7385 46.8891 31.6772 46.9796 31.6934C47.4305 31.5258 47.4305 31.5258 47.2773 31.1672L47.3068 31.0898C47.4879 31.1222 47.7595 31.1708 47.911 31.2807C48.0624 31.3906 48.2435 31.423 48.4542 31.378C48.5743 31.3167 48.6648 31.3329 48.7553 31.3491C48.7258 31.4266 48.6666 31.5816 48.637 31.659C48.6074 31.7365 48.4873 31.7978 48.3968 31.7816C48.0051 31.7942 47.7056 32.0718 47.3749 32.1781C47.2547 32.2394 47.0145 32.3619 46.8334 32.3295C46.682 32.2196 46.5305 32.1097 46.3494 32.0773ZM46.7257 34.1315C46.6352 34.1153 46.5742 34.0216 46.5133 33.9279C46.5429 33.8504 46.663 33.7891 46.7831 33.7278C46.8441 33.8215 46.9955 33.9314 46.9659 34.0089C47.0565 34.0251 46.8162 34.1477 46.7257 34.1315ZM46.6546 36.8506C46.383 36.8019 46.2316 36.692 46.0505 36.6596C46.0487 36.411 46.2594 36.3659 46.531 36.4145C46.8026 36.4631 46.8339 36.6343 46.6546 36.8506ZM49.8329 30.3003C49.7128 30.3616 49.5021 30.4066 49.4412 30.3129C49.2583 30.0319 49.5891 29.9255 49.7388 29.7868C49.9808 29.9129 50.1027 30.1003 49.8329 30.3003ZM50.9216 35.0483L50.8606 34.9546C50.9807 34.8933 51.1009 34.832 51.3115 34.7869C51.2819 34.8644 51.3725 34.8807 51.3429 34.9581C51.2523 34.9419 51.0417 34.987 50.9216 35.0483ZM62.178 28.6198C62.0874 28.6036 61.9359 28.4937 61.9359 28.4937C62.0543 28.1837 62.0821 27.8576 62.3519 27.6575C62.4425 27.6738 62.4425 27.6738 62.5034 27.7675C62.8969 28.0035 62.8099 28.4846 62.178 28.6198ZM63.4437 28.5981C63.4437 28.5981 63.3236 28.6593 63.233 28.6431C63.1721 28.5494 63.2016 28.472 63.1407 28.3783C63.1093 28.2071 62.9875 28.0197 63.3182 27.9133C63.4088 27.9295 63.5602 28.0395 63.6212 28.1331C63.7135 28.398 63.6543 28.553 63.4437 28.5981ZM64.4691 28.6989C64.2585 28.7439 64.1679 28.7277 63.8667 28.7566C63.9259 28.6016 63.9851 28.4466 64.1052 28.3854C64.2253 28.3241 64.4969 28.3727 64.617 28.3114C64.617 28.3114 64.678 28.4051 64.6484 28.4826C64.6188 28.5601 64.4987 28.6214 64.4691 28.6989ZM64.9567 29.4484L64.8661 29.4322L65.1028 28.8123L65.1934 28.8285C65.3153 29.0159 65.136 29.2322 64.9567 29.4484ZM71.2254 25.1899L71.1349 25.1737C71.1645 25.0962 71.1331 24.9251 71.1627 24.8476C71.1923 24.7701 71.2515 24.6151 71.3716 24.5538C71.4621 24.57 71.5527 24.5863 71.5231 24.6637C71.5544 24.8349 71.6154 24.9286 71.5562 25.0836C71.4657 25.0674 71.255 25.1124 71.2254 25.1899Z" fill="white"/>
</svg>
