<svg width="52" height="60" viewBox="0 0 52 60" fill="none" xmlns="http://www.w3.org/2000/svg">
<path d="M51.6032 50.5235V50.4259C51.4111 50.2305 51.5071 50.0351 51.5071 49.8397C51.5071 49.6443 51.5071 49.4489 51.5071 49.3512C51.5071 49.2535 51.5071 49.1558 51.5071 49.0581C51.5071 48.6673 51.5071 48.2766 51.5071 47.9835C51.5071 47.7881 51.5071 47.6904 51.5071 47.495C51.5071 47.2996 51.315 46.9088 51.1229 46.9088C50.6427 46.9088 50.4506 46.5181 50.1625 46.3227C50.1625 46.3227 50.0664 46.225 49.9704 46.225C49.6822 46.1273 49.4901 45.9319 49.202 45.8342C49.202 45.8342 49.202 45.7365 49.202 45.6388C49.202 45.5411 49.202 45.3457 49.106 45.248C49.106 45.0526 49.0099 44.9549 49.0099 44.7595C49.0099 44.4665 49.0099 44.0757 49.0099 43.7826C49.0099 43.6849 49.0099 43.5872 49.0099 43.5872C49.1059 43.4895 49.0099 43.3918 49.0099 43.1964C49.0099 43.001 48.7218 42.8056 49.0099 42.7079C49.0099 42.7079 49.0099 42.7079 49.0099 42.6102C49.0099 42.3172 48.9139 42.0241 48.9139 41.731C48.9139 41.5356 48.8178 41.4379 48.9139 41.2425C49.0099 41.1448 49.106 40.9494 48.9139 40.754C48.9139 40.754 48.9139 40.6563 48.9139 40.5586V40.4609C48.9139 40.1679 48.8178 39.7771 48.8178 39.484C48.8178 39.3863 48.7217 39.1909 48.8178 39.0932V38.9955C48.6257 38.8978 48.7217 38.8001 48.8178 38.7024L48.9139 38.6047L48.8178 38.507C48.8178 38.507 48.7218 38.507 48.6257 38.507C48.7218 38.3117 48.8178 38.214 48.9139 38.0186C48.8178 38.0186 48.7218 38.0186 48.7218 38.0186V37.9209C48.8178 37.9209 48.8178 37.7255 49.0099 37.7255C49.0099 37.7255 49.106 37.7255 49.202 37.7255C48.8178 37.4324 48.8178 37.4324 48.9139 37.0416C48.9139 36.9439 48.9139 36.9439 48.9139 36.8462C48.9139 36.7485 48.9139 36.6508 48.9139 36.5531C49.0099 36.4554 48.9138 36.3577 48.8178 36.2601C48.7217 36.1624 48.6257 36.0647 48.7218 35.967C48.7218 35.8693 48.8178 35.7716 48.8178 35.7716C48.8178 35.6739 48.8178 35.5762 48.8178 35.5762C48.7217 35.4785 48.7217 35.3808 48.8178 35.2831C48.8178 35.2831 48.8178 35.1854 48.8178 35.0877C48.7217 35.0877 48.7218 34.99 48.7218 34.99C48.7218 34.8923 48.8178 34.7946 48.8178 34.6969C48.7217 34.4038 48.8178 34.2084 48.9139 33.9154V33.8177C48.8178 33.5246 48.7218 33.2315 48.6257 32.9384C48.6257 32.8407 48.6257 32.743 48.6257 32.6453C48.5297 32.4499 48.4336 32.2545 48.3376 32.1569C48.3376 32.1569 48.3376 32.1568 48.3376 32.2545C48.3376 32.4499 48.3376 32.5476 48.0494 32.3522C47.9534 32.3522 47.9534 32.3522 47.8573 32.3522C47.6652 32.2545 47.4731 32.2545 47.3771 32.1569C47.185 31.8638 46.9929 31.8638 46.8008 31.8638C46.7048 31.8638 46.6087 31.7661 46.6087 31.7661C46.5127 31.473 46.4166 31.0822 46.4166 30.7891C46.4166 30.5937 46.4166 30.3983 46.4166 30.3006C46.3206 30.3006 46.2246 30.3006 46.2246 30.3006C46.1285 30.3006 46.1285 30.2029 46.1285 30.2029L46.2246 30.1052C46.3206 30.0076 46.3206 30.0076 46.4166 29.9099C46.3206 29.8122 46.3206 29.8122 46.2246 29.8122C46.3206 29.7145 46.3206 29.7145 46.3206 29.6168C46.1285 29.5191 46.0324 29.3237 45.9364 29.226C46.0324 29.0306 46.1285 28.8352 46.2246 28.5421C45.9364 28.3467 46.2246 28.1513 46.2246 27.956C46.1285 27.8583 46.1285 27.7606 46.1285 27.7606C46.2245 27.4675 46.0324 27.3698 45.9364 27.0767C45.9364 26.979 45.8404 26.979 45.7443 26.979C45.4562 26.8813 45.072 26.8813 44.7839 26.7836C44.4957 26.6859 44.3036 26.7836 44.1115 26.979C44.2076 27.0767 44.2076 27.1744 44.0155 27.3698C44.1115 27.3698 44.2076 27.3698 44.3036 27.3698C44.3997 27.3698 44.3997 27.4675 44.4957 27.4675C44.4957 27.4675 44.4957 27.5652 44.4957 27.6629C44.3997 27.7606 44.3036 27.8583 44.2076 27.956C44.2076 27.956 44.2076 28.0536 44.3036 28.0536C44.3036 28.249 44.3036 28.4444 44.2076 28.6398C44.3997 28.7375 44.3036 28.8352 44.2076 28.8352C44.2076 28.9329 44.2076 29.1283 44.1115 29.226C44.1115 29.3237 44.1115 29.4214 44.1115 29.6168C44.1115 29.7145 44.1115 29.9099 44.2076 30.0075C44.3036 30.1052 44.3036 30.2029 44.4957 30.3983C44.2076 30.3983 44.1115 30.496 44.2076 30.7891C44.2076 30.8868 44.3036 30.9845 44.3036 31.0822C44.3036 31.1799 44.3036 31.2776 44.3036 31.2776C44.3997 31.473 44.3036 31.473 44.2076 31.5707C44.2076 31.6684 44.2076 31.7661 44.1115 31.8638C44.0155 31.7661 44.0155 31.6684 44.0155 31.5707C43.9194 31.6684 43.7274 31.8638 43.6313 31.9615C43.5353 32.0591 43.5353 32.1569 43.3432 32.1569C43.3432 32.1569 43.2471 32.1568 43.2471 32.2545C43.1511 32.3522 43.151 32.4499 43.055 32.6453C43.055 32.6453 42.959 32.6453 42.863 32.743C42.7669 32.8407 42.7669 32.9384 42.6708 33.1338C42.6708 33.2315 42.7669 33.3292 42.7669 33.4269C42.6708 33.5246 42.7669 33.6223 42.7669 33.72V33.8177C42.5748 33.9154 42.6708 34.1108 42.7669 34.2084C42.7669 34.3061 42.7669 34.3061 42.7669 34.4038C42.7669 34.6969 42.7669 34.8923 42.7669 35.1854C42.7669 35.1854 42.7669 35.2831 42.863 35.2831C42.959 35.3808 42.863 35.5762 42.863 35.6739L42.7669 35.7716C42.7669 35.967 42.7669 36.1624 42.7669 36.4554C42.7669 36.6508 42.8629 36.9439 42.7669 37.1393C42.6708 37.5301 42.7669 37.9209 42.863 38.214C42.863 38.4093 42.7669 38.7024 42.5748 38.6047C42.4787 38.6047 42.3827 38.507 42.2866 38.4093C42.1906 38.4093 42.1906 38.3116 42.0945 38.3116C41.9985 38.3116 41.8064 38.4093 41.7104 38.4093C41.6143 38.507 41.5183 38.4093 41.5183 38.3116C41.5183 38.0186 41.5183 37.7255 41.5183 37.4324C41.5183 37.3347 41.5183 37.3347 41.5183 37.237C41.5183 37.1393 41.4223 37.1393 41.4223 37.0416C41.3262 36.9439 41.3262 36.9439 41.4223 36.8462L41.5183 36.6508C41.4222 36.5531 41.5183 36.4554 41.5183 36.3577C41.5183 36.1623 41.5183 35.967 41.5183 35.7716C41.5183 35.5762 41.5183 35.3808 41.5183 35.1854C41.5183 35.1854 41.5183 35.1854 41.5183 35.0877C41.3262 34.99 41.4222 34.8923 41.5183 34.7946C41.5183 34.6969 41.6143 34.5992 41.5183 34.5015C41.4222 34.4038 41.4222 34.3061 41.5183 34.2084V34.1108C41.5183 34.0131 41.5183 34.0131 41.5183 33.9154C41.5183 33.8177 41.5183 33.72 41.5183 33.6223C41.4222 33.3292 41.3262 33.0361 41.4223 32.743C41.4223 32.6453 41.5183 32.4499 41.4223 32.3522C41.4223 32.2545 41.4223 32.1569 41.4223 32.1569C41.4223 32.0592 41.5183 31.9615 41.5183 31.8638C41.5183 31.7661 41.5183 31.6684 41.6143 31.5707C41.6143 31.5707 41.6143 31.5707 41.5183 31.5707C41.8064 31.1799 41.3262 31.3753 41.2301 31.1799C41.8064 31.2776 41.9985 30.8868 42.1906 30.496C42.2867 30.6914 42.3827 30.5937 42.4787 30.496C42.5748 30.3983 42.5748 30.3983 42.6708 30.3006C42.959 30.1052 42.959 30.0076 42.863 29.6168C42.863 29.5191 42.959 29.4214 42.959 29.4214C42.959 29.3237 42.959 29.1283 42.959 29.0306C43.1511 28.6398 42.8629 28.249 42.959 27.956C42.959 27.8583 42.863 27.6629 42.863 27.5652C42.863 27.5652 42.8629 27.5652 42.959 27.5652C42.8629 27.5652 42.8629 27.4675 42.7669 27.4675C42.959 27.4675 42.959 27.4675 42.863 27.2721C42.863 27.2721 42.863 27.2721 42.863 27.1744C42.959 27.0767 42.8629 26.979 42.7669 26.8813C42.5748 26.6859 42.2866 26.5882 41.9985 26.5882C41.6143 26.5882 41.2302 26.6859 40.942 26.6859C40.6539 26.6859 40.5578 26.5882 40.4618 26.2951C40.3657 26.0021 40.4618 25.709 40.2697 25.4159V25.3182C40.2697 25.1228 40.2697 24.9274 40.2697 24.732C40.2697 24.4389 40.1736 24.1458 40.0776 23.8528H40.1736C40.1736 23.7551 40.2697 23.6574 40.2697 23.6574C40.2697 23.5597 40.1736 23.462 40.0776 23.3643C40.1736 23.2666 40.3657 23.1689 40.1736 23.0712V22.9735C40.1736 22.7781 40.1736 22.6804 40.1736 22.485C40.0776 22.5827 40.0776 22.5827 39.9816 22.5827C39.9816 22.2896 39.9815 22.2896 40.1736 22.2896C40.2696 22.2896 40.3657 22.2896 40.3657 22.1919C40.3657 22.0942 40.3657 22.0942 40.3657 21.9965C40.3657 21.9965 40.3657 21.9965 40.2697 21.8989C40.2697 21.8989 40.3657 21.8988 40.3657 21.8012C40.4618 21.7035 40.4618 21.6058 40.5578 21.5081C40.4618 21.5081 40.3657 21.4104 40.2697 21.4104C40.1736 21.4104 40.0776 21.5081 39.9816 21.4104C39.8855 21.4104 39.7894 21.3127 39.5973 21.3127C39.3092 21.215 39.1171 21.0196 39.1171 20.7265C39.1171 20.5311 39.3092 20.3357 39.1171 20.0426C39.1171 19.9449 39.1171 19.9449 39.1171 19.7495C39.1171 19.7495 39.2131 19.6519 39.2131 19.5542C39.1171 19.1634 39.3092 18.8703 39.1171 18.4795C39.0211 18.2841 39.0211 17.991 38.925 17.698C38.925 17.6003 38.925 17.5026 38.925 17.4049C39.1171 17.3072 39.0211 17.1118 39.0211 17.0141C39.0211 16.9164 38.925 16.8187 38.829 16.721C38.7329 16.721 38.6369 16.721 38.6369 16.6233L38.0606 16.721H37.9645C37.8685 16.721 37.7725 16.6233 37.5804 16.721C37.3883 16.721 37.2922 17.0141 37.2922 17.1118C37.3883 17.3072 37.3883 17.5026 37.4843 17.6003C37.3883 17.6003 37.3883 17.6003 37.2922 17.698C37.2922 17.7956 37.3883 17.7956 37.3883 17.8933C37.3883 18.1864 37.2922 18.5772 37.2922 18.8703C37.3883 19.3588 37.1962 19.7496 37.1962 20.1403C37.1962 20.4334 37.1962 20.6288 36.9081 20.6288C36.812 20.6288 36.812 20.7265 36.812 20.7265C36.7159 20.9219 36.5239 21.0196 36.4278 21.215C36.2357 21.4104 36.1397 21.6058 35.9476 21.8989C35.9476 21.9965 35.8515 22.0942 35.9476 22.0942C36.0436 22.1919 36.1397 22.2896 36.2357 22.3873C36.2357 22.3873 36.2357 22.3873 36.1397 22.3873C36.1397 22.5827 36.1397 22.6804 36.1397 22.8758C36.1397 22.9735 36.1397 23.1689 36.1397 23.2666C36.1397 23.3643 36.1397 23.462 36.1397 23.5597C36.1397 23.7551 36.1397 23.8528 36.1397 24.0481C36.1397 24.1458 36.1397 24.1458 36.1397 24.2435V24.3412C36.1397 24.4389 36.1397 24.5366 36.1397 24.6343C36.1397 24.732 36.1397 24.8297 36.1397 24.9274C36.1397 25.0251 36.1397 25.2205 36.1397 25.3182C36.1397 25.4159 36.0436 25.6113 36.0436 25.709C36.0436 25.9044 35.9476 26.0021 35.7555 26.0021C35.6594 26.0021 35.5634 25.9044 35.5634 25.8067C35.5634 25.709 35.4674 25.6113 35.4674 25.6113C35.4674 25.4159 35.3713 25.3182 35.3713 25.1228C35.3713 25.0251 35.2752 24.8297 35.3713 24.732C35.5634 24.5366 35.1792 24.5366 35.1792 24.3412C35.1792 24.1458 35.1792 23.9504 35.1792 23.7551C35.1792 23.6574 35.0831 23.5597 35.0831 23.3643L35.1792 23.2666C35.1792 23.1689 35.1792 23.0712 35.1792 23.0712C35.1792 22.8758 35.1792 22.7781 35.2753 22.5827C35.2753 22.485 35.2753 22.485 35.2753 22.3873C35.2753 22.2896 35.2753 22.1919 35.2753 22.0942C35.2753 21.8988 35.3713 21.8012 35.2753 21.6058C35.2753 21.4104 35.1792 21.3127 35.2753 21.1173C35.2753 21.0196 35.2753 21.0196 35.2753 20.9219C35.2753 20.8242 35.1792 20.6288 35.1792 20.5311C35.1792 20.3357 35.1792 20.0426 35.1792 19.8472C35.1792 19.5542 35.0831 19.3588 35.3713 19.1634C35.3713 19.1634 35.3713 19.1634 35.3713 19.0657H34.9871C35.0832 18.8703 35.0832 18.5772 35.1792 18.4795C35.3713 18.1864 35.1792 17.991 35.0831 17.698C35.0831 17.6003 34.9871 17.6003 34.9871 17.5026C34.9871 17.5026 34.9871 17.5026 35.0831 17.5026C35.1792 17.4049 35.2753 17.3072 35.2753 17.2095C35.3713 16.8187 34.8911 16.6233 34.795 16.3302H34.699C34.4109 16.2325 34.1227 16.0371 34.1227 15.6463C34.0266 15.6463 33.9306 15.6463 33.9306 15.6463C33.9306 15.6463 33.9306 15.6464 33.9306 15.5487C34.0266 15.5487 34.1227 15.5487 34.2188 15.451C34.2188 15.1579 34.3148 14.9625 34.3148 14.6694C34.3148 14.5717 34.4108 14.474 34.3148 14.3763C34.2187 14.1809 34.3148 13.9855 34.4108 13.7901C34.3148 13.7901 34.3148 13.7901 34.2188 13.7901C34.1227 13.5948 34.2187 13.497 34.4108 13.3994C34.3148 13.204 34.2187 13.0086 34.4108 12.7155C34.5069 12.6178 34.5069 12.4224 34.4108 12.3247C34.3148 12.227 34.2188 12.0316 34.0267 12.0316C33.9306 12.0316 33.8346 11.8362 33.7385 11.8362C33.4504 11.8362 33.0662 11.8362 32.7781 11.8362C32.7781 11.9339 32.778 12.0316 32.682 12.0316C32.682 11.9339 32.682 11.9339 32.586 11.8362C32.4899 11.9339 32.3939 12.0316 32.3939 12.0316C32.3939 12.3247 32.3939 12.6178 32.2978 12.9109C32.2978 13.0086 32.2978 13.1063 32.2978 13.204C32.2978 13.4971 32.2978 13.8878 32.2018 14.1809C32.2018 14.1809 32.2018 14.2786 32.2978 14.3763C32.3939 14.474 32.3939 14.6694 32.2978 14.7671L32.2018 14.8648C32.1057 15.1579 31.9136 15.3533 31.7215 15.5487C31.6255 15.6464 31.5294 15.6463 31.4334 15.6463C31.2413 15.5487 31.1452 15.6463 31.0492 15.6463C31.0492 15.6463 30.9532 15.6464 30.9532 15.744C30.9532 15.6464 30.9532 15.6464 30.9532 15.5487C31.1453 15.451 31.1453 15.2556 31.1453 15.0602C31.1453 14.8648 31.2413 14.7671 31.1453 14.5717C31.1453 14.474 31.1453 14.474 31.1453 14.3763C31.2413 14.0832 31.2413 13.8878 31.3374 13.5948C31.3374 13.3994 31.3374 13.204 31.3374 13.1063C31.3374 12.8132 31.3374 12.6178 31.3374 12.3247C31.3374 12.227 31.3373 12.1293 31.2413 12.0316C31.2413 12.0316 31.1453 11.9339 31.1453 11.8362C31.1453 11.7385 31.1453 11.6408 31.1453 11.5431C31.1453 11.4455 31.1453 11.4455 31.1453 11.3478C31.1453 11.1524 31.2413 11.0547 31.2413 10.8593C31.2413 10.4685 31.0492 10.0777 31.1453 9.68695C30.9532 9.49156 30.8571 9.29615 30.665 9.00307C30.9532 8.80768 30.665 8.61229 30.665 8.4169L30.569 8.51459C30.569 8.4169 30.569 8.4169 30.569 8.3192C30.665 8.12381 30.569 8.02611 30.3769 8.02611C30.3769 7.92842 30.569 7.83073 30.4729 7.83073C30.3769 7.63534 30.1848 7.43996 30.0887 7.24457C30.0887 7.24457 30.0887 7.24456 30.0887 7.14686L29.3204 6.65839C29.3204 6.65839 29.2243 6.65838 29.2243 6.56069C29.0322 6.2676 28.648 6.16991 28.3599 6.07221C28.2638 6.07221 28.1678 6.07222 28.0718 5.97452C27.8797 5.97452 27.7836 5.87683 27.6876 5.77914C27.4955 5.68144 27.3994 5.48604 27.1113 5.58373C27.1113 5.19295 27.1113 4.80217 27.1113 4.41139C27.1113 4.02061 27.0153 3.62983 27.0153 3.23905C26.9192 3.23905 26.8231 3.23905 26.7271 3.23905C26.8231 3.14136 26.8232 3.04367 26.9192 3.04367C26.9192 2.94597 26.9192 2.75057 26.9192 2.65288C26.8232 2.35979 26.7271 2.06671 26.7271 1.77363C26.7271 1.48054 26.535 1.18745 26.6311 0.796673C26.6311 0.698977 26.6311 0.601279 26.6311 0.503584C26.2469 0.405889 26.1508 0.405895 26.3429 0.112809C25.6706 0.0151135 24.9023 -0.0825818 24.1339 0.112809C24.2299 0.210504 24.2299 0.210495 24.2299 0.210495C24.422 0.405886 24.326 0.503581 24.1339 0.698971C24.0378 0.796667 23.9418 0.894365 23.9418 0.99206C23.8457 1.48054 23.7497 1.87133 23.6537 2.3598C23.6537 2.55519 23.6536 2.65289 23.5576 2.84828C23.5576 2.94597 23.5576 3.04366 23.4615 3.14135L23.3655 3.23905C23.3655 3.33675 23.3655 3.53213 23.2694 3.62983C23.2694 3.82522 23.1734 4.02062 23.1734 4.21601C23.0774 4.4114 22.9813 4.60679 22.9813 4.80218C22.9813 4.99757 22.7892 5.29065 22.5971 5.38835C22.405 5.48604 22.309 5.58374 22.1169 5.68143C22.0208 5.68143 21.9248 5.77914 21.8287 5.77914C21.6366 5.87683 21.4445 5.87683 21.1564 5.97452L20.6762 6.26761C20.4841 6.463 20.388 6.5607 20.1959 6.75609C20.0999 6.85378 19.9078 6.95147 19.9078 7.14686C19.9078 7.14686 19.9078 7.24457 19.8118 7.24457C19.6197 7.43996 19.5237 7.53765 19.3316 7.73304C19.2355 7.83074 19.2355 7.83073 19.2355 7.92843C19.1394 8.02612 19.1394 8.12382 19.0434 8.12382C18.9473 8.22151 18.7552 8.31921 18.7552 8.4169C18.7552 8.61229 18.8513 8.70998 18.8513 8.80768C18.8513 9.00307 18.7553 9.19847 18.9473 9.39386C18.9473 9.39386 18.9474 9.49154 18.8513 9.49154C18.6592 9.58924 18.6592 9.78464 18.6592 9.88233C18.6592 10.1754 18.6592 10.3708 18.6592 10.6639C18.6592 11.1524 18.6592 11.6408 18.6592 12.0316C18.6592 12.1293 18.6592 12.3247 18.6592 12.4224C18.7553 12.6178 18.6592 12.8132 18.6592 13.0086C18.5632 13.204 18.5632 13.3994 18.7552 13.5948V13.6924C18.5632 13.7901 18.6592 13.9855 18.6592 14.0832C18.6592 14.2786 18.6592 14.3763 18.8513 14.3763C18.8513 14.3763 18.8513 14.3763 18.8513 14.474C18.7553 14.474 18.7553 14.5717 18.6592 14.5717C18.6592 14.7671 18.7552 14.9625 18.7552 15.1579C18.5632 15.1579 18.4671 15.0602 18.3711 15.0602H18.275C18.275 14.8648 18.0829 14.8648 17.9869 14.7671C17.7948 14.6694 17.6027 14.474 17.6988 14.1809C17.6988 13.9855 17.6988 13.6924 17.6988 13.4971C17.6988 13.3017 17.6988 13.0086 17.6988 12.8132C17.7948 12.5201 17.8908 12.1293 17.7948 11.7385C17.7948 11.7385 17.7948 11.6408 17.7948 11.5431C17.7948 11.4455 17.7948 11.3478 17.7948 11.3478C17.6987 11.2501 17.6027 11.1524 17.5067 11.2501C17.3146 11.2501 17.0264 11.3478 16.8343 11.2501C16.4501 11.1524 16.0659 11.1524 15.6817 11.3478C15.4897 11.4455 15.4897 11.7385 15.2976 11.8362C15.2976 12.1293 15.3936 12.3247 15.3936 12.6178C15.3936 12.7155 15.3936 12.9109 15.3936 13.0086C15.3936 13.3017 15.2976 13.5947 15.2976 13.8878C15.2976 14.2786 15.1055 14.5717 14.7213 14.6694C14.6252 14.6694 14.4332 14.8648 14.3371 14.9625C14.2411 15.0602 14.145 15.1579 14.049 15.1579C13.8569 15.2556 13.7608 15.3533 13.7608 15.5487C13.8569 15.6464 14.049 15.744 14.049 15.8417C14.049 16.3302 14.049 16.8187 14.049 17.4049C14.049 17.698 14.049 18.0887 14.049 18.3818C14.049 18.6749 14.145 19.0657 14.145 19.3588C14.145 19.7496 14.2411 20.1403 14.145 20.4334V20.5311C14.145 20.9219 14.145 21.3127 14.145 21.7035C14.145 21.8011 14.145 21.8989 14.145 21.8989C14.2411 22.2896 14.241 22.5827 14.241 22.9735C14.241 23.462 14.241 23.8528 14.241 24.3412C14.241 24.4389 14.145 24.5366 14.145 24.5366C14.049 24.6343 13.8569 24.5366 13.7608 24.6343C13.7608 24.6343 13.6648 24.6343 13.7608 24.5366C13.8569 24.3412 13.6648 24.2435 13.5688 24.1458C13.5688 24.1458 13.4727 24.0481 13.4727 23.9504C13.4727 23.6574 13.4727 23.3643 13.4727 23.0712C13.3766 22.6804 13.5688 22.1919 13.3767 21.7035C13.4727 21.5081 13.3767 21.4104 13.3767 21.215C13.3767 21.0196 13.3767 20.9219 13.3767 20.7265C13.3767 20.6288 13.3766 20.4334 13.2806 20.4334C13.0885 20.238 12.9925 20.0426 12.8964 19.8472L12.8003 19.7495C12.6083 19.7495 12.5122 19.5542 12.4162 19.4565C12.2241 19.4565 12.2241 19.4565 12.1281 19.1634C12.1281 19.1634 12.1281 19.1634 12.1281 19.0657C12.032 18.6749 12.032 18.2841 12.1281 17.991C12.2241 17.6003 12.2241 17.1118 12.1281 16.721V16.6233C12.1281 16.4279 12.1281 16.1348 12.1281 15.9394C12.1281 15.744 12.032 15.6464 11.936 15.451C11.936 15.451 12.032 15.3533 12.032 15.2556C12.2241 15.0602 12.1281 14.9625 11.936 14.9625H11.8399H11.4557H11.3597C11.1676 14.9625 10.9755 14.8648 10.7834 14.9625C10.4953 15.0602 10.3032 15.0602 10.1111 15.2556C10.2071 15.3533 10.2071 15.451 10.3032 15.451C10.3992 15.451 10.3992 15.451 10.4953 15.451C10.1111 15.6464 10.1111 15.8417 10.3032 16.0371C10.3032 16.2325 10.2071 16.3302 10.2071 16.4279C10.2071 16.6233 10.2071 16.9164 10.2071 17.1118C10.2071 17.5026 10.2071 17.8933 10.2071 18.2841C10.2071 18.4795 10.2071 18.6749 10.2071 18.8703C10.2071 18.968 10.1111 19.0657 10.1111 19.1634C9.82292 19.4565 9.53478 19.6519 9.15059 19.8472C8.86245 19.9449 8.86247 20.1403 8.86247 20.4334C8.86247 20.9219 8.95849 21.5081 8.95849 21.9965C8.95849 22.5827 8.95849 23.2666 8.95849 23.8528C8.95849 24.0481 9.05457 24.1458 9.05457 24.3412C9.05457 24.4389 9.05457 24.6343 9.05457 24.6343C8.95852 24.6343 8.76641 24.732 8.67036 24.6343C8.38222 24.4389 8.09412 24.6343 7.80598 24.5366C7.70993 24.5366 7.61384 24.5366 7.51779 24.5366C7.22965 24.4389 6.94156 24.5366 6.84551 24.732V24.9274C7.03761 25.0251 7.03761 25.1228 6.84551 25.3182C6.84551 25.3182 6.84548 25.4159 6.74943 25.4159C6.74943 26.002 6.65338 26.5882 6.74943 27.1744C6.74943 27.2721 6.84551 27.3698 6.84551 27.4675C6.84551 27.7606 6.74943 27.956 6.74943 28.249C6.74943 28.4444 6.74944 28.5421 6.94154 28.6398L7.03756 28.7375C7.13361 28.9329 7.3257 29.0306 7.51779 29.1283C7.80593 29.226 7.99807 29.4214 8.28621 29.5191C8.57435 29.6168 8.76641 29.9099 9.15059 29.8122C9.24664 29.8122 9.34268 29.8122 9.43872 29.8122C9.43872 30.0075 9.43872 30.2029 9.43872 30.3983C9.43872 30.6914 9.43872 30.9845 9.43872 31.2776C9.43872 31.6684 9.43872 32.0591 9.43872 32.4499C9.43872 32.5476 9.3427 32.6453 9.3427 32.743C9.3427 32.8407 9.3427 32.9384 9.3427 33.0361C9.3427 33.2315 9.43872 33.3292 9.43872 33.5246C9.43872 33.72 9.43872 34.0131 9.43872 34.2084C9.43872 34.3061 9.43872 34.4038 9.43872 34.5015C9.34268 34.8923 9.24663 35.1854 9.43872 35.5762C9.43872 35.5762 9.43872 35.6739 9.43872 35.7716C9.43872 36.1624 9.43872 36.5531 9.43872 37.0416C9.43872 37.0416 9.34272 37.0416 9.24668 37.0416C8.95854 37.0416 8.67037 37.237 8.38223 37.0416H8.28621C8.09412 37.1393 7.99802 37.0416 7.99802 36.8462C7.99802 36.5531 7.99802 36.2601 7.99802 36.0647C7.99802 35.6739 8.09411 35.2831 8.09411 34.7946C8.09411 34.3061 8.09411 33.8177 8.09411 33.3292C8.09411 33.1338 8.09411 32.9384 8.09411 32.743C8.09411 32.4499 8.19013 32.1569 8.19013 31.8638C8.19013 31.7661 8.19013 31.7661 8.19013 31.6684C8.19013 31.473 8.09407 31.473 7.99802 31.3753C7.90198 31.3753 7.7099 31.2776 7.7099 31.2776C7.5178 31.0822 7.32573 30.9845 7.13364 30.8868C6.8455 30.6914 6.46132 30.496 6.17318 30.3983C5.98108 30.3006 5.98107 30.3006 5.98107 30.1052C5.98107 29.4214 5.98107 28.7375 5.98107 28.0536C5.88502 27.5652 5.98107 27.1744 5.98107 26.6859C5.98107 26.2951 5.98107 25.9044 5.98107 25.5136C5.98107 25.4159 5.98107 25.4159 5.98107 25.3182C5.98107 25.3182 5.98109 25.3182 5.88505 25.3182C5.88505 25.4159 5.78897 25.5136 5.78897 25.5136C5.78897 25.4159 5.69294 25.2205 5.69294 25.1228C5.69294 25.0251 5.69292 25.0251 5.78897 24.9274C5.98106 24.8297 5.88501 24.732 5.78897 24.5366C5.78897 24.4389 5.59688 24.4389 5.50084 24.4389C5.2127 24.4389 4.92456 24.6343 4.54037 24.5366C4.25223 24.4389 3.86805 24.4389 3.57991 24.732C3.48386 24.8297 3.48389 24.8297 3.48389 25.0251C3.48389 25.2205 3.48389 25.5136 3.48389 25.709C3.48389 25.9044 3.48389 26.0997 3.48389 26.2951C3.48389 27.0767 3.57991 27.8583 3.57991 28.6398C3.57991 28.7375 3.57988 28.7375 3.67593 28.8352C3.67593 28.9329 3.77201 28.9329 3.77201 28.9329C3.57992 29.226 3.67597 29.4214 3.77201 29.7145C3.86806 30.0076 3.67594 30.3006 3.3878 30.496C3.29176 30.5937 3.0997 30.5937 3.00365 30.6914C2.90761 30.6914 2.90759 30.6914 2.81155 30.7891L2.23523 30.9845C2.13919 31.1799 1.94709 31.3753 1.755 31.473C1.755 31.473 1.755 31.473 1.755 31.5707C1.755 31.5707 1.85108 31.5707 1.85108 31.6684C2.13922 31.7661 2.13923 31.8638 2.04319 32.0592C1.94714 32.3522 1.85106 32.5476 1.94711 32.9384C1.94711 33.2315 1.94713 33.6223 1.85108 33.9154C1.85108 34.0131 1.85108 34.1108 1.85108 34.3061C1.85108 34.4038 1.85108 34.5015 1.85108 34.5015C1.65899 34.8923 1.46691 35.1854 1.56295 35.6739C1.56295 35.7716 1.56295 35.8693 1.56295 35.967C1.46691 36.4554 1.46688 37.0416 1.65898 37.5301C1.65898 37.6278 1.755 37.7255 1.755 37.8232C1.755 38.2139 1.75504 38.507 1.85108 38.8978C1.85108 39.2886 1.85106 39.5817 1.94711 39.9725C1.94711 40.2656 1.94711 40.6563 1.94711 40.9494C1.94711 41.1448 1.94711 41.3402 1.94711 41.5356C1.94711 41.8287 1.94711 42.1218 1.94711 42.4149C1.94711 42.5126 1.85108 42.5125 1.85108 42.6102C1.85108 42.7079 1.85108 42.8056 1.85108 42.9033C1.94713 43.0987 2.04315 43.3918 1.94711 43.5872C1.85106 43.7826 1.85106 43.978 1.94711 44.1734C1.94711 44.2711 1.94711 44.3688 1.94711 44.3688C1.94711 44.4665 1.85108 44.5641 1.85108 44.7595C1.85108 44.9549 1.75502 45.0526 1.65898 45.1503C1.37084 45.3457 1.08271 45.5411 0.890618 45.7365C0.698525 45.8342 0.602443 45.9319 0.314303 46.0296C0.218257 46.0296 0.0261756 46.225 0.0261756 46.3227C-0.0698709 46.4204 0.122234 46.5181 0.21828 46.5181C0.50642 46.6157 0.506408 46.8111 0.506408 47.1042C0.506408 47.2019 0.410385 47.3973 0.410385 47.495C0.410385 47.5927 0.410385 47.6904 0.410385 47.8858C0.410385 48.3743 0.410385 48.8627 0.410385 49.2535C0.410385 49.4489 0.506432 49.742 0.410385 49.9374C0.410385 50.1328 0.506432 50.2305 0.410385 50.4259C0.410385 50.4259 0.410362 50.5235 0.506408 50.5235C0.602455 50.6212 0.602466 50.6213 0.698513 50.719C0.794559 50.8166 0.890594 51.012 0.986641 51.1097C1.17873 51.3051 1.46688 51.4028 1.65898 51.5005C1.94712 51.6959 2.04315 51.8913 1.94711 52.1844C1.94711 52.2821 1.94711 52.3798 1.94711 52.4775C2.1392 52.9659 1.94711 53.3567 1.94711 53.8452C1.94711 54.0406 1.94711 54.3337 1.94711 54.5291C1.85106 54.9198 1.94711 55.2129 1.94711 55.6037C1.94711 55.8968 2.04319 56.0922 2.04319 56.3853C2.04319 56.5807 2.04319 56.6784 2.04319 56.8737C2.04319 56.9714 2.04319 57.0691 2.04319 57.1668C2.04319 57.4599 1.94712 57.6553 1.65898 57.6553C1.46688 57.6553 1.56295 57.8507 1.56295 57.9484C1.56295 57.9484 1.56293 58.0461 1.65898 58.0461C1.75502 58.0461 1.75504 57.9484 1.85108 57.9484C1.94713 57.9484 1.94714 57.9484 2.04319 57.9484C2.04319 58.0461 2.04319 58.0461 2.04319 58.1438L2.52342 58.2415C2.81156 58.3392 3.0997 58.6323 3.48389 58.2415C3.48389 58.1438 3.48389 58.1438 3.48389 58.0461H3.57991C3.57991 58.1438 3.67593 58.1438 3.67593 58.2415C3.77198 58.4369 3.86807 58.5346 3.96412 58.8276C4.06016 58.7299 4.06012 58.6323 4.15616 58.6323C4.34826 58.8276 4.4443 58.8277 4.6364 58.5346C4.82849 58.5346 4.92456 58.6323 5.02061 58.6323C5.2127 58.5346 5.40477 58.5346 5.59686 58.6323H5.69294C6.36527 58.6323 7.13365 58.6323 7.80598 58.6323C7.90202 58.6323 8.09408 58.6323 8.19013 58.6323C8.38222 58.6323 8.57435 58.73 8.76644 58.73C8.95854 58.73 9.05455 58.73 9.15059 58.9253C9.24664 59.023 9.43876 59.1207 9.5348 59.1207C9.82294 59.023 10.1111 59.023 10.1111 58.6323C10.3992 58.73 10.5913 58.8277 10.6874 58.4369C10.7834 58.5346 10.7834 58.73 10.7834 58.73C10.8794 58.73 10.9755 58.6323 11.0715 58.6323C11.1676 58.6323 11.1676 58.6323 11.2636 58.6323H12.1281C12.2241 58.6323 12.4162 58.5346 12.4162 58.73C12.5122 58.9253 12.7043 58.9253 12.8964 58.8276C13.0885 58.8276 13.1845 58.73 13.2806 58.6323C13.5687 58.4369 13.7609 58.4369 14.049 58.6323C14.145 58.6323 14.241 58.6323 14.241 58.6323C14.3371 58.3392 14.4332 58.5346 14.5292 58.6323C14.6253 58.6323 14.7213 58.5346 14.7213 58.5346C14.8173 58.6323 14.9134 58.6323 14.9134 58.6323C15.2976 58.5346 15.5857 58.5346 15.9699 58.4369C16.066 58.4369 16.258 58.4369 16.3541 58.5346H16.4502C16.6423 58.6323 16.8343 58.6323 16.9304 58.4369C17.0264 58.6323 17.1225 58.6323 17.2185 58.6323C17.3146 58.6323 17.4106 58.6323 17.6027 58.6323C17.7948 58.73 17.8908 58.8276 18.0829 58.6323C18.179 58.5346 18.275 58.6323 18.3711 58.73C18.5632 58.73 18.7553 58.73 18.9473 58.73C18.9473 58.73 18.9473 58.73 18.9473 58.6323C19.0434 58.5346 19.0434 58.4369 19.1395 58.3392C19.1395 58.2415 19.2355 58.1438 19.2355 58.0461C19.2355 57.6553 19.2355 57.1668 19.2355 56.7761C19.2355 56.5807 19.2355 56.483 19.2355 56.2876C19.3315 55.7991 19.4276 55.4083 19.4276 54.9198C19.4276 54.8221 19.3316 54.7245 19.3316 54.5291C19.4276 54.3337 19.3316 54.0406 19.3316 53.8452C19.3316 53.7475 19.3316 53.5521 19.3316 53.4544C19.3316 53.259 19.4276 53.0636 19.4276 52.8682C19.4276 52.4775 19.3316 51.989 19.3316 51.5982C19.3316 50.9143 19.1395 50.2305 19.3316 49.5466C19.3316 49.3512 19.2355 49.2535 19.0434 49.2535C18.6592 49.2535 18.3711 49.2535 17.9869 49.2535C17.7948 49.2535 17.6988 49.2535 17.6988 48.9604C17.6988 48.765 17.6988 48.5697 17.6988 48.2766C17.6988 47.8858 17.6027 47.495 17.6027 47.1042C17.6027 47.0065 17.6027 46.8111 17.6988 46.7134C17.7948 46.7134 17.8909 46.7134 17.8909 46.8111C17.7948 46.7134 17.6987 46.6157 17.6027 46.5181H17.6988C17.9869 46.5181 18.275 46.5181 18.5631 46.5181C18.6592 46.5181 18.7553 46.6157 18.8513 46.6157C18.9474 46.6157 19.0434 46.7134 19.1395 46.7134C19.1395 46.7134 19.1395 46.7134 19.1395 46.6157C19.1395 46.518 19.1394 46.518 19.0434 46.4204C19.4276 46.518 19.2355 46.225 19.3316 46.1273C19.2355 46.1273 19.2355 46.1273 19.1395 46.1273V46.0296C19.2355 45.8342 19.3316 45.5411 19.3316 45.248V45.1503C19.3316 45.0526 19.4276 44.9549 19.4276 44.8572C19.4276 44.6618 19.4276 44.4664 19.4276 44.1734C19.4276 43.7826 19.4276 43.4895 19.4276 43.0987C19.4276 43.001 19.5236 42.9033 19.5236 42.8056C19.6196 42.2195 19.4276 41.6333 19.3316 41.1448C19.3316 41.0471 19.4276 40.9494 19.4276 40.9494C19.8118 40.8517 20.196 40.8517 20.5802 40.8517C20.5802 40.8517 20.5801 40.8517 20.6762 40.8517H21.3485H21.4445L21.5406 40.754C21.5406 40.6563 21.5406 40.4609 21.5406 40.3633C21.5406 40.1679 21.5406 39.9725 21.5406 39.7771C21.6367 39.2886 21.6367 38.8978 21.5406 38.4093C21.5406 38.214 21.6367 38.214 21.7327 38.214C21.9248 38.214 22.1169 38.214 22.309 38.214C22.6932 38.214 23.0774 38.1163 23.4615 38.1163C23.6536 38.1163 23.9418 38.1163 24.1339 38.0186C24.326 38.0186 24.326 37.9209 24.2299 37.8232C24.1339 37.7255 24.1338 37.7255 24.0378 37.6278C24.2299 37.5301 24.326 37.5301 24.422 37.4324C24.6141 37.3347 24.7102 37.1393 24.6141 36.9439C24.6141 36.8462 24.5181 36.8462 24.6141 36.7485C24.6141 36.1624 24.7101 35.6739 24.7101 35.0877C24.7101 34.6969 24.7101 34.3062 24.9983 34.1108C25.1904 33.9154 25.4785 33.9154 25.6706 34.0131C25.7667 34.0131 25.7666 34.2084 25.7666 34.4038C25.7666 34.5015 25.7666 34.6969 25.7666 34.7946C25.7666 34.8923 25.6706 35.0877 25.6706 35.1854C25.6706 35.3808 25.6706 35.5762 25.6706 35.7716C25.6706 36.0647 25.4785 36.3577 25.6706 36.5531C25.7667 36.8462 25.7667 37.0416 25.8627 37.3347C26.0548 37.3347 26.1508 37.3347 26.2469 37.4324C26.2469 37.6278 26.2469 37.8232 26.1508 38.0186C26.2469 38.0186 26.3429 37.9209 26.439 38.0186C26.8232 38.1163 27.2074 38.1163 27.4955 38.214C27.8797 38.214 28.1678 38.3116 28.552 38.3116C28.648 38.3116 28.7441 38.3116 28.8401 38.3116C29.0322 38.3116 29.0322 38.4094 29.0322 38.507C29.0322 38.7024 29.0322 38.8978 29.0322 38.9955C29.1283 39.1909 29.0322 39.3863 29.0322 39.484C29.2243 39.5817 29.2243 39.7771 29.1283 39.9725C29.0322 40.1679 28.9362 40.3632 28.8401 40.5586C28.8401 40.6563 28.8401 40.6563 28.8401 40.754C28.9362 40.754 29.0322 40.754 29.0322 40.754C29.0322 40.8517 29.0322 40.9494 29.0322 41.0471C29.0322 41.1448 29.0322 41.1448 29.0322 41.2425C29.0322 41.3402 29.0322 41.5356 29.1283 41.6333C29.1283 41.731 29.2243 41.731 29.3204 41.731C29.3204 41.731 29.4164 41.731 29.5125 41.6333C29.5125 41.8287 29.5125 41.8287 29.7046 41.8287C29.8006 41.8287 29.8006 41.8287 29.8967 41.8287L30.3769 41.9264C30.569 41.9264 30.665 41.9264 30.8571 41.9264C30.9532 41.9264 31.0492 41.9264 31.0492 41.731C31.1452 41.5356 31.2413 41.5356 31.4334 41.6333L31.5294 41.731C31.5294 42.0241 31.4334 42.3172 31.4334 42.5125C31.5294 42.6102 31.6255 42.7079 31.6255 42.7079C31.5295 42.7079 31.4334 42.7079 31.3374 42.8056C31.2413 42.9033 31.3373 43.001 31.5294 43.001C31.4334 43.0987 31.4334 43.1964 31.4334 43.1964C31.4334 43.5872 31.5294 43.978 31.5294 44.3688C31.5294 44.5641 31.5295 44.8572 31.6255 45.0526C31.7215 45.3457 31.6255 45.5411 31.6255 45.7365C31.5295 46.0296 31.4334 46.225 31.3374 46.5181C31.8176 46.8111 32.2978 46.8111 32.8741 46.8111C32.9701 46.8111 33.0662 46.8111 33.0662 47.0065C32.9701 47.2996 32.9701 47.6904 32.9701 47.9835C32.9701 48.0812 32.9701 48.2766 32.9701 48.3743C32.9701 48.472 32.9701 48.6673 32.9701 48.765C32.8741 49.0581 32.778 49.4489 32.8741 49.742C32.8741 49.8397 32.8741 49.9374 32.682 49.8397C32.2978 49.8397 31.9136 49.8397 31.5294 50.0351C31.3373 50.1328 31.3373 50.2305 31.5294 50.4259C31.6255 50.5236 31.7215 50.6212 31.6255 50.8166C31.6255 51.012 31.5294 51.2074 31.5294 51.5005C31.5294 51.5982 31.5294 51.6959 31.5294 51.6959C31.5294 51.989 31.6255 52.1844 31.4334 52.4775V52.5752C31.4334 52.8682 31.6255 53.1613 31.4334 53.5521C31.4334 53.7475 31.4334 54.0406 31.4334 54.236C31.4334 54.7244 31.4334 55.3106 31.3374 55.7991C31.2413 56.0922 31.3374 56.483 31.3374 56.7761C31.3374 56.9714 31.4334 57.1668 31.4334 57.3622C31.4334 57.6553 31.3374 58.0461 31.3374 58.3392C31.3374 58.4369 31.3373 58.6323 31.5294 58.6323C31.6255 58.6323 31.7215 58.73 31.7215 58.73C31.8176 58.9253 31.9136 58.9253 32.0097 58.8276C32.2017 58.7299 32.2018 58.8277 32.2978 58.9253C32.3939 59.023 32.4899 59.023 32.586 59.023C32.7781 59.023 32.9701 58.9253 33.1622 58.9253C33.4504 58.9253 33.6424 59.023 33.9306 59.023C34.4108 59.023 34.795 59.023 35.2753 59.023H35.3713C35.4673 58.9254 35.5634 59.023 35.6595 59.023C35.8516 59.1207 35.9476 59.2184 36.2357 59.2184C36.5239 59.1207 36.908 59.1207 37.2922 59.023C37.5803 59.023 37.8685 59.023 38.1567 59.023C38.3487 59.023 38.4448 59.023 38.5409 59.023H40.0776C40.2697 59.023 40.3657 59.023 40.5578 59.023C40.6539 59.023 40.7499 59.023 40.7499 58.9253C40.846 58.8277 40.942 58.8277 41.1341 58.9253C41.1341 58.9253 41.2301 58.9253 41.3262 58.9253C41.5183 58.9253 41.8064 58.8276 41.9985 58.8276C42.1906 58.8276 42.3827 58.8276 42.5748 58.8276C42.959 58.8276 43.3432 58.8276 43.6313 58.8276C43.8234 58.8276 44.1116 58.9253 44.3036 58.9253C44.6878 58.9253 44.976 58.9253 45.3601 58.9253C45.5522 58.9253 45.6483 59.023 45.8404 59.023C45.8404 59.023 45.9364 59.023 46.0325 59.1207C46.0325 59.023 45.9364 58.9253 45.9364 58.9253C46.0324 58.9253 46.1285 58.9254 46.2246 59.023C46.3206 59.023 46.4166 59.023 46.4166 59.1207C46.5127 59.1207 46.5127 59.2184 46.5127 59.3161C46.6088 59.5115 46.7048 59.4138 46.8008 59.3161L46.8969 59.2184C46.8969 59.2184 46.8969 59.2184 46.8969 59.3161C46.9929 59.3161 47.185 59.3161 47.2811 59.3161C47.5692 59.3161 47.8574 59.2184 48.1455 59.3161C48.3376 59.3161 48.5297 59.3161 48.7218 59.3161C48.9139 59.2184 49.1059 59.2184 49.298 59.4138C49.4901 59.5115 49.5862 59.5115 49.7783 59.4138C49.9703 59.3161 50.0664 59.3161 50.0664 59.6092C50.0664 59.7069 50.1625 59.9023 50.1625 60C50.2585 59.9023 50.3545 59.8046 50.4506 59.8046C50.6427 59.8046 50.7387 59.6092 50.6427 59.5115C50.6427 59.2184 50.5467 58.9253 50.5467 58.6323C50.5467 58.4369 50.6427 58.2415 50.6427 58.0461C50.5466 57.6553 50.6427 57.1668 50.6427 56.7761C50.6427 56.2876 50.6427 55.8968 50.6427 55.4083C50.6427 55.1152 50.6427 54.8221 50.6427 54.5291C50.7387 54.1383 50.6427 53.7475 50.6427 53.3567C50.5466 53.1613 50.6427 52.9659 50.8348 52.8682C50.9308 52.8682 50.9309 52.7705 51.0269 52.7705C51.219 52.5752 51.4111 52.4775 51.5071 52.2821C51.6032 51.989 52.0834 51.8913 51.9874 51.4028C51.4111 51.012 51.5071 50.8166 51.6032 50.5235ZM2.61944 57.8507C2.5234 57.8507 2.42733 57.753 2.23523 57.6553C2.23523 57.5576 2.33132 57.4599 2.33132 57.4599L2.42734 57.3622L2.52342 57.4599C2.52342 57.5576 2.52342 57.6553 2.52342 57.6553C2.52342 57.6553 2.52338 57.6553 2.42734 57.6553C2.61943 57.753 2.61944 57.8507 2.61944 57.8507ZM3.1957 40.5586V40.4609C3.1957 40.3633 3.1957 40.2656 3.1957 40.1679C3.1957 40.1679 3.29178 40.1679 3.29178 40.2655C3.29178 40.3632 3.29175 40.4609 3.1957 40.5586ZM8.47826 47.6904C8.38221 47.6904 8.28621 47.6904 8.28621 47.6904C8.28621 47.6904 8.19016 47.5927 8.28621 47.5927C8.4783 47.3973 8.38223 47.2019 8.38223 47.0065C8.38223 47.0065 8.47829 46.9088 8.57434 46.9088V47.6904H8.47826ZM12.3201 44.8572C12.3201 44.9549 12.2241 45.0526 12.1281 45.248H12.032C12.032 45.1503 12.032 44.9549 12.032 44.8572C12.032 44.7595 12.128 44.7595 12.2241 44.6618C12.2241 44.6618 12.3201 44.7595 12.3201 44.8572ZM12.8003 47.3973C12.7043 47.3973 12.7043 47.2996 12.6083 47.2996L12.7043 47.2019C12.8004 47.2019 12.8004 47.2996 12.8964 47.2996C12.8964 47.3973 12.8003 47.3973 12.8003 47.3973ZM14.8174 31.5707C14.9134 31.6684 14.9134 31.7661 15.0095 31.8638C15.0095 31.8638 15.0095 31.9615 15.0095 32.0592C15.0095 32.0592 14.9134 32.0591 14.9134 31.9615C14.8173 31.8638 14.8174 31.6684 14.8174 31.5707ZM14.9134 58.1438C14.8173 58.0461 14.8174 57.9484 14.8174 57.9484C14.8174 57.9484 14.8173 57.8507 14.9134 57.753C14.9134 57.8507 15.0094 57.9484 14.9134 58.1438C15.0094 58.0461 15.0094 58.0461 14.9134 58.1438ZM15.7778 36.8462C15.8739 36.9439 15.9699 37.0416 15.8738 37.1393C15.8738 37.1393 15.7778 37.1393 15.6817 37.1393C15.6817 37.0416 15.6818 36.9439 15.7778 36.8462ZM15.6817 25.4159C15.5857 25.3182 15.4897 25.3182 15.3936 25.2205C15.6818 25.2205 15.6817 25.2205 15.6817 25.4159ZM15.3936 40.754C15.3936 40.6563 15.3936 40.5586 15.3936 40.5586H15.4897C15.4897 40.6563 15.4897 40.754 15.4897 40.754H15.3936ZM15.4897 40.3633C15.4897 40.0702 15.3936 39.8748 15.3936 39.5817C15.3936 39.484 15.3936 39.3863 15.3936 39.2886C15.3936 39.1909 15.3936 39.1909 15.3936 39.0932C15.4897 38.8978 15.4897 38.8001 15.5857 38.6047C15.5857 38.507 15.6817 38.507 15.6817 38.507C15.6817 38.507 15.7778 38.507 15.8738 38.507C15.8738 38.6047 15.8738 38.6047 15.8738 38.7024C15.8738 38.8978 15.6818 39.0932 15.7778 39.1909C15.8739 39.484 15.6818 39.7771 15.8738 40.0702C15.6818 40.1679 15.4897 40.1679 15.4897 40.3633ZM15.9699 57.6553C15.9699 57.4599 15.8738 57.2645 15.8738 56.9714C16.0659 57.1668 16.162 57.3622 15.9699 57.6553ZM17.4106 50.9143C17.4106 51.012 17.5067 51.012 17.5067 51.1097L17.4106 51.2074C17.4106 51.2074 17.3146 51.1097 17.2185 51.012C17.3146 51.012 17.3146 51.012 17.4106 50.9143ZM17.1224 58.3392C17.0264 58.2415 17.0264 58.2415 16.9304 58.1438C17.0264 58.1438 17.1225 58.1438 17.2185 58.1438C17.2185 58.1438 17.2185 58.2415 17.2185 58.3392C17.2185 58.4369 17.2185 58.5346 17.3145 58.6323C17.1225 58.73 16.8343 58.6323 16.8343 58.4369H17.1224V58.3392ZM16.8343 58.73C16.9304 58.73 17.0264 58.73 17.1224 58.73V58.8276C17.0264 58.9253 17.0264 59.1207 16.8343 59.023C16.7383 59.023 16.7383 59.023 16.6422 58.9253C16.7383 58.9253 16.8343 58.8277 16.8343 58.73ZM16.4502 50.6213C16.4502 50.7189 16.3541 50.8166 16.3541 50.8166H16.2581V50.6213C16.2581 50.6213 16.3541 50.6213 16.4502 50.6213ZM17.1224 46.0296C17.0264 46.225 16.9304 46.225 16.8343 46.1273L16.9304 46.0296C17.0264 46.0296 17.1225 45.9319 17.2185 45.9319C17.1225 46.0296 17.1224 46.0296 17.1224 46.0296ZM18.3711 40.8517L18.275 40.754C18.275 40.6563 18.275 40.5586 18.275 40.4609C18.275 40.4609 18.275 40.4609 18.3711 40.4609C18.4671 40.5586 18.4671 40.6563 18.5631 40.754C18.371 40.6563 18.3711 40.754 18.3711 40.8517ZM19.9078 12.6178C19.9078 12.6178 20.0038 12.6178 20.0038 12.7155C20.0038 12.9109 20.0038 13.1063 20.0038 13.3994V13.4971H19.9078V12.9109C19.9078 12.9109 19.8118 12.9109 19.8118 12.8132C19.8118 12.7155 19.9078 12.7155 19.9078 12.6178ZM19.9078 13.5948C19.9078 13.5948 20.0038 13.6924 20.0038 13.7901C19.9078 13.8878 19.9078 14.0832 19.8118 14.0832C19.7157 14.1809 19.6197 13.9855 19.6197 13.8878C19.6197 13.7901 19.7157 13.6925 19.7157 13.5948H19.9078ZM20.0038 15.3533C20.0038 15.5486 19.9078 15.6463 19.9078 15.8417L19.8118 15.9394L19.7157 15.8417C19.7157 15.6463 19.7157 15.451 19.8118 15.2556C19.8118 15.1579 19.9078 15.1579 19.9078 15.0602H20.0038C20.0038 15.1579 20.0038 15.2556 20.0038 15.3533ZM19.6197 10.8593C19.6197 10.957 19.6197 11.0547 19.7157 11.2501H19.6197C19.6197 11.1524 19.6196 11.0547 19.5236 10.8593C19.5236 10.8593 19.5236 10.8593 19.6197 10.8593ZM19.9078 18.3818C19.9078 18.4795 19.9078 18.5772 19.9078 18.6749C19.8118 18.5772 19.7157 18.4795 19.6197 18.3818C19.6197 18.2841 19.6197 18.1864 19.7157 18.1864C19.8118 18.0887 19.9078 18.0887 20.0038 18.0887C19.9078 18.1864 19.9078 18.2841 19.9078 18.3818ZM20.0038 17.6003C20.0038 17.6979 19.9078 17.7957 19.8118 17.991C19.8118 17.991 19.7157 17.991 19.6197 18.0887C19.6197 17.991 19.6197 17.991 19.6197 17.8933C19.6197 17.8933 19.6197 17.7956 19.7157 17.7956H19.4276C19.4276 17.7956 19.4276 17.7956 19.4276 17.698C19.6197 17.6003 19.7157 17.6003 19.9078 17.5026L20.0038 17.6003ZM19.7157 17.0141C19.8118 16.8187 19.8118 16.8187 19.9078 16.6233H20.0038C20.0038 16.721 20.0038 16.8187 20.0038 16.9164C19.9078 17.0141 19.8118 17.0141 19.7157 17.0141ZM19.9078 16.4279C19.8118 16.4279 19.8118 16.4279 19.7157 16.3302C19.7157 16.2325 19.7157 16.1348 19.6197 16.0371C19.7157 16.0371 19.8117 16.0371 20.0038 16.0371C20.0038 16.1348 19.9078 16.3302 19.9078 16.4279ZM20.5802 11.2501C20.5802 11.3478 20.4841 11.3478 20.388 11.4454C20.388 11.4454 20.3881 11.4455 20.292 11.3478C20.292 11.2501 20.388 11.1524 20.388 11.0547C20.388 11.0547 20.388 11.0547 20.4841 11.0547C20.4841 11.1524 20.5802 11.2501 20.5802 11.2501ZM21.3485 7.92843H21.2525V7.83073C21.3485 7.73303 21.1564 7.53764 21.3485 7.53764C21.3485 7.53764 21.4446 7.63535 21.5406 7.73304C21.4446 7.83074 21.3485 7.83073 21.3485 7.92843ZM21.6366 21.9965V21.5081C21.7327 21.5081 21.8287 21.5081 21.8287 21.4104C21.9248 21.5081 21.9248 21.6058 21.9248 21.7035C21.9248 21.8988 21.8287 21.8988 21.6366 21.9965ZM24.3259 0.601285C24.422 0.601285 24.422 0.698977 24.518 0.796673C24.422 0.796673 24.326 0.796673 24.2299 0.796673C24.1339 0.796673 24.1338 0.796673 24.0378 0.796673C24.0378 0.601282 24.1338 0.50359 24.3259 0.601285ZM24.2299 10.2731C24.2299 10.2731 24.1339 10.2731 24.1339 10.3708C24.1339 10.4685 24.1339 10.4685 24.1339 10.5662C24.0378 10.4685 24.0378 10.3708 23.9418 10.2731V10.1754C24.0378 10.1754 24.0378 10.2731 24.1339 10.2731C24.1339 10.1754 24.1339 10.1754 24.1339 10.0777C24.0378 10.0777 24.0378 9.98002 23.9418 9.98002L24.0378 9.88233C24.1338 9.88233 24.2299 9.98002 24.3259 9.98002C24.2299 10.0777 24.2299 10.1754 24.2299 10.2731ZM23.8457 9.49154C24.0378 9.58924 24.1338 9.58925 24.3259 9.68695V9.78463C24.1338 9.78463 23.9417 9.68693 23.8457 9.49154ZM24.3259 9.00307C24.2299 8.90537 24.2299 8.80769 24.2299 8.70999H24.3259V8.80768C24.422 8.90538 24.422 8.90537 24.3259 9.00307ZM24.2299 8.61229C24.1339 8.70999 24.1339 8.61229 24.1339 8.61229C24.1339 8.4169 24.0378 8.31921 24.1339 8.12382C24.2299 8.02612 24.3259 7.92842 24.518 8.02611C24.422 8.2215 24.326 8.4169 24.2299 8.61229ZM24.6141 19.2611C24.6141 19.1634 24.518 19.0657 24.518 18.968C24.6141 18.968 24.6141 18.968 24.6141 18.968C24.6141 19.0657 24.7101 19.1634 24.7101 19.2611H24.6141ZM24.9022 33.4269C24.9022 33.3292 24.9983 33.2315 24.9983 33.1338C24.9983 33.1338 24.9983 33.1338 25.0943 33.1338C25.0943 33.2315 25.0943 33.3292 25.0943 33.4269C24.9983 33.5246 24.9022 33.5246 24.9022 33.4269ZM25.8627 6.56069L25.9587 6.463L26.0548 6.56069C26.0548 6.75608 25.9587 6.85377 25.9587 7.04916C25.7666 6.95147 25.7667 6.75608 25.8627 6.56069ZM26.0548 29.226C25.8627 29.1283 25.8627 29.1283 25.9587 28.7375C26.0548 28.9329 26.0548 29.0306 26.0548 29.226ZM25.7666 29.8122L25.8627 29.7145C25.8627 29.5191 25.9587 29.4214 26.1508 29.5191V29.3237C26.1508 29.3237 26.1508 29.3237 26.2469 29.3237C26.2469 29.5191 26.2469 29.7145 26.2469 29.9099C26.0548 30.0076 25.9587 30.1052 25.7666 30.0075C25.6706 30.0075 25.6706 29.9099 25.6706 29.9099C25.6706 29.8122 25.6706 29.8122 25.7666 29.8122ZM26.2469 37.8232C26.1508 37.8232 26.1509 37.7255 26.0548 37.7255C25.9588 37.7255 25.9588 37.5301 25.8627 37.7255C25.8627 37.7255 25.7667 37.7255 25.6706 37.6278V37.5301C25.7667 37.5301 25.7667 37.4324 25.8627 37.4324C25.9588 37.5301 26.0548 37.4324 26.1508 37.4324C26.3429 37.3347 26.3429 37.4324 26.3429 37.6278C26.3429 37.7255 26.3429 37.8232 26.2469 37.8232ZM28.8401 8.02611C28.7441 8.02611 28.552 7.92843 28.552 8.12382C28.648 8.12382 28.8402 7.92843 28.9362 8.22152C28.8402 8.22152 28.648 8.22151 28.552 8.3192H28.456C28.3599 8.22151 28.3599 8.12382 28.2639 7.92843C28.3599 7.63534 28.552 7.63533 28.8401 8.02611ZM28.648 8.80768C28.7441 9.00307 28.7441 9.19847 28.552 9.19847C28.456 9.19847 28.3599 9.19847 28.3599 9.19847V9.10077C28.4559 9.10077 28.456 9.00307 28.552 9.00307C28.456 8.90537 28.4559 8.80768 28.648 8.80768ZM28.7441 9.68695C28.7441 9.78464 28.8401 9.98003 28.552 10.0777C28.648 9.88233 28.7441 9.78464 28.7441 9.68695ZM28.0718 7.53764C28.0718 7.53764 28.1678 7.53765 28.2639 7.43995C28.2639 7.43995 28.2639 7.43994 28.2639 7.53764C28.1678 7.63533 28.1678 7.73303 28.0718 7.83073C28.0718 7.83073 28.0718 7.83073 27.9757 7.83073C28.0718 7.63534 28.0718 7.53764 28.0718 7.53764ZM28.0718 8.12382V8.61229C28.0718 8.61229 28.0718 8.61229 27.9757 8.61229C27.8797 8.4169 27.9757 8.22151 28.0718 8.12382ZM27.5915 7.14686C27.6876 7.24456 27.6876 7.14686 27.5915 7.14686C27.5915 7.24456 27.5915 7.34225 27.5915 7.34225C27.5915 7.34225 27.4955 7.34225 27.3994 7.34225C27.3994 7.34225 27.3994 7.34226 27.3994 7.24457C27.4955 7.24457 27.5915 7.24456 27.5915 7.14686ZM27.7836 9.78463C27.5915 10.0777 27.5915 10.0777 27.3994 9.78463C27.4955 9.88233 27.5915 9.88233 27.7836 9.78463ZM26.535 10.1754C26.535 10.2731 26.6311 10.3708 26.535 10.5662C26.535 10.6639 26.6311 10.7616 26.439 10.8593C26.439 10.5662 26.535 10.3708 26.535 10.1754ZM26.439 29.8122C26.439 29.7145 26.439 29.6168 26.535 29.6168C26.535 29.7145 26.6311 29.8122 26.6311 29.9099C26.535 29.8122 26.439 29.8122 26.439 29.8122ZM26.6311 36.4554C26.535 36.3577 26.535 36.3577 26.535 36.2601C26.535 36.1624 26.6311 36.1624 26.6311 36.0647C26.6311 36.0647 26.7271 36.0647 26.7271 36.1623C26.7271 36.26 26.7271 36.3577 26.6311 36.4554ZM26.7271 11.0547C26.7271 11.0547 26.6311 11.0547 26.535 11.0547C26.535 11.0547 26.535 11.0547 26.535 10.957C26.6311 10.957 26.631 10.8593 26.7271 10.8593L26.8232 10.7616C26.8232 10.7616 26.8232 10.7616 26.9192 10.7616C26.8232 10.8593 26.8231 10.957 26.7271 11.0547ZM27.1113 37.7255H27.0153C27.0153 37.6278 27.0153 37.5301 27.0153 37.4324H27.1113C27.1113 37.5301 27.1113 37.6278 27.1113 37.7255ZM27.0153 7.34225C27.0153 7.24456 26.9192 7.24456 26.9192 7.14686L27.0153 7.04916V7.14686C27.1113 7.24456 27.1113 7.34225 27.0153 7.34225C27.1113 7.34225 27.1113 7.34225 27.0153 7.34225ZM27.5915 34.5992C27.5915 34.6969 27.4955 34.6969 27.3994 34.7946C27.3034 34.7946 27.2074 34.7946 27.0153 34.7946C27.0153 34.7946 27.0153 34.6969 27.0153 34.5992C27.1113 34.5992 27.1113 34.5992 27.2073 34.5992C27.3994 34.6969 27.3994 34.5992 27.3994 34.4038C27.3994 34.3061 27.3994 34.2084 27.3994 34.2084H27.4955C27.6876 34.3061 27.6876 34.5015 27.5915 34.5992ZM27.7836 10.957C27.6876 10.8593 27.5916 10.6639 27.4955 10.4685C27.5916 10.4685 27.6876 10.4685 27.8797 10.4685C27.7836 10.6639 28.0718 10.7616 27.7836 10.957ZM27.8797 12.0316C28.0718 11.9339 28.2639 11.8362 28.456 11.6409C28.456 11.6409 28.456 11.6408 28.456 11.7385C28.3599 11.9339 28.1678 12.0316 27.8797 12.0316ZM28.1678 37.9209C28.1678 37.9209 28.0718 37.9209 28.0718 37.8232C28.0718 37.7255 27.9757 37.6278 28.2639 37.5301C28.0718 37.7255 28.3599 37.8232 28.1678 37.9209ZM28.7441 16.3302C28.6481 16.1348 28.648 16.0371 28.552 15.8417C28.648 15.9394 28.7441 15.9394 28.7441 16.0371C28.8402 16.1348 28.7441 16.2325 28.7441 16.3302ZM28.3599 12.1293C28.4559 12.0316 28.4559 12.0316 28.8401 12.227C28.648 12.4224 28.648 12.4224 28.3599 12.1293ZM29.0322 11.5431C29.0322 11.5431 28.9362 11.5431 28.8401 11.4454V11.2501C29.0322 11.1524 28.9362 10.957 28.9362 10.8593C28.9362 10.7616 28.9362 10.7616 29.0322 10.6639H29.1283C29.1283 10.8593 29.0322 10.957 29.0322 11.1524C29.0322 11.3478 29.0322 11.4455 29.0322 11.5431ZM28.8401 10.1754C28.9362 10.2731 29.0322 10.2731 29.0322 10.2731C28.8401 10.2731 28.648 10.2731 28.552 10.2731C28.456 10.2731 28.2638 10.1754 28.1678 10.0777C28.2638 10.0777 28.2638 10.0777 28.3599 10.0777C28.3599 9.88233 27.9757 10.0777 28.1678 9.78463C28.2638 9.88233 28.552 9.78463 28.552 10.0777C28.552 10.0777 28.8402 10.0777 28.9362 10.0777C28.9362 10.0777 28.9362 9.88233 29.0322 9.78463C29.0322 9.68694 29.0322 9.68694 29.1283 9.58924C29.2243 9.98003 29.1283 10.0777 28.8401 10.1754ZM29.5125 16.6233C29.6085 16.721 29.7045 16.8187 29.8006 17.0141C29.6085 17.3072 29.5125 16.8187 29.4164 17.0141C29.4164 16.8187 29.4164 16.8187 29.5125 16.6233ZM29.5125 23.8528C29.6085 23.9505 29.6085 23.9504 29.5125 24.2435C29.4164 24.2435 29.4164 24.2435 29.3204 24.2435C29.3204 24.0481 29.4164 23.9505 29.5125 23.8528ZM29.7046 24.732C29.6085 24.8297 29.6085 24.9274 29.5125 25.1228C29.4164 25.0251 29.4164 24.9274 29.7046 24.732ZM29.6085 25.5136C29.6085 25.4159 29.6085 25.3182 29.6085 25.2205C29.6085 25.2205 29.6085 25.2205 29.7046 25.2205C29.7046 25.3182 29.8006 25.4159 29.8006 25.5136C29.8006 25.5136 29.7045 25.5136 29.6085 25.5136ZM29.7046 39.1909C29.8006 38.9955 29.8006 38.9955 29.9927 39.0932C29.8967 39.2886 29.8006 38.9955 29.7046 39.1909ZM29.9927 40.5586C29.9927 40.3632 29.8967 40.2656 29.8967 40.1679C30.0888 40.1679 30.1848 40.1679 29.9927 40.5586ZM30.1848 17.4049C30.0888 17.3072 30.0887 17.2095 30.0887 17.1118C30.1848 17.1118 30.2808 17.0141 30.2808 17.0141C30.2808 17.2095 30.1848 17.3072 30.1848 17.4049ZM30.4729 33.6223C30.7611 33.6223 30.7611 33.72 30.7611 33.9154C30.665 33.8177 30.569 33.72 30.4729 33.6223ZM31.4334 46.1273H31.3374C31.2413 46.0296 31.3373 45.9319 31.4334 45.8342H31.5294C31.4334 45.9319 31.4334 46.0296 31.4334 46.1273ZM33.6425 23.1689V23.6574C33.5464 23.5597 33.5464 23.3643 33.4503 23.1689C33.4503 23.2666 33.5464 23.1689 33.6425 23.1689ZM32.9701 23.9504H33.2583V24.0481C33.1623 24.0481 33.0662 24.0481 32.9701 24.0481V23.9504ZM32.8741 24.9274C32.9701 25.0251 33.0662 25.0251 33.1622 25.1228C33.1622 25.1228 33.1622 25.1228 33.1622 25.2205C33.0662 25.2205 33.0662 25.2205 32.9701 25.3182C32.8741 25.1228 32.8741 25.0251 32.8741 24.9274ZM32.2978 58.2415C32.2978 58.1438 32.2018 58.1438 32.2018 58.1438C32.2018 58.0461 32.2018 57.9484 32.2018 57.8507H32.2978C32.2978 57.9484 32.3939 58.0461 32.3939 58.1438C32.3939 58.1438 32.2978 58.1438 32.2978 58.2415ZM32.2978 57.1668C32.2978 57.2645 32.2978 57.3622 32.2018 57.4599C32.1057 57.4599 32.1057 57.3622 32.2978 57.1668ZM32.2978 46.4204C32.2978 46.4204 32.2978 46.518 32.3939 46.6157C32.2018 46.7134 32.2018 46.4204 32.1057 46.4204C32.0097 46.225 32.0097 46.1273 31.9136 45.9319C32.1057 45.8342 32.1057 45.6388 32.0097 45.3457C32.1057 45.3457 32.2978 45.5411 32.2018 45.6388C32.2018 45.7365 32.2018 45.7365 32.1057 45.8342C32.1057 45.9319 32.1057 45.9319 32.1057 46.0296C32.1057 45.9319 32.2018 45.9319 32.2018 45.8342C32.2018 45.7365 32.2978 45.7365 32.2978 45.6388C32.3939 46.0296 32.4899 46.225 32.2978 46.4204ZM32.8741 31.3753V31.473C32.778 31.473 32.778 31.473 32.682 31.473C32.5859 31.473 32.586 31.3753 32.586 31.3753C32.586 31.2776 32.586 31.1799 32.586 31.0822C32.586 30.9845 32.5859 30.8868 32.682 30.8868C32.682 30.8868 32.778 30.8868 32.8741 30.9845C32.8741 31.0822 32.778 31.2776 32.8741 31.3753ZM32.9701 30.5937C32.8741 30.5937 32.778 30.6914 32.682 30.5937C32.5859 30.5937 32.5859 30.496 32.4899 30.3983C32.4899 30.3983 32.4899 30.3983 32.586 30.3983L32.682 30.496C32.778 30.3983 32.778 30.3983 32.8741 30.3006C32.8741 30.2029 32.7781 30.1053 32.7781 29.9099C32.9702 29.9099 32.9701 29.9099 32.9701 30.0075C32.9701 30.1052 32.9701 30.1053 32.9701 30.2029C32.9701 30.496 32.9701 30.5937 32.9701 30.5937ZM32.9701 29.5191C32.8741 29.5191 32.8741 29.4214 32.8741 29.3237C32.8741 29.3237 32.8741 29.226 32.9701 29.226H33.0662C33.0662 29.226 33.1622 29.3237 33.1622 29.4214C33.0662 29.4214 32.9701 29.5191 32.9701 29.5191ZM33.0662 24.9274C33.1622 24.732 33.3543 24.732 33.4503 24.6343C33.4503 24.5366 33.3543 24.4389 33.3543 24.3412C33.6425 24.3412 33.5464 24.6343 33.5464 24.6343C33.4504 24.732 33.3543 24.8297 33.2583 24.9274C33.2583 25.0251 33.1622 24.9274 33.0662 24.9274ZM33.5464 30.9845C33.4504 30.9845 33.4504 30.9845 33.5464 30.9845C33.4504 30.8868 33.4504 30.8868 33.3543 30.7891C33.3543 30.7891 33.4504 30.6914 33.5464 30.5937C33.4504 30.7891 33.4504 30.8868 33.5464 30.9845ZM33.3543 41.4379L33.2583 41.3402C33.2583 41.2425 33.2583 41.2425 33.3543 41.0471C33.4504 41.1448 33.4503 41.2425 33.4503 41.2425C33.5464 41.2425 33.5464 41.1448 33.6425 41.1448C33.6425 41.1448 33.6425 41.1448 33.7385 41.2425C33.5464 41.2425 33.4504 41.3402 33.3543 41.4379ZM33.9306 30.8868C33.8345 30.8868 33.8345 30.8868 33.9306 30.8868C33.7385 30.6914 33.7385 30.5937 33.6425 30.496C33.6425 30.496 33.6425 30.3983 33.7385 30.3983H33.8346C33.8346 30.496 33.9306 30.6914 33.9306 30.8868ZM34.0267 24.4389C33.9306 24.5366 33.9306 24.6343 33.8346 24.732C33.8346 24.732 33.8346 24.732 33.7385 24.732C33.7385 24.6343 33.7385 24.4389 33.7385 24.3412C33.7385 24.3412 33.8345 24.2435 33.9306 24.2435C34.0266 24.2435 34.0267 24.3412 34.0267 24.4389ZM35.2753 57.753C35.2753 57.8507 35.1792 57.8507 35.0831 57.8507C35.0831 57.8507 35.0832 57.753 34.9871 57.753C35.0832 57.6553 35.0832 57.6553 35.1792 57.5576C35.2753 57.6553 35.2753 57.753 35.2753 57.753ZM35.9476 34.1108C35.9476 34.1108 35.8515 34.1108 35.8515 34.0131C35.7555 33.8177 35.6594 33.9154 35.5634 33.9154C35.4673 33.9154 35.4673 33.9154 35.3713 33.9154C35.4673 33.8177 35.6594 33.72 35.5634 33.5246C35.5634 33.5246 35.5634 33.4269 35.6595 33.3292C35.6595 33.3292 35.6594 33.3292 35.7555 33.3292C35.7555 33.4269 35.7555 33.4269 35.7555 33.5246C35.7555 33.6223 35.7555 33.8177 35.9476 33.8177C35.9476 34.0131 35.9476 34.0131 35.9476 34.1108ZM36.9081 30.0075C36.812 29.9099 36.812 29.9099 36.716 29.8122C36.716 29.7145 36.812 29.7145 36.812 29.6168C36.812 29.6168 36.812 29.6168 36.9081 29.6168C36.9081 29.7145 36.9081 29.8122 36.9081 30.0075C36.9081 29.9099 36.9081 29.9099 36.9081 30.0075ZM38.925 51.8913C38.829 51.7936 38.829 51.7936 38.7329 51.6959C38.829 51.5982 38.829 51.5982 38.925 51.5005C38.925 51.5982 39.0211 51.6959 39.0211 51.6959C39.0211 51.7936 38.925 51.8913 38.925 51.8913ZM39.5973 40.4609C39.6934 40.4609 39.7895 40.5586 39.7895 40.5586C39.6934 40.6563 39.6934 40.754 39.5973 40.8517V40.4609ZM39.6934 42.3172C39.5973 42.2195 39.5974 42.2195 39.5013 42.1218C39.5974 42.0241 39.5973 42.0241 39.6934 41.9264C39.6934 41.9264 39.6934 41.9264 39.7895 41.9264C39.7895 42.1218 39.7894 42.2195 39.6934 42.3172ZM40.7499 27.0767C40.846 27.0767 40.846 27.0767 40.942 27.1744C40.846 27.2721 40.7499 27.2721 40.6538 27.3698C40.6538 27.1744 40.6539 27.0767 40.7499 27.0767ZM41.5183 49.0581C41.3262 48.9604 41.3262 48.765 41.4223 48.6673C41.5183 48.765 41.5183 48.765 41.6143 48.8627C41.6143 48.9604 41.6143 48.9604 41.5183 49.0581ZM41.9985 50.2305C41.9025 50.2305 41.9025 50.2305 41.9985 50.2305C41.8064 50.0351 41.7104 49.8397 41.9025 49.6443C41.9025 49.742 41.9985 49.742 41.9985 49.8397C41.9985 49.9374 41.9985 50.0351 41.9985 50.2305ZM43.2471 58.5346C43.055 58.4369 42.8629 58.5346 42.7669 58.2415C42.959 58.2415 43.055 58.2415 43.1511 58.1438C43.2471 58.1438 43.3432 58.0461 43.4392 57.9484C43.4392 57.9484 43.5352 57.8507 43.5352 57.9484C43.5352 57.9484 43.6313 58.0461 43.6313 58.1438C43.7274 58.4369 43.4392 58.6323 43.2471 58.5346ZM44.4957 50.1328C44.4957 50.2305 44.3997 50.2305 44.3997 50.3282C44.3997 50.3282 44.3036 50.2305 44.3036 50.1328C44.3997 50.0351 44.3997 50.0351 44.4957 49.9374C44.3997 50.0351 44.4957 50.1328 44.4957 50.1328ZM45.3601 35.6739C45.2641 35.5762 45.2641 35.5762 45.2641 35.5762C45.2641 35.4785 45.3601 35.4785 45.3601 35.4785L45.4562 35.5762C45.4562 35.4785 45.4562 35.5762 45.3601 35.6739ZM45.6483 27.8583L45.5522 27.7606C45.5522 27.6629 45.6483 27.6629 45.6483 27.6629C45.6483 27.6629 45.7443 27.6629 45.7443 27.7606C45.7443 27.6629 45.7443 27.7606 45.6483 27.8583ZM48.1455 33.72C47.9534 33.72 47.8573 33.72 47.7613 33.72C47.7613 33.6223 47.8573 33.5246 47.8573 33.4269H48.0494C48.0494 33.5246 48.0495 33.6223 48.1455 33.72ZM47.7613 32.8407H47.8573C47.9534 32.9384 47.9534 33.1338 47.8573 33.2315C47.6652 33.1338 47.6653 33.0361 47.7613 32.8407ZM47.7613 39.7771C47.9534 39.7771 48.0494 39.7771 48.2415 39.8748V39.9725C48.0494 40.0702 47.8573 39.8748 47.7613 39.7771ZM48.1455 40.4609C48.0495 40.5586 48.0494 40.5586 48.0494 40.5586C47.9534 40.4609 47.8573 40.3632 47.7613 40.2655C47.9534 40.1679 47.9534 40.1679 48.1455 40.4609ZM48.4336 41.3402C48.2415 41.2425 48.1455 41.2425 47.9534 41.1448C47.8574 40.9494 47.8574 40.9494 48.1455 40.8517C48.2416 40.8517 48.2415 40.8517 48.3376 40.8517C48.4336 40.8517 48.4336 40.9494 48.5297 40.9494C48.5297 40.9494 48.4336 41.0471 48.4336 41.1448C48.4336 41.1448 48.4336 41.1448 48.5297 41.2425C48.4336 41.2425 48.4336 41.3402 48.4336 41.3402ZM50.6427 50.6213C50.5466 50.6213 50.4506 50.6213 50.3546 50.6213C50.3546 50.4259 50.4506 50.3282 50.5467 50.4259C50.6427 50.4259 50.6427 50.6213 50.6427 50.6213Z" fill="white"/>
</svg>
