<svg width="47" height="61" viewBox="0 0 47 61" fill="none" xmlns="http://www.w3.org/2000/svg">
<path d="M17.8772 17.2366C18.0987 17.1258 18.3202 17.0151 18.4309 16.7936C18.5416 16.5722 18.7631 16.4614 18.9846 16.3507C19.0953 16.3507 19.206 16.24 19.3168 16.1292C19.5382 15.9078 19.7597 15.6863 19.9811 15.4648C20.2026 15.2434 20.3134 15.1326 20.4241 14.9112C20.5348 14.6897 20.7563 14.4682 21.0885 14.3575C21.1992 14.3575 21.3099 14.2468 21.4207 14.1361C21.6421 13.8039 21.8636 13.4716 22.0851 13.1394C22.3065 12.918 22.528 12.5858 22.7495 12.3643C22.9709 12.1428 23.1924 11.8107 23.1924 11.3677C23.1924 11.257 23.1924 11.1463 23.3031 11.0355C23.3031 10.9248 23.4139 10.8141 23.4139 10.5926C23.4139 10.3711 23.4139 10.2604 23.3031 10.1497C23.1924 10.0389 23.0817 9.81746 23.0817 9.70673C23.0817 9.37453 23.0817 9.04232 22.9709 8.71012C22.8602 8.04572 22.7495 7.49206 22.6387 6.82767C22.6387 6.6062 22.528 6.38474 22.528 6.16328C22.528 5.94181 22.528 5.72035 22.4173 5.60961C22.3065 5.38815 22.3065 5.27741 22.1958 5.05595C22.0851 4.72375 22.0851 4.50228 22.1958 4.17008C22.3065 4.05935 22.3065 3.9486 22.3065 3.72714C22.3065 3.61641 22.3065 3.61641 22.3065 3.50568C22.1958 3.50568 22.0851 3.50568 22.0851 3.50568C22.0851 3.50568 22.0851 3.50568 21.9743 3.50568C21.8636 3.28421 21.8636 3.06275 21.6421 2.84129C21.5314 2.73055 21.5314 2.61982 21.5314 2.50909C21.5314 2.28762 21.5314 1.95542 21.4207 1.73396C21.4207 1.62322 21.4207 1.40175 21.3099 1.29102C21.1992 1.29102 21.1992 1.29102 21.0885 1.29102C20.9777 1.29102 20.867 1.29102 20.7563 1.40176C20.6455 1.51249 20.6455 1.73396 20.4241 1.73396C20.3134 1.73396 20.3133 1.84469 20.3133 1.95542C20.2026 2.28762 20.0919 2.50909 20.0919 2.84129C20.0919 3.17349 19.8704 3.50568 19.7597 3.83788C19.7597 3.94861 19.649 3.94861 19.649 4.05934C19.5382 4.28081 19.4275 4.50227 19.206 4.61301C18.8738 4.9452 18.4309 5.16667 18.0987 5.49887C17.7665 5.72034 17.545 5.9418 17.2128 6.274C16.9914 6.49547 16.7699 6.71693 16.5484 7.04913C16.5484 7.04913 16.4377 7.04913 16.4377 7.15987C16.1055 7.49207 15.884 7.82426 15.5518 8.15646C15.3304 8.37792 15.2196 8.59939 14.9982 8.71012C14.7767 9.04232 14.4445 9.26379 14.1123 9.59599C14.0016 9.70672 14.0016 9.70672 13.8908 9.81745C13.8908 9.92819 14.0016 9.9282 14.0016 10.0389C14.1123 10.1497 14.1123 10.1497 14.223 10.2604C14.1123 10.4819 13.8908 10.5926 13.6694 10.8141C13.5586 10.8141 13.4479 10.7033 13.4479 10.7033H13.3372C13.1157 10.8141 12.8942 11.0355 12.7835 11.257C12.6728 11.3677 12.562 11.4785 12.4513 11.5892C12.2298 11.6999 12.0084 11.8106 11.8976 12.0321C11.6762 12.3643 11.4547 12.5858 11.1225 12.8073C10.7903 13.0287 10.5688 13.3609 10.2366 13.5824C10.1259 13.6931 10.1259 13.6931 10.0152 13.6931C9.90445 13.5824 10.0152 13.5824 10.0152 13.4716C10.0152 13.3609 10.1259 13.3609 10.1259 13.2502C10.1259 13.1395 10.2366 13.1395 10.2366 13.0287C10.2366 12.918 10.3474 12.918 10.3474 12.918C10.3474 12.8072 10.4581 12.8073 10.4581 12.6965C10.4581 12.5858 10.5688 12.5858 10.5688 12.4751C10.4581 12.3643 10.3474 12.475 10.3474 12.5858C10.1259 12.8072 9.90445 13.1395 9.68298 13.3609C9.57225 13.4717 9.35079 13.6931 9.24005 13.8038C9.01859 13.9146 8.90785 14.136 8.68639 14.3575C8.35419 14.6897 8.13272 14.9112 7.80052 15.2434C7.68979 15.3541 7.57906 15.4648 7.57906 15.6863C7.57906 15.797 7.57906 15.9078 7.46832 15.9078C7.35759 16.0185 7.24686 16.1292 7.24686 16.24V16.3507H7.35759H7.46832C7.80052 16.1292 8.24346 16.0185 8.68639 15.9078C9.12932 15.797 9.57225 15.5756 9.90445 15.3541C10.2366 15.1326 10.4581 14.9112 10.7903 14.8004C10.901 14.6897 11.0118 14.6897 11.1225 14.6897H11.2332C11.0118 15.0219 10.6796 15.3541 10.4581 15.5756C10.2366 15.797 9.90445 16.0185 9.68298 16.3507C9.46152 16.6829 9.12932 17.0151 8.79712 17.3473C8.46492 17.6795 8.24345 18.0117 7.91126 18.3439C7.68979 18.6761 7.35759 19.0083 7.02539 19.3405C6.80393 19.562 6.58246 19.6727 6.36099 19.8942C6.25026 20.0049 6.13953 20.1156 6.0288 20.3371C5.91806 20.78 5.6966 21.1122 5.3644 21.4444C5.25367 21.5552 5.14293 21.7766 5.14293 21.8874C5.0322 22.3303 4.81073 22.6625 4.58927 23.1054C4.47853 23.4376 4.3678 23.6591 4.14634 23.9913C3.81414 24.5449 3.7034 25.0986 3.3712 25.5416C3.26047 25.763 3.14974 25.9845 3.03901 26.2059C2.92827 26.4274 2.81754 26.6489 2.70681 26.9811C2.59607 27.3133 2.48534 27.6455 2.26387 27.9777C2.26387 28.0884 2.15314 28.1991 2.15314 28.3099C2.04241 28.4206 2.04241 28.6421 1.93168 28.7528C1.59948 29.1957 1.48874 29.7494 1.37801 30.1923C1.26728 30.5245 1.15654 30.8567 1.04581 31.1889C0.935078 31.5211 0.824345 31.8533 0.713612 32.1855C0.713612 32.2963 0.60288 32.5177 0.60288 32.6285C0.60288 32.7392 0.492146 32.8499 0.492146 32.9607C0.492146 33.1821 0.381413 33.4036 0.27068 33.5143C0.159947 33.6251 0.159947 33.7358 0.159947 33.9572C0.159947 34.2894 0.159947 34.5109 0.159947 34.8431C0.159947 35.1753 0.159948 35.3968 0.0492147 35.729C0.0492147 35.8397 -0.0615183 35.9504 0.0492147 35.9504C0.270681 35.8397 0.159947 35.6183 0.27068 35.5075L0.381414 35.6182C0.492147 35.6182 0.492147 35.5075 0.60288 35.5075C0.713613 35.3968 0.935079 35.1753 1.15654 35.0646C1.26728 35.0646 1.26728 34.9538 1.37801 34.8431C1.48874 34.6217 1.71021 34.4002 1.93168 34.1787C2.26387 33.8465 2.48534 33.5143 2.70681 33.1821C2.81754 32.9607 3.03901 32.7392 3.14974 32.5177C3.26047 32.407 3.3712 32.2963 3.59267 32.407C3.59267 32.5177 3.7034 32.6285 3.7034 32.7392C3.7034 32.9607 3.7034 33.0714 3.59267 33.2929C3.48194 33.4036 3.3712 33.5143 3.3712 33.7358C3.3712 34.068 3.3712 34.5109 3.3712 34.8431C3.3712 35.0646 3.3712 35.1753 3.3712 35.3968C3.3712 35.5075 3.3712 35.6183 3.3712 35.729C3.26047 36.1719 3.26047 36.6148 3.26047 37.0578C3.26047 37.39 3.26047 37.6114 3.26047 37.9436V38.0544C3.3712 38.3866 3.3712 38.7188 3.48194 38.9402C3.48194 39.1617 3.48194 39.3832 3.59267 39.6046C3.7034 39.9368 3.7034 40.1583 3.7034 40.4905C3.7034 40.6012 3.7034 40.712 3.81414 40.712C3.92487 41.0442 4.0356 41.3764 4.14634 41.7086C4.14634 41.93 4.14633 42.1515 4.0356 42.373C3.92487 42.4837 3.92487 42.7052 3.92487 42.8159C4.0356 43.1481 4.0356 43.3696 4.14634 43.7018C4.14634 43.8125 4.14634 43.9232 4.14634 44.034C4.0356 44.4769 4.14633 44.9198 4.58927 45.252C4.81073 45.4735 4.92147 45.9164 4.81073 46.2486C4.81073 46.3594 4.7 46.3593 4.7 46.4701C4.58927 46.5808 4.58927 46.8023 4.58927 46.913C4.7 47.1345 4.7 47.2452 4.81073 47.4667C4.92147 47.6881 4.92146 47.7989 5.0322 48.0203C5.14293 48.3525 5.25367 48.574 5.3644 48.9062C5.47513 49.2384 5.6966 49.4599 6.13953 49.3491C6.36099 49.3491 6.47173 49.2384 6.47173 49.1277C6.47173 49.0169 6.47173 48.9062 6.47173 48.7955C6.47173 48.574 6.47173 48.3525 6.47173 48.1311C6.47173 48.0203 6.47173 47.9096 6.47173 47.9096C6.361 47.4667 6.47173 46.913 6.58246 46.4701C6.58246 46.1379 6.69319 45.9164 6.80393 45.695C6.91466 45.5842 6.91466 45.3627 7.02539 45.252C7.13613 44.8091 7.24686 44.3662 7.35759 44.034C7.46832 43.7018 7.57906 43.3696 7.80052 43.0374C7.80052 42.9266 7.91126 42.8159 8.02199 42.7052C8.13272 42.5944 8.24345 42.5944 8.35419 42.7052C8.57565 42.9266 8.79712 43.1481 8.90785 43.3696C9.01859 43.591 9.01859 43.8125 9.01859 44.1447C8.90785 44.3661 9.01859 44.6984 9.12932 44.9198C9.35078 45.3628 9.46152 45.6949 9.68298 46.1379C9.79372 46.3593 9.79372 46.4701 9.90445 46.6915C9.90445 46.913 10.0152 47.1345 10.1259 47.3559C10.3474 47.6881 10.5688 48.1311 10.7903 48.4633C10.901 48.574 10.901 48.6847 10.901 48.9062V49.0169C10.901 49.2384 11.4547 50.3457 11.5654 50.4565L11.6762 50.5672C11.8976 51.1209 12.3406 51.3423 12.7835 51.6745C12.8942 51.6745 12.8942 51.7853 13.005 51.7853C13.4479 52.2282 13.8908 52.4497 14.4445 52.7819C14.666 52.8926 14.8874 53.1141 15.1089 53.2248C15.4411 53.557 15.7733 53.7785 16.2162 53.9999C16.327 54.1107 16.4377 54.2214 16.5484 54.3321C16.7699 54.4429 16.8806 54.6643 17.1021 54.7751L17.2128 54.8858C17.4343 55.218 17.6558 55.3287 17.988 55.5502C18.0987 55.5502 18.0987 55.6609 18.2094 55.6609C18.5416 55.9931 18.8738 56.3253 19.206 56.7683C19.5382 57.1005 19.7597 57.4326 20.0919 57.7648C20.2026 57.8756 20.3134 57.9863 20.4241 58.2078C20.5348 58.3185 20.6455 58.54 20.7563 58.6507C20.867 58.7614 20.867 58.7614 20.867 58.8722C20.9777 59.0936 21.1992 59.3151 21.4207 59.5366C21.5314 59.6473 21.6421 59.6473 21.6421 59.6473C21.8636 59.6473 21.9743 59.758 22.0851 59.9795C22.1958 60.201 22.3065 60.201 22.528 60.0902C22.7495 59.9795 22.9709 59.9795 23.0817 59.758C23.0817 59.758 23.1924 59.6473 23.3031 59.6473C23.3031 59.5366 23.3031 59.3151 23.1924 59.2044C22.8602 58.54 22.6387 57.8756 22.0851 57.3219C21.8636 56.9897 21.6421 56.6575 21.5314 56.2146C21.4207 55.8824 21.3099 55.5502 21.0885 55.218C20.9777 54.9965 20.867 54.7751 20.7563 54.5536C20.6455 54.3321 20.6455 54.1107 20.5348 53.8892C20.3133 53.2248 20.2026 52.5604 20.0919 51.896C20.0919 51.7853 20.0919 51.5638 20.0919 51.4531C20.0919 51.2316 20.0919 51.1209 19.8704 50.8994C19.7597 50.7887 19.7597 50.6779 19.7597 50.4565C19.7597 50.0135 19.649 49.6813 19.5382 49.2384C19.5382 49.1277 19.5382 49.0169 19.5382 48.9062C19.5382 48.574 19.5382 48.2418 19.4275 47.9096C19.3168 47.4667 19.3168 46.913 19.3168 46.4701C19.3168 46.3593 19.3168 46.1379 19.3168 46.0272C19.206 45.252 19.0953 44.4769 18.9846 43.7018C18.9846 43.591 18.9846 43.591 18.9846 43.4803C18.9846 43.3696 18.8738 43.2588 18.6524 43.1481C18.3202 43.1481 18.2094 42.9266 18.0987 42.7052C17.988 42.4837 17.8772 42.373 17.7665 42.2622C17.545 42.1515 17.4343 42.0408 17.3236 41.7086C17.3236 41.7086 17.3236 41.5978 17.2128 41.5978C17.1021 41.5978 16.9914 41.5978 16.8806 41.5978C16.7699 41.4871 16.6592 41.3764 16.7699 41.2656C16.5484 41.2656 16.327 41.1549 16.2162 41.0442C15.884 40.8227 15.5518 40.712 15.1089 40.6012C14.9982 40.6012 14.8874 40.4905 14.7767 40.3798C14.5552 40.0476 14.3338 39.8261 14.1123 39.3832C14.1123 39.3832 14.1123 39.3832 14.1123 39.2724C13.6694 38.7188 13.4479 37.9436 13.1157 37.39C13.005 37.2792 13.005 37.0578 12.8942 36.8363C12.7835 36.5041 12.6728 36.1719 12.4513 35.8397C12.3406 35.6182 12.2298 35.3968 12.1191 35.286C12.0084 35.0646 11.8976 34.8431 11.6762 34.6217C11.5654 34.4002 11.4547 34.1787 11.344 33.9572C11.2332 33.7358 11.1225 33.625 11.0118 33.4036C10.901 33.1821 10.6796 33.0714 10.5688 32.8499C10.4581 32.7392 10.3474 32.5177 10.2366 32.407C10.0152 32.1855 9.90445 31.9641 10.0152 31.6319C10.0152 31.4104 10.0152 31.1889 10.0152 30.9675C10.0152 30.8567 10.0152 30.746 10.1259 30.6353C10.2366 30.4138 10.3474 30.1923 10.4581 29.8601C10.5688 29.5279 10.6796 29.1957 10.7903 28.8635C10.901 28.3099 10.901 27.7562 11.0118 27.2025C11.0118 26.8703 11.0118 26.6489 11.1225 26.3167C11.1225 26.0952 11.1225 25.9845 11.1225 25.8737C11.0118 25.763 11.1225 25.6523 11.1225 25.4308C11.2332 25.3201 11.344 25.2093 11.4547 25.0986C11.4547 24.9879 11.5654 24.9879 11.5654 24.9879C11.6762 24.7664 11.7869 24.6557 12.0084 24.6557C12.1191 24.6557 12.1191 24.545 12.2298 24.4342C12.3406 24.102 12.4513 23.8806 12.4513 23.5484C12.4513 23.3269 12.562 23.1054 12.6728 22.8839C12.7835 22.6625 12.8942 22.441 13.1157 22.2196C13.4479 21.8874 13.6694 21.5552 14.0016 21.223C14.1123 21.1122 14.223 21.0015 14.3338 20.8908C14.4445 20.78 14.5552 20.78 14.5552 20.6693C14.8874 20.2264 15.2196 19.7834 15.5518 19.3405C15.6626 19.2298 15.7733 19.119 15.884 19.119C16.1055 19.0083 16.2162 18.8976 16.327 18.6761C16.5484 18.2332 16.8806 17.901 17.1021 17.458C17.8772 17.5688 17.988 17.3473 17.8772 17.2366V17.1258C17.988 17.1258 17.8772 17.2366 17.8772 17.2366ZM17.988 51.3423C17.988 51.4531 17.988 51.5638 17.988 51.5638C17.988 51.6745 17.988 51.7853 18.0987 51.896C18.0987 52.0067 18.2094 52.0067 18.3202 51.896C18.4309 51.7853 18.4309 51.6745 18.4309 51.5638C18.4309 51.4531 18.5416 51.4531 18.6524 51.5638L18.7631 51.6745C18.8738 51.896 18.8738 52.1175 18.8738 52.3389C18.8738 52.5604 18.8738 52.6711 18.6524 52.7819C18.5416 52.7819 18.4309 52.6711 18.2094 52.6711C18.2094 52.6711 18.0987 52.6711 18.0987 52.5604C17.7665 52.2282 17.545 51.7853 17.545 51.3423C17.545 51.2316 17.545 51.0101 17.545 50.8994C17.545 50.7887 17.545 50.7887 17.545 50.6779C17.6558 50.7887 17.6558 50.7887 17.7665 50.8994C17.8772 51.0101 17.8772 51.2316 17.988 51.3423ZM3.92487 30.1923C3.81414 30.0816 3.81414 29.8601 3.81414 29.6387C3.81414 29.4172 3.92487 29.1957 4.14634 29.085C4.14634 29.085 4.14634 29.085 4.25707 29.085C4.3678 29.085 4.47853 29.1957 4.47853 29.1957C4.47853 29.3065 4.47853 29.3065 4.3678 29.4172C4.25707 29.5279 4.25707 29.6387 4.25707 29.8601C4.25707 29.9709 4.14633 30.0816 3.92487 30.1923ZM7.24686 25.5416L7.13613 25.4308V25.3201C7.13613 25.0986 7.24686 24.8771 7.35759 24.7664C7.35759 24.7664 7.46833 24.7664 7.57906 24.7664L7.68979 24.8771C7.46833 25.2093 7.46832 25.4308 7.24686 25.5416ZM11.1225 14.3575C11.2332 14.0253 11.4547 13.9146 11.7869 13.6931H11.8976L11.8976 13.8038C11.7869 14.136 11.5654 14.3575 11.1225 14.3575C11.2332 14.4682 11.2332 14.3575 11.1225 14.3575ZM12.0084 24.102V23.9913C12.2298 23.7698 12.3406 23.5484 12.562 23.2162H12.6728V23.3269C12.4513 23.6591 12.3406 23.8806 12.0084 24.102C12.1191 24.102 12.1191 24.102 12.0084 24.102ZM10.6796 42.1515C10.7903 42.1515 10.7903 42.1515 10.6796 42.1515C11.0118 42.373 11.1225 42.5944 11.1225 42.8159V42.9266H11.0118C10.901 42.7052 10.7903 42.4837 10.6796 42.1515ZM6.80393 26.0952C6.80393 25.9845 6.80393 25.8737 6.91466 25.763H7.02539V25.8737C7.02539 25.9845 7.02539 26.0952 6.80393 26.0952ZM11.4547 37.1685C11.6762 37.2793 11.6762 37.2792 11.6762 37.6114C11.4547 37.5007 11.4547 37.5007 11.4547 37.1685ZM5.47513 45.0305C5.3644 45.0305 5.3644 44.9198 5.3644 44.8091H5.47513C5.47513 44.8091 5.47513 44.9198 5.47513 45.0305C5.47513 44.9198 5.47513 44.9198 5.47513 45.0305ZM19.8704 5.27741C19.9812 5.05594 19.9812 5.05595 20.0919 5.05595C20.2026 5.16668 20.0919 5.27741 19.8704 5.27741ZM18.5416 51.0101C18.4309 50.8994 18.4309 50.7887 18.5416 50.7887C18.6524 50.7887 18.6524 50.8994 18.5416 51.0101ZM10.1259 41.0442C10.2366 41.0442 10.3474 41.1549 10.3474 41.2656H10.2366C10.1259 41.2656 10.1259 41.2656 10.1259 41.0442ZM22.6387 58.6507C22.528 58.7614 22.528 58.7614 22.6387 58.6507C22.528 58.6507 22.528 58.6507 22.528 58.6507C22.4173 58.6507 22.528 58.6507 22.6387 58.6507C22.528 58.6507 22.528 58.6507 22.6387 58.6507ZM16.9914 43.7018C16.8806 43.7018 16.8806 43.591 16.8806 43.4803C16.9914 43.4803 17.1021 43.591 16.9914 43.7018ZM16.6592 41.7086C16.7699 41.7086 16.7699 41.8193 16.8806 41.8193C16.8806 41.8193 16.9914 41.8193 16.8806 41.93C16.7699 41.8193 16.6592 41.8193 16.6592 41.7086ZM21.4207 3.17347C21.3099 3.17347 21.3099 3.06275 21.3099 3.06275C21.3099 3.06275 21.3099 3.06275 21.4207 3.06275C21.5314 3.06275 21.5314 3.17347 21.4207 3.17347ZM18.6524 50.235C18.6524 50.1243 18.6524 50.1243 18.6524 50.1243V50.235ZM17.8772 45.1413C17.7665 45.252 17.7665 45.1413 17.6558 45.1413V45.0305C17.8772 45.0305 17.8772 45.0306 17.8772 45.1413ZM10.5688 41.8193C10.4581 41.7086 10.4581 41.7086 10.5688 41.8193C10.5688 41.7086 10.5688 41.7086 10.5688 41.8193Z" fill="white"/>
<path d="M29.8363 43.3693C29.6148 43.4801 29.3934 43.7015 29.2826 43.8123C29.1719 44.0337 28.9504 44.1445 28.8397 44.2552C28.729 44.2552 28.6182 44.3659 28.5075 44.4767C28.286 44.6981 28.0646 44.9196 27.8431 45.1411C27.6216 45.3625 27.5109 45.4733 27.4002 45.6947C27.2894 46.0269 27.068 46.1377 26.7358 46.2484C26.625 46.2484 26.5143 46.3591 26.4036 46.4699C26.1821 46.8021 25.9606 47.1343 25.7392 47.4664C25.5177 47.6879 25.2962 48.0201 25.0748 48.2416C24.8533 48.4631 24.6318 48.906 24.6318 49.2382C24.6318 49.3489 24.6318 49.4597 24.5211 49.5704C24.5211 49.6811 24.4104 49.7918 24.4104 50.0133C24.4104 50.2348 24.4104 50.3455 24.5211 50.4563C24.6318 50.567 24.7426 50.7884 24.7426 50.8992C24.7426 51.2314 24.7426 51.5636 24.8533 51.8958C24.964 52.5602 25.0748 53.1138 25.1855 53.7782C25.1855 53.9997 25.2962 54.2212 25.2962 54.4426C25.2962 54.6641 25.2962 54.8856 25.407 54.9963C25.5177 55.2178 25.5177 55.3285 25.6284 55.55C25.7392 55.8822 25.7392 56.1036 25.6284 56.4358C25.5177 56.5466 25.5177 56.6573 25.5177 56.8788C25.5177 56.9895 25.5177 56.9895 25.5177 57.1002C25.6284 57.1002 25.7392 57.1002 25.7392 57.1002C25.7392 57.1002 25.7392 57.1002 25.8499 57.1002C25.9606 57.3217 25.9606 57.5432 26.1821 57.7646C26.2928 57.8754 26.2928 57.9861 26.2928 58.0968C26.2928 58.3183 26.2928 58.6505 26.4036 58.872C26.4036 58.9827 26.4036 59.2042 26.5143 59.3149C26.625 59.3149 26.625 59.3149 26.7358 59.3149C26.8465 59.3149 26.9572 59.2041 27.068 59.0934C27.1787 58.9827 27.1787 58.7612 27.4002 58.7612C27.5109 58.7612 27.5109 58.6505 27.5109 58.5397C27.6216 58.2076 27.7324 57.9861 27.7324 57.6539C27.7324 57.3217 27.9538 56.9895 28.0646 56.6573C28.0646 56.5466 28.1753 56.5466 28.1753 56.4358C28.286 56.2144 28.3968 55.9929 28.6182 55.8822C28.9504 55.55 29.3934 55.3285 29.7256 54.9963C30.0577 54.7748 30.2792 54.4426 30.5007 54.2212C30.7221 53.9997 30.9436 53.7782 31.1651 53.446C31.1651 53.446 31.1651 53.446 31.2758 53.3353C31.608 53.0031 31.8295 52.6709 32.1617 52.228C32.3831 52.0065 32.4939 51.785 32.7153 51.6743C32.9368 51.3421 33.269 51.1206 33.4905 50.7884C33.6012 50.6777 33.6012 50.6777 33.7119 50.567C33.7119 50.4562 33.6012 50.4562 33.6012 50.3455C33.4905 50.2348 33.4905 50.2348 33.3797 50.1241C33.4905 49.9026 33.7119 49.7919 33.9334 49.5704C34.0441 49.5704 34.1549 49.6811 34.1549 49.6811H34.2656C34.4871 49.4596 34.7085 49.3489 34.8193 49.1274C34.93 49.0167 35.0407 48.906 35.1515 48.7953C35.3729 48.6845 35.5944 48.5738 35.7051 48.3523C35.9266 48.0201 36.1481 47.7987 36.4803 47.5772C36.8125 47.3557 37.0339 47.0235 37.3661 46.8021C37.4769 46.6913 37.4769 46.6913 37.5876 46.5806C37.6983 46.6913 37.5876 46.6913 37.5876 46.8021C37.5876 46.9128 37.4769 46.9128 37.4769 47.0235C37.4769 47.1343 37.3661 47.1343 37.3661 47.245C37.3661 47.3557 37.2554 47.3557 37.2554 47.4664C37.2554 47.5772 37.1447 47.5772 37.1447 47.6879C37.1447 47.7987 37.0339 47.7987 37.0339 47.9094C37.1447 48.0201 37.2554 47.9094 37.2554 47.7987C37.4769 47.5772 37.6983 47.245 37.9198 47.0235C38.0305 46.9128 38.252 46.6913 38.3627 46.5806C38.5842 46.4699 38.6949 46.2484 38.9164 46.0269C39.2486 45.6947 39.4701 45.4733 39.8023 45.1411C39.913 45.0303 40.0237 44.9196 40.0237 44.6981C40.0237 44.5874 40.0237 44.4767 40.1345 44.4767C40.2452 44.3659 40.3559 44.2552 40.3559 44.1445V44.0337H40.2452H40.1345C39.8023 44.2552 39.3593 44.3659 38.9164 44.4767C38.4735 44.5874 38.0305 44.8089 37.6983 45.0303C37.3661 45.2518 37.1447 45.4733 36.8125 45.584C36.7017 45.6947 36.591 45.6947 36.4803 45.6947H36.3695C36.591 45.3625 36.9232 45.0303 37.1447 44.8089C37.3661 44.5874 37.6983 44.3659 37.8091 44.0337C38.0305 43.7015 38.3627 43.3693 38.6949 43.0371C39.0271 42.7049 39.2486 42.3727 39.4701 41.9298C39.6915 41.5976 40.0237 41.2654 40.2452 40.9332C40.4667 40.7117 40.6881 40.4903 40.9096 40.3795C41.0203 40.2688 41.1311 40.1581 41.2418 39.9366C41.3525 39.4937 41.574 39.1615 41.9062 38.8293C42.0169 38.7186 42.1276 38.4971 42.1276 38.3863C42.2384 37.9434 42.4598 37.6112 42.6813 37.1683C42.792 36.8361 42.9028 36.6146 43.0135 36.2824C43.235 35.7288 43.4564 35.1751 43.6779 34.6214C43.7886 34.4 43.8994 34.1785 44.0101 33.957C44.1208 33.7356 44.2316 33.5141 44.3423 33.1819C44.453 32.8497 44.5638 32.5175 44.7852 32.1853C44.7852 32.0746 44.896 31.9638 44.896 31.8531C45.0067 31.7424 45.0067 31.5209 45.1174 31.4102C45.4496 30.9672 45.5604 30.4136 45.6711 29.8599C45.7818 29.5277 45.8926 29.1955 46.0033 28.8633C46.114 28.5311 46.2248 28.1989 46.3355 27.8667C46.3355 27.756 46.4462 27.5345 46.4462 27.4238C46.4462 27.3131 46.557 27.2023 46.557 27.0916C46.557 26.8701 46.6677 26.6487 46.7784 26.5379C46.8892 26.4272 46.8892 26.3165 46.8892 26.095C46.8892 25.7628 46.8892 25.5413 46.8892 25.2091C46.8892 24.8769 46.8892 24.6555 46.9999 24.3233C46.9999 24.2125 46.9999 24.1018 46.9999 24.1018C46.7784 24.2125 46.8892 24.434 46.7784 24.5447L46.6677 24.434C46.6677 24.434 46.557 24.5447 46.4462 24.5447C46.3355 24.6555 46.114 24.8769 45.8926 24.9877C45.7818 24.9877 45.7818 25.0984 45.6711 25.2091C45.5604 25.4306 45.3389 25.652 45.1174 25.8735C44.7852 26.2057 44.5638 26.5379 44.3423 26.8701C44.2316 27.0916 44.1208 27.313 43.8994 27.5345C43.7886 27.6452 43.6779 27.756 43.4564 27.6452C43.4564 27.5345 43.3457 27.4238 43.3457 27.313C43.3457 27.0916 43.3457 26.9808 43.4564 26.7594C43.5672 26.6486 43.6779 26.5379 43.6779 26.3165C43.6779 25.9843 43.6779 25.5413 43.6779 25.2091C43.6779 24.9877 43.6779 24.8769 43.6779 24.6555C43.6779 24.5447 43.6779 24.434 43.6779 24.3233C43.7886 23.8803 43.6779 23.4374 43.7886 22.9945C43.7886 22.6623 43.7886 22.4408 43.7886 22.1086V21.9979C43.6779 21.6657 43.6779 21.3335 43.5672 21.112C43.5672 20.8905 43.4564 20.6691 43.4564 20.4476C43.3457 20.1154 43.3457 19.8939 43.3457 19.5617C43.3457 19.451 43.3457 19.3403 43.235 19.3403C43.1242 19.0081 43.0135 18.6759 42.9028 18.3437C42.792 18.1222 42.9028 17.9007 43.0135 17.6793C43.1242 17.5685 43.1242 17.3471 43.0135 17.2364C42.9028 16.9042 42.9028 16.6827 42.792 16.3505C42.792 16.2398 42.792 16.129 42.792 16.0183C42.9028 15.5754 42.792 15.1324 42.3491 14.8002C42.1276 14.5787 42.0169 14.1358 42.1276 13.8036C42.1276 13.6929 42.2384 13.6929 42.2384 13.5822C42.3491 13.4714 42.3491 13.25 42.2384 13.1392C42.1276 12.9178 42.1276 12.807 42.0169 12.5856C41.9062 12.3641 41.9062 12.2534 41.7955 12.0319C41.6847 11.6997 41.574 11.4782 41.4633 11.146C41.3525 10.8138 41.1311 10.5924 40.6881 10.7031C40.4667 10.7031 40.3559 10.8138 40.3559 10.9246C40.3559 11.0353 40.3559 11.146 40.3559 11.2568C40.3559 11.4782 40.3559 11.6997 40.3559 11.9212C40.3559 12.0319 40.3559 12.1426 40.3559 12.1426C40.4667 12.5856 40.3559 13.1392 40.3559 13.5822C40.3559 13.9144 40.2452 14.1358 40.1345 14.3573C40.0237 14.468 40.0237 14.6895 40.0237 14.8002C39.913 15.2431 39.8023 15.6861 39.6915 16.0183C39.5808 16.3505 39.4701 16.6827 39.3593 17.0149C39.3593 17.1256 39.2486 17.2363 39.1379 17.3471C39.0271 17.4578 38.9164 17.4578 38.8057 17.3471C38.5842 17.1256 38.3627 17.0149 38.252 16.6827C38.1413 16.4612 38.1413 16.2397 38.1413 15.9075C38.252 15.6861 38.1413 15.3539 38.0305 15.1324C37.8091 14.6895 37.6983 14.3573 37.4769 13.9144C37.3661 13.6929 37.3661 13.5822 37.2554 13.3607C37.2554 13.1392 37.1447 12.9178 37.0339 12.6963C36.8125 12.3641 36.591 11.9212 36.3695 11.589C36.2588 11.4782 36.2588 11.3675 36.2588 11.146V11.0353C36.2588 10.8138 35.7051 9.7065 35.5944 9.59577L35.4837 9.48504C35.2622 8.93138 34.8193 8.70991 34.3763 8.37771C34.2656 8.37771 34.2656 8.26697 34.1549 8.26697C33.7119 7.82404 33.269 7.60258 32.7153 7.27038C32.4939 7.15965 32.2724 6.93817 32.0509 6.82744C31.7187 6.60598 31.2758 6.27378 30.9436 6.05231C30.8329 5.94158 30.7222 5.83084 30.6114 5.72011C30.39 5.60938 30.2792 5.49865 30.0578 5.27719L29.947 5.16645C29.7256 4.83425 29.5041 4.72353 29.1719 4.50206C29.0612 4.50206 29.0612 4.39132 28.9504 4.39132C28.6182 4.05912 28.286 3.72693 27.9538 3.39473C27.6216 3.06253 27.4002 2.73032 27.068 2.39812C26.9572 2.28739 26.8465 2.17666 26.7358 1.9552C26.625 1.84446 26.5143 1.62299 26.4036 1.51225C26.2928 1.40152 26.2928 1.40153 26.1821 1.29079C26.0714 1.06933 25.8499 0.84787 25.6284 0.626404C25.5177 0.515671 25.407 0.515664 25.407 0.515664C25.1855 0.515664 25.0748 0.404928 24.964 0.183462C24.8533 -0.0380039 24.7426 -0.0379938 24.5211 0.0727392C24.2996 0.183472 24.0782 0.183465 23.9674 0.515664C23.9674 0.515664 23.8567 0.626404 23.746 0.626404C23.746 0.737137 23.746 0.958596 23.8567 1.06933C24.1889 1.73373 24.5211 2.39812 24.964 2.95179C25.1855 3.28399 25.407 3.61618 25.5177 4.05912C25.6284 4.39132 25.7392 4.72352 25.9606 5.05572C26.0714 5.27719 26.1821 5.49865 26.2928 5.72011C26.4036 5.94158 26.4036 6.16305 26.5143 6.38452C26.7358 7.04891 26.9572 7.60258 26.9572 8.37771C26.9572 8.48845 26.9572 8.70991 26.9572 8.82064C26.9572 9.0421 26.9572 9.15284 27.1787 9.3743C27.2894 9.48504 27.2894 9.59576 27.2894 9.81723C27.2894 10.2602 27.4002 10.5924 27.5109 11.0353C27.5109 11.146 27.5109 11.2568 27.5109 11.3675C27.5109 11.6997 27.5109 12.0319 27.6216 12.3641C27.7324 12.807 27.7324 13.3607 27.7324 13.8036C27.7324 13.9144 27.7324 14.1358 27.7324 14.2465C27.8431 15.0217 27.9538 15.7968 28.1753 16.5719C28.1753 16.6827 28.1753 16.6827 28.286 16.7934C28.286 16.9041 28.3968 17.0149 28.6182 17.0149C28.9504 17.0149 29.0612 17.2364 29.1719 17.4578C29.2826 17.6793 29.3934 17.79 29.5041 17.9007C29.7256 18.0115 29.8363 18.1222 29.947 18.4544C29.947 18.4544 29.947 18.5651 30.0578 18.5651C30.1685 18.5651 30.2792 18.5651 30.39 18.5651C30.5007 18.6759 30.6114 18.7866 30.6114 18.8973C30.8329 18.8973 31.0544 19.0081 31.1651 19.1188C31.4973 19.3403 31.8295 19.451 32.2724 19.5617C32.3831 19.5617 32.4939 19.6725 32.6046 19.7832C32.8261 20.1154 33.0475 20.3369 33.269 20.7798C33.269 20.7798 33.269 20.7798 33.269 20.8905C33.7119 21.4442 33.9334 22.1086 34.2656 22.773C34.3763 22.8837 34.3763 23.1052 34.4871 23.2159C34.5978 23.5481 34.7085 23.8803 34.93 24.2125C35.0407 24.434 35.1515 24.5447 35.2622 24.7662C35.3729 24.9876 35.4837 25.2091 35.7051 25.4306C35.8159 25.6521 35.9266 25.8735 36.0373 26.095C36.1481 26.3165 36.2588 26.4272 36.3695 26.6487C36.4803 26.8701 36.7017 26.9809 36.8125 27.2023C36.9232 27.3131 37.0339 27.5345 37.1447 27.6452C37.3661 27.8667 37.4769 28.0882 37.3661 28.4204C37.3661 28.6418 37.3661 28.8633 37.3661 29.0848C37.3661 29.1955 37.3661 29.3062 37.2554 29.417C37.1447 29.6384 37.0339 29.9706 36.9232 30.1921C36.8125 30.5243 36.7017 30.8565 36.591 31.1887C36.4803 31.7424 36.4803 32.296 36.3695 32.8497C36.3695 33.1819 36.3695 33.4034 36.2588 33.7356C36.2588 33.957 36.2588 34.0678 36.2588 34.1785C36.3695 34.2892 36.2588 34.4 36.2588 34.6214C36.1481 34.7322 36.0373 34.8429 35.9266 34.9536C35.9266 35.0644 35.8159 35.0644 35.8159 35.0644C35.7051 35.2858 35.5944 35.3966 35.3729 35.3966C35.2622 35.3966 35.2622 35.5073 35.1515 35.618C35.0407 35.9502 34.93 36.1717 34.93 36.5039C34.93 36.7254 34.8193 36.9468 34.8193 37.1683C34.7085 37.3898 34.5978 37.6112 34.3763 37.8327C34.0441 38.1649 33.8227 38.4971 33.6012 38.8293C33.4905 38.94 33.3797 39.0507 33.269 39.1615C33.1583 39.2722 33.0475 39.2722 33.0475 39.383C32.7153 39.8259 32.3831 40.2688 32.0509 40.7117C31.9402 40.8225 31.8295 40.9332 31.7187 40.9332C31.4973 41.0439 31.3865 41.1547 31.2758 41.3761C31.0543 41.8191 30.8329 42.262 30.5007 42.5942C29.8363 43.1479 29.8363 43.2586 29.8363 43.3693V43.4801H29.7256C29.8363 43.4801 29.8363 43.4801 29.8363 43.3693ZM29.2826 9.3743C29.2826 9.26357 29.2826 9.15284 29.2826 9.15284C29.2826 9.04211 29.2826 8.93137 29.1719 8.82064C29.1719 8.70991 29.0612 8.70991 28.9504 8.82064C28.9504 8.93137 28.8397 9.04211 28.8397 9.15284C28.8397 9.26357 28.729 9.26357 28.6182 9.15284L28.5075 9.0421C28.3968 8.82064 28.3968 8.59918 28.3968 8.37771C28.3968 8.15625 28.3968 8.0455 28.6182 7.93477C28.729 7.93477 28.8397 8.04551 29.0612 8.04551C29.0612 8.04551 29.1719 8.0455 29.1719 8.15623C29.5041 8.48843 29.7256 8.93137 29.7256 9.3743C29.7256 9.48504 29.7256 9.7065 29.7256 9.81723C29.7256 9.92796 29.7256 9.92798 29.7256 10.0387C29.6148 9.92798 29.6148 9.92796 29.5041 9.81723C29.5041 9.7065 29.3934 9.48504 29.2826 9.3743ZM43.6779 30.3028C43.7886 30.4136 43.8994 30.635 43.7886 30.8565C43.7886 31.078 43.6779 31.2994 43.4564 31.4102C43.4564 31.4102 43.4564 31.4102 43.3457 31.4102C43.235 31.4102 43.1242 31.4102 43.1242 31.2994C43.1242 31.1887 43.1242 31.1887 43.235 31.078C43.3457 30.9672 43.3457 30.8565 43.3457 30.635C43.3457 30.5243 43.4564 30.4136 43.6779 30.3028ZM40.4667 34.9536L40.5774 35.0644V35.1751C40.5774 35.3966 40.4667 35.618 40.3559 35.7288C40.3559 35.7288 40.2452 35.7288 40.1345 35.7288L40.0237 35.618C40.1345 35.3966 40.2452 35.1751 40.4667 34.9536ZM36.591 46.2484C36.4803 46.5806 36.2588 46.6913 35.9266 46.9128H35.8159V46.8021C36.0373 46.4699 36.2588 46.2484 36.591 46.2484C36.591 46.1377 36.591 46.1377 36.591 46.2484ZM35.5944 36.5039V36.6146C35.4837 36.8361 35.2622 37.1683 35.0407 37.3898H34.93V37.279C35.1515 36.9468 35.3729 36.7254 35.5944 36.5039ZM36.7017 18.4544C36.3695 18.3437 36.2588 18.1222 36.2588 17.79V17.6793H36.3695C36.4803 17.9007 36.591 18.1222 36.7017 18.4544ZM40.7989 34.4C40.7989 34.5107 40.7989 34.6214 40.6881 34.7322H40.5774V34.6214C40.5774 34.5107 40.6881 34.4 40.7989 34.4ZM36.0373 23.4374C35.8159 23.3267 35.8159 23.3267 35.7051 22.9945C35.9266 23.1052 35.9266 23.1052 36.0373 23.4374ZM41.9062 15.5754C42.0169 15.5754 42.0169 15.6861 42.0169 15.7968H41.9062C41.9062 15.6861 41.9062 15.6861 41.9062 15.5754ZM27.9538 55.3285C27.8431 55.55 27.8431 55.55 27.7324 55.55C27.7324 55.55 27.8431 55.4392 27.9538 55.3285ZM28.729 9.70651C28.8397 9.70651 28.8397 9.70651 28.729 9.70651C28.8397 9.81724 28.8397 9.92797 28.729 9.92797C28.729 9.92797 28.729 9.81724 28.729 9.70651ZM37.3661 19.451C37.2554 19.451 37.1447 19.3403 37.1447 19.2295H37.2554C37.3661 19.3403 37.3661 19.3403 37.3661 19.451ZM24.6318 2.06592C24.7426 2.06592 24.7426 2.06592 24.7426 2.06592C24.7426 2.06592 24.7426 2.17665 24.6318 2.06592ZM30.39 16.9042C30.5007 16.9042 30.5007 17.0149 30.5007 17.1256C30.3899 17.1256 30.2792 17.1256 30.39 16.9042C30.39 17.0149 30.39 17.0149 30.39 16.9042ZM30.8329 19.0081C30.7221 19.0081 30.7222 18.8973 30.6114 18.8973C30.6114 18.8973 30.5007 18.8973 30.6114 18.7866C30.6114 18.7866 30.7221 18.7866 30.8329 19.0081ZM26.5143 57.5432C26.625 57.5432 26.625 57.6539 26.625 57.6539C26.625 57.6539 26.625 57.6539 26.5143 57.6539C26.4036 57.6539 26.4036 57.5432 26.5143 57.5432ZM28.6182 10.3709C28.729 10.4816 28.729 10.4816 28.6182 10.3709C28.6182 10.4816 28.6182 10.4816 28.6182 10.3709ZM29.5041 15.5754C29.6148 15.4646 29.6148 15.5754 29.7256 15.5754V15.6861C29.5041 15.6861 29.5041 15.5754 29.5041 15.5754Z" fill="white"/>
<path d="M16.2162 30.8565L16.3269 30.7458C16.3269 30.6351 16.3269 30.5244 16.3269 30.5244C16.2162 29.9707 16.3269 29.417 16.3269 28.8634C16.3269 28.5312 16.5484 28.199 16.5484 27.8668V27.756C16.5484 27.5346 16.6591 27.4238 16.8806 27.3131V27.4238C16.8806 27.6453 16.7699 27.8668 16.7699 28.0882V28.199C16.6591 28.4204 16.6591 28.7526 16.5484 28.9741C16.5484 29.0848 16.5484 29.0848 16.5484 29.1956C16.5484 29.3063 16.6591 29.3063 16.7699 29.1956C16.7699 29.1956 16.8806 29.0848 16.8806 28.9741C16.8806 28.7526 16.9913 28.6419 16.9913 28.4204C16.9913 28.199 17.1021 27.9775 17.1021 27.756C17.1021 27.5346 17.2128 27.4238 17.2128 27.2024C17.3235 26.8702 17.3235 26.538 17.4342 26.2058C17.4342 25.9843 17.545 25.7628 17.6557 25.6521C17.8772 25.3199 17.9879 25.0984 17.8772 24.7662C17.8772 24.6555 17.9879 24.7662 17.9879 24.7662C18.0986 24.7662 18.0986 24.6555 18.0986 24.6555C18.0986 24.5448 18.2094 24.434 18.3201 24.3233C18.4308 24.3233 18.3201 24.2126 18.4308 24.1018C18.6523 23.9911 18.763 23.7696 18.8738 23.5482C18.8738 23.4374 18.9845 23.4374 18.9845 23.3267C19.206 22.9945 19.4274 22.6623 19.7596 22.3301C19.9811 22.1086 20.2026 21.8872 20.424 21.555C20.5348 21.4442 20.6455 21.3335 20.7562 21.3335C20.867 21.3335 20.867 21.2228 20.9777 21.3335C21.0884 21.3335 21.1992 21.4442 21.1992 21.555V21.6657C21.3099 21.6657 21.4206 21.6657 21.4206 21.555C21.6421 21.4442 21.8636 21.2228 21.9743 21.1121C22.1958 20.8906 22.528 20.6691 22.8602 20.6691C22.9709 20.6691 22.9709 20.6691 23.0816 20.5584C23.4138 20.4477 23.746 20.4477 24.0782 20.5584H24.189C24.5212 20.6691 24.8534 20.8906 25.1856 21.1121C25.2963 21.2228 25.407 21.2228 25.5178 21.2228C25.85 21.3335 26.0714 21.555 26.2929 21.7764C26.4036 21.8872 26.4036 21.8872 26.5144 21.9979C26.7358 22.2194 26.8466 22.3301 27.068 22.4408C27.2895 22.6623 27.511 22.8838 27.7324 23.1052C27.8431 23.216 27.8432 23.216 27.9539 23.3267L28.0646 23.4374C28.2861 23.6589 28.6183 23.8804 28.8397 24.1018C28.9505 24.2126 29.1719 24.3233 29.1719 24.5448C29.1719 24.6555 29.2827 24.6555 29.2827 24.7662C29.5041 24.9877 29.7256 25.3199 29.7256 25.7628C29.7256 25.8736 29.7256 25.8736 29.8363 25.9843C29.9471 26.095 30.0578 26.2058 30.1685 26.4272C30.2793 26.538 30.2793 26.6487 30.2793 26.7594C30.2793 26.9809 30.39 27.2024 30.39 27.3131C30.39 27.4238 30.5007 27.5346 30.5007 27.6453C30.5007 27.756 30.6115 27.8668 30.6115 27.9775C30.7222 28.199 30.8329 28.4204 30.8329 28.7526C30.8329 28.9741 30.9437 29.0848 30.9437 29.3063C30.9437 29.5278 30.9437 29.6385 30.9437 29.86C30.9437 30.3029 30.8329 30.6351 30.8329 31.078C30.8329 31.2995 30.8329 31.4102 30.8329 31.6317C30.8329 31.8532 30.8329 32.1854 30.8329 32.4068C30.8329 32.5176 30.8329 32.6283 30.8329 32.739C30.8329 32.9605 30.7222 33.0712 30.6115 33.1819C30.5007 33.2927 30.5007 33.2927 30.5007 33.4034C30.39 33.7356 30.1685 33.9571 30.0578 34.1785C29.9471 34.4 29.7256 34.6215 29.6149 34.8429C29.5041 34.9537 29.3934 35.1751 29.3934 35.2859C29.3934 35.3966 29.2827 35.3966 29.2827 35.5073C29.1719 35.6181 29.0612 35.7288 28.9505 35.9503C28.8397 36.2825 28.6183 36.7254 28.5075 37.0576C28.3968 37.2791 28.2861 37.3898 28.0646 37.6113C27.7324 37.8327 27.511 38.0542 27.1788 38.1649C27.068 38.2757 26.8466 38.3864 26.7358 38.4971C26.5144 38.7186 26.1822 38.8293 25.85 38.9401C25.5178 38.9401 25.2963 39.1615 25.0748 39.2723C24.8534 39.383 24.6319 39.4937 24.4104 39.7152C24.2997 39.8259 24.0782 39.8259 23.8568 39.7152C23.6353 39.7152 23.4138 39.6045 23.1924 39.4937C23.0816 39.4937 23.0816 39.383 22.9709 39.383C22.8602 39.383 22.8602 39.383 22.8602 39.2723C22.8602 39.2723 22.7494 39.2723 22.7494 39.1615C22.6387 39.1615 22.528 39.0508 22.4172 39.0508C22.4172 39.0508 22.3065 39.0508 22.3065 39.1615C22.1958 39.1615 22.085 39.0508 22.085 39.0508C21.9743 38.9401 21.8636 38.8293 21.8636 38.7186L21.7528 38.6079C21.5314 38.4971 21.3099 38.2757 21.0884 38.0542C20.9777 37.9435 20.9777 37.9435 20.867 37.8327C20.5348 37.5005 20.2026 37.0576 19.8704 36.7254C19.7596 36.6147 19.6489 36.5039 19.6489 36.3932C19.5382 36.1717 19.4274 36.061 19.3167 35.9503C19.206 35.8395 19.206 35.6181 19.0952 35.5073C18.9845 35.2859 18.8738 35.1751 18.8738 34.9537C18.763 34.6215 18.5416 34.4 18.3201 34.1785C18.3201 34.0678 18.2094 34.0678 18.0986 34.0678C18.0986 34.0678 18.0986 33.9571 18.0986 33.8464C18.0986 33.8464 18.0986 33.7356 17.9879 33.7356C17.8772 33.6249 17.7664 33.5141 17.7664 33.4034C17.7664 33.2927 17.6557 33.1819 17.545 33.1819C17.4343 33.1819 17.4342 33.0712 17.4342 32.9605C17.545 32.8498 17.4342 32.739 17.3235 32.6283C17.1021 32.2961 16.8806 32.0746 16.7699 31.7424C16.6591 31.6317 16.6591 31.5209 16.5484 31.4102C16.4377 31.2995 16.3269 31.078 16.2162 30.8565ZM24.5212 34.6215C24.6319 34.5107 24.6319 34.5107 24.5212 34.4C24.6319 34.5107 24.5212 34.5107 24.5212 34.6215V34.7322C24.5212 34.7322 24.5212 34.7322 24.6319 34.7322C24.6319 34.7322 24.6319 34.7322 24.5212 34.6215C24.6319 34.6215 24.6319 34.6215 24.5212 34.6215ZM23.6353 29.86C23.6353 30.3029 23.6353 30.5244 23.8568 30.9673C23.9675 31.078 23.9675 31.2995 24.0782 31.4102C24.0782 31.4102 24.189 31.5209 24.189 31.4102L24.2997 31.2995C24.2997 31.1888 24.2997 31.1888 24.2997 31.078C24.189 30.8566 24.189 30.7458 24.189 30.5244C24.189 30.4136 24.0782 30.3029 24.0782 30.1922C23.8568 30.0814 23.746 29.9707 23.6353 29.86ZM27.7324 32.5175C27.6217 32.6283 27.7324 32.6283 27.7324 32.5175C27.6217 32.739 27.6217 32.8497 27.6217 33.0712C27.6217 33.2927 27.6217 33.5141 27.4002 33.7356C27.2895 33.8463 27.4002 33.9571 27.4002 34.1785C27.4002 34.2893 27.511 34.2893 27.6217 34.2893C27.7324 34.2893 27.7324 34.1785 27.7324 34.1785C27.7324 34.1785 27.7324 34.1785 27.7324 34.0678C27.7324 33.6249 27.7324 33.182 27.8432 32.739C27.7324 32.739 27.7324 32.6283 27.7324 32.5175C27.7324 32.6283 27.7324 32.6283 27.7324 32.5175ZM24.6319 22.6623C24.7426 22.6623 24.8534 22.6623 24.9641 22.6623H25.0748C25.1856 22.6623 25.1856 22.6623 25.1856 22.5516C25.1856 22.4408 25.1856 22.4408 25.0748 22.4408C24.9641 22.4408 24.9641 22.3301 24.8534 22.3301C24.6319 22.3301 24.2997 22.3301 24.0782 22.3301H23.9675V22.4408H24.0782C24.4104 22.6623 24.5212 22.6623 24.6319 22.6623ZM30.39 30.1922C30.39 30.0814 30.5007 30.0814 30.39 30.1922C30.5007 29.9707 30.39 29.7492 30.5007 29.6385V29.5278C30.39 29.417 30.39 29.3063 30.2793 29.1956H30.1685C30.1685 29.3063 30.1685 29.417 30.1685 29.417C30.1685 29.6385 30.2793 29.86 30.39 30.1922ZM25.6285 27.756C25.7392 27.756 25.7392 27.6453 25.7392 27.5346C25.7392 27.4238 25.7392 27.3131 25.7392 27.3131C25.7392 26.9809 25.6285 26.9809 25.407 26.9809C25.2963 27.0916 25.407 27.2024 25.407 27.3131C25.407 27.5346 25.5178 27.6453 25.6285 27.756ZM25.0748 37.3898C24.9641 37.3898 24.7426 37.5005 24.7426 37.722C24.7426 37.8327 24.8534 37.8327 24.8534 37.8327C24.9641 37.8327 25.0748 37.722 25.1856 37.722C25.2963 37.722 25.2963 37.6113 25.1856 37.5005C25.2963 37.3898 25.1856 37.3898 25.0748 37.3898ZM22.6387 38.0542C22.528 37.8327 22.4172 37.6113 22.3065 37.5005C22.1958 37.5005 22.1958 37.5005 22.085 37.5005C21.9743 37.5005 21.9743 37.6113 22.085 37.6113C22.085 37.6113 22.085 37.722 22.1958 37.722C22.3065 37.8327 22.528 37.9435 22.6387 38.0542C22.528 38.1649 22.528 38.0542 22.6387 38.0542ZM29.2827 34.4C29.0612 34.5107 28.9505 34.6215 28.8397 34.8429V34.9537H28.9505C29.1719 34.8429 29.2827 34.7322 29.2827 34.4C29.2827 34.5107 29.2827 34.5107 29.2827 34.4ZM24.9641 38.6079C25.0748 38.6079 25.0748 38.6079 24.9641 38.6079C25.2963 38.6079 25.5178 38.4971 25.7392 38.3864C25.7392 38.3864 25.7392 38.3864 25.6285 38.3864H25.5178C25.407 38.3864 25.2963 38.3864 24.9641 38.6079C25.0748 38.6079 25.0748 38.4971 24.9641 38.6079ZM23.1924 23.6589C23.0816 23.7696 23.1924 23.9911 23.3031 23.9911H23.4138V23.8804C23.4138 23.7696 23.4138 23.7696 23.3031 23.7696C23.3031 23.6589 23.1924 23.6589 23.1924 23.6589ZM19.8704 23.6589C19.9811 23.6589 20.0918 23.6589 20.0918 23.5482C20.0918 23.5482 20.0918 23.5482 20.0918 23.4374C20.0918 23.4374 20.0918 23.4374 20.0918 23.3267C19.9811 23.3267 19.9811 23.4374 19.8704 23.6589ZM28.1754 36.2825C28.2861 36.2825 28.2861 36.1717 28.2861 36.1717C28.1753 36.1717 28.0646 36.1717 28.1754 36.2825ZM22.8602 36.7254C22.7494 36.7254 22.8602 36.6147 22.8602 36.7254C22.7494 36.7254 22.7494 36.7254 22.8602 36.7254ZM26.9573 27.5346C26.9573 27.4238 26.9573 27.4238 26.9573 27.5346V27.5346Z" fill="white"/>
</svg>
