<svg width="70" height="70" viewBox="0 0 70 70" fill="none" xmlns="http://www.w3.org/2000/svg">
<path fill-rule="evenodd" clip-rule="evenodd" d="M35 52.5C44.665 52.5 52.5 44.665 52.5 35C52.5 25.335 44.665 17.5 35 17.5C25.335 17.5 17.5 25.335 17.5 35C17.5 44.665 25.335 52.5 35 52.5ZM35 46.6667C41.4432 46.6667 46.6667 41.4432 46.6667 35C46.6667 28.5567 41.4432 23.3333 35 23.3333C28.5567 23.3333 23.3333 28.5567 23.3333 35C23.3333 41.4432 28.5567 46.6667 35 46.6667Z" fill="white"/>
<path d="M52.4997 14.583C50.8888 14.583 49.583 15.8889 49.583 17.4997C49.583 19.1105 50.8888 20.4163 52.4997 20.4163C54.1105 20.4163 55.4163 19.1105 55.4163 17.4997C55.4163 15.8889 54.1105 14.583 52.4997 14.583Z" fill="white"/>
<path fill-rule="evenodd" clip-rule="evenodd" d="M4.82438 12.4722C2.91699 16.2156 2.91699 21.1161 2.91699 30.917V39.0837C2.91699 48.8845 2.91699 53.7851 4.82438 57.5284C6.50216 60.8213 9.17931 63.4985 12.4722 65.1762C16.2156 67.0837 21.1161 67.0837 30.917 67.0837H39.0837C48.8845 67.0837 53.7851 67.0837 57.5284 65.1762C60.8213 63.4985 63.4985 60.8213 65.1762 57.5284C67.0837 53.7851 67.0837 48.8845 67.0837 39.0837V30.917C67.0837 21.1161 67.0837 16.2156 65.1762 12.4722C63.4985 9.17931 60.8213 6.50216 57.5284 4.82438C53.7851 2.91699 48.8845 2.91699 39.0837 2.91699H30.917C21.1161 2.91699 16.2156 2.91699 12.4722 4.82438C9.17931 6.50216 6.50216 9.17931 4.82438 12.4722ZM39.0837 8.75033H30.917C25.9203 8.75033 22.5236 8.75488 19.8981 8.96937C17.3406 9.17832 16.0328 9.55705 15.1204 10.0219C12.9252 11.1404 11.1404 12.9252 10.0219 15.1204C9.55705 16.0328 9.17832 17.3406 8.96937 19.8981C8.75488 22.5236 8.75033 25.9203 8.75033 30.917V39.0837C8.75033 44.0805 8.75488 47.4769 8.96937 50.1025C9.17832 52.6602 9.55705 53.968 10.0219 54.8803C11.1404 57.0754 12.9252 58.8601 15.1204 59.9787C16.0328 60.4436 17.3406 60.8224 19.8981 61.0313C22.5236 61.2457 25.9203 61.2503 30.917 61.2503H39.0837C44.0805 61.2503 47.4769 61.2457 50.1025 61.0313C52.6602 60.8224 53.968 60.4436 54.8803 59.9787C57.0754 58.8601 58.8601 57.0754 59.9787 54.8803C60.4436 53.968 60.8224 52.6602 61.0313 50.1025C61.2457 47.4769 61.2503 44.0805 61.2503 39.0837V30.917C61.2503 25.9203 61.2457 22.5236 61.0313 19.8981C60.8224 17.3406 60.4436 16.0328 59.9787 15.1204C58.8601 12.9252 57.0754 11.1404 54.8803 10.0219C53.968 9.55705 52.6602 9.17832 50.1025 8.96937C47.4769 8.75488 44.0805 8.75033 39.0837 8.75033Z" fill="white"/>
</svg>
